<?xml version="1.0" encoding="UTF-8" standalone="no"?>
<!-- Created with Inkscape (http://www.inkscape.org/) -->

<svg
   xmlns:dc="http://purl.org/dc/elements/1.1/"
   xmlns:cc="http://creativecommons.org/ns#"
   xmlns:rdf="http://www.w3.org/1999/02/22-rdf-syntax-ns#"
   xmlns:svg="http://www.w3.org/2000/svg"
   xmlns="http://www.w3.org/2000/svg"
   xmlns:sodipodi="http://sodipodi.sourceforge.net/DTD/sodipodi-0.dtd"
   xmlns:inkscape="http://www.inkscape.org/namespaces/inkscape"
   width="500"
   height="550"
   id="svg2"
   version="1.1"
   inkscape:version="0.48.4 r"
   sodipodi:docname="New document 1">
  <defs
     id="defs4" />
  <sodipodi:namedview
     id="base"
     pagecolor="#ffffff"
     bordercolor="#666666"
     borderopacity="1.0"
     inkscape:pageopacity="0.0"
     inkscape:pageshadow="2"
     inkscape:zoom="1.5636364"
     inkscape:cx="250"
     inkscape:cy="275"
     inkscape:document-units="px"
     inkscape:current-layer="layer1"
     showgrid="false"
     showguides="true"
     inkscape:guide-bbox="true"
     showborder="true"
     borderlayer="true"
     inkscape:object-nodes="false"
     inkscape:window-width="1920"
     inkscape:window-height="1051"
     inkscape:window-x="-9"
     inkscape:window-y="-9"
     inkscape:window-maximized="1" />
  <metadata
     id="metadata7">
    <rdf:RDF>
      <cc:Work
         rdf:about="">
        <dc:format>image/svg+xml</dc:format>
        <dc:type
           rdf:resource="http://purl.org/dc/dcmitype/StillImage" />
        <dc:title></dc:title>
      </cc:Work>
    </rdf:RDF>
  </metadata>
  <g
     inkscape:label="Layer 1"
     inkscape:groupmode="layer"
     id="layer1"
     transform="translate(0,-502.36218)">
    <rect
       style="fill:#ececec;fill-opacity:1;stroke:none"
       id="rect2985"
       width="513.15753"
       height="563.6651"
       x="-6.0609121"
       y="497.78842" />
    <rect
       style="fill:#f9f9f9;fill-opacity:1;stroke:none"
       id="rect2991"
       width="860.88397"
       height="321.41364"
       x="-1478.7159"
       y="1348.7361"
       transform="matrix(1,0,0.72841162,0.68513977,0,0)" />
    <path
       style="fill:none;stroke:#000000;stroke-width:1px;stroke-linecap:butt;stroke-linejoin:miter;stroke-opacity:1"
       d="m 362.64476,421.71063 0,-472.751394"
       id="path2993"
       inkscape:connector-curvature="0"
       transform="translate(0,502.36218)" />
    <rect
       style="fill:#808080;fill-opacity:1;stroke:none"
       id="rect2995"
       width="139.37543"
       height="370.72598"
       x="516.10309"
       y="214.86575"
       transform="matrix(0.73201863,0.68128462,0,1,0,0)" />
    <rect
       style="fill:#cccccc;fill-opacity:1;stroke:none"
       id="rect3825"
       width="369.19644"
       height="430.00003"
       x="-7.142859"
       y="493.79077" />
    <rect
       style="fill:#999999;fill-opacity:1;stroke:none"
       id="rect2999"
       width="145.46196"
       height="145.46196"
       x="114.14723"
       y="652.3418" />
    <rect
       style="fill:#00ffff;fill-opacity:1;stroke:none"
       id="rect3001"
       width="53.538086"
       height="53.538086"
       x="121.8713"
       y="660.30042" />
    <rect
       style="fill:#00ffff;fill-opacity:1;stroke:none"
       id="rect3001-0"
       width="53.538086"
       height="53.538086"
       x="198.94525"
       y="659.87885" />
    <rect
       style="fill:#00ffff;fill-opacity:1;stroke:none"
       id="rect3001-0-1"
       width="53.538086"
       height="53.538086"
       x="121.80239"
       y="736.66455" />
    <rect
       style="fill:#00ffff;fill-opacity:1;stroke:none"
       id="rect3001-0-1-1"
       width="53.538086"
       height="53.538086"
       x="197.87383"
       y="737.02173" />
    <path
       sodipodi:type="arc"
       style="fill:#d4aa00;fill-opacity:1;stroke:none"
       id="path4943"
       sodipodi:cx="420.71429"
       sodipodi:cy="337.5"
       sodipodi:rx="10.714286"
       sodipodi:ry="10.714286"
       d="m 431.42858,337.5 a 10.714286,10.714286 0 1 1 -21.42857,0 10.714286,10.714286 0 1 1 21.42857,0 z"
       transform="matrix(1,0,0.3,1,-119.82142,482.00503)" />
    <g
       id="g5018"
       transform="matrix(1.6409034,0,0,1.4377872,15.193287,-394.74142)">
      <path
         transform="matrix(0.70609146,0,0,1.0860913,42.374035,-83.7906)"
         style="fill:#deaa87;fill-opacity:1;stroke:none"
         d="m 126.5625,985.8125 0,13 15.84375,0 0,-13 -15.84375,0 z"
         id="path4999"
         inkscape:connector-curvature="0" />
      <g
         transform="matrix(1,0.90090143,0,1,-76.680083,-187.28291)"
         id="g4961">
        <path
           style="fill:#deaa87;fill-opacity:1;stroke:#deaa87;stroke-width:1px;stroke-linecap:butt;stroke-linejoin:miter;stroke-opacity:1"
           d="m 151.52288,988.97511 -0.50508,-44.69925 11.11168,-11.11168 46.71955,0 10.2278,10.22779 0,45.3306 z"
           id="path4957"
           inkscape:connector-curvature="0"
           sodipodi:nodetypes="ccccccc" />
        <path
           sodipodi:nodetypes="ccccccc"
           inkscape:connector-curvature="0"
           id="path4955"
           d="m 140.4112,1000.0868 -0.50508,-44.69926 11.11168,-11.11168 46.71955,0 10.2278,10.22779 0,45.33056 z"
           style="fill:#c87137;fill-opacity:1;stroke:#c87137;stroke-width:1px;stroke-linecap:butt;stroke-linejoin:miter;stroke-opacity:1" />
      </g>
      <g
         id="g4949">
        <path
           transform="matrix(1,0,0.79011482,0.61295887,0,0)"
           style="fill:#deaa87;fill-opacity:1;stroke:none"
           d="m -1257.0811,1562.2236 134.6429,0 0,6.6384 -134.6429,0 z"
           id="rect4947"
           inkscape:connector-curvature="0" />
        <path
           style="fill:#c87137;fill-opacity:1;stroke:none"
           d="m -17.857141,961.64789 135.000001,0 0,21.93673 -135.000001,0 z"
           id="rect4945"
           inkscape:connector-curvature="0" />
      </g>
      <path
         style="fill:#ececec;fill-opacity:1;stroke:none"
         d="m -30.959339,945.51074 142.857149,0 0,12.06811 -142.857149,0 z"
         id="rect4989"
         inkscape:connector-curvature="0" />
      <path
         sodipodi:nodetypes="ccccc"
         inkscape:connector-curvature="0"
         id="rect4991"
         d="m -1028.9717,-1394.5864 115.74489,0 0,48.7364 -115.74489,0 z"
         style="fill:#ffffff;fill-opacity:1;stroke:none"
         transform="matrix(1,0,-0.73507435,-0.67798651,0,0)" />
    </g>
  </g>
</svg>
