<?xml version="1.0" encoding="UTF-8" standalone="no"?>
<!-- Created with Inkscape (http://www.inkscape.org/) -->

<svg
   xmlns:dc="http://purl.org/dc/elements/1.1/"
   xmlns:cc="http://creativecommons.org/ns#"
   xmlns:rdf="http://www.w3.org/1999/02/22-rdf-syntax-ns#"
   xmlns:svg="http://www.w3.org/2000/svg"
   xmlns="http://www.w3.org/2000/svg"
   xmlns:xlink="http://www.w3.org/1999/xlink"
   xmlns:sodipodi="http://sodipodi.sourceforge.net/DTD/sodipodi-0.dtd"
   xmlns:inkscape="http://www.inkscape.org/namespaces/inkscape"
   width="500"
   height="550"
   id="svg7882"
   version="1.1"
   inkscape:version="0.48.4 r"
   sodipodi:docname="button.svg"
   inkscape:export-filename="C:\Users\Bob\Cpp\ld32\resources\button.png"
   inkscape:export-xdpi="90"
   inkscape:export-ydpi="90">
  <defs
     id="defs7884">
    <linearGradient
       id="linearGradient8965">
      <stop
         style="stop-color:#ffd42a;stop-opacity:1;"
         offset="0"
         id="stop8967" />
      <stop
         style="stop-color:#c39a00;stop-opacity:1;"
         offset="1"
         id="stop8969" />
    </linearGradient>
    <linearGradient
       id="linearGradient8623">
      <stop
         id="stop8625"
         offset="0"
         style="stop-color:#ff3b3c;stop-opacity:1;" />
      <stop
         id="stop8627"
         offset="1"
         style="stop-color:#ff0000;stop-opacity:1;" />
    </linearGradient>
    <linearGradient
       id="linearGradient8615">
      <stop
         style="stop-color:#ff0000;stop-opacity:1;"
         offset="0"
         id="stop8617" />
      <stop
         style="stop-color:#ff5b64;stop-opacity:1;"
         offset="1"
         id="stop8619" />
    </linearGradient>
    <inkscape:path-effect
       effect="skeletal"
       id="path-effect7896"
       is_visible="true"
       pattern="m 157.90625,200.01703 c 0.0584,-1.01011 0.15625,-2.00649 0.15625,-3.03125 0,-1.7956 -0.0724,-3.56376 -0.25,-5.3125 -0.17759,-1.74874 -0.43478,-3.49433 -0.78125,-5.1875 -0.34647,-1.69317 -0.77461,-3.33987 -1.28125,-4.96875 -0.50664,-1.62888 -1.09192,-3.22537 -1.75,-4.78125 -1.31616,-3.11176 -2.94285,-6.0763 -4.8125,-8.84375 -1.86965,-2.76745 -3.99033,-5.33408 -6.34375,-7.6875 -2.35342,-2.35342 -4.92005,-4.50535 -7.6875,-6.375 -2.76745,-1.86965 -5.73199,-3.46509 -8.84375,-4.78125 -1.55588,-0.65808 -3.15237,-1.24336 -4.78125,-1.75 -1.62888,-0.50664 -3.30683,-0.93478 -5,-1.28125 -1.69317,-0.34647 -3.40751,-0.60366 -5.15625,-0.78125 -1.74874,-0.17759 -3.5169,-0.28125 -5.3125,-0.28125 -1.7956,0 -3.56376,0.10366 -5.3125,0.28125 -1.74874,0.17759 -3.49433,0.43478 -5.1875,0.78125 -1.69317,0.34647 -3.33987,0.77461 -4.96875,1.28125 -1.62888,0.50664 -3.22537,1.09192 -4.78125,1.75 -3.11176,1.31616 -6.0763,2.9116 -8.84375,4.78125 -2.76745,1.86965 -5.33408,4.02158 -7.6875,6.375 -2.35342,2.35342 -4.50535,4.92005 -6.375,7.6875 -1.86965,2.76745 -3.46509,5.73199 -4.78125,8.84375 -0.65808,1.55588 -1.24336,3.15237 -1.75,4.78125 -0.50664,1.62888 -0.93478,3.27558 -1.28125,4.96875 -0.34647,1.69317 -0.60366,3.43876 -0.78125,5.1875 -0.17759,1.74874 -0.28125,3.5169 -0.28125,5.3125 0,1.02447 0.0978,2.02142 0.15625,3.03125 l 103.71875,0 z"
       copytype="single_stretched"
       prop_scale="1"
       scale_y_rel="false"
       spacing="0"
       normal_offset="0"
       tang_offset="0"
       prop_units="false"
       vertical_pattern="false"
       fuse_tolerance="0" />
    <radialGradient
       inkscape:collect="always"
       xlink:href="#linearGradient8965"
       id="radialGradient8963"
       gradientUnits="userSpaceOnUse"
       gradientTransform="matrix(0.82868661,1.3049017,-1.0126512,0.87886303,398.09735,-303.4022)"
       cx="260.27042"
       cy="349.48795"
       fx="260.27042"
       fy="349.48795"
       r="35.647652" />
    <radialGradient
       inkscape:collect="always"
       xlink:href="#linearGradient8965"
       id="radialGradient8971"
       cx="244.42059"
       cy="369.45221"
       fx="244.42058"
       fy="369.45221"
       r="35.647652"
       gradientUnits="userSpaceOnUse"
       gradientTransform="matrix(0.82868648,1.3049011,-1.0126514,0.87886348,431.44882,-300.26561)" />
    <radialGradient
       inkscape:collect="always"
       xlink:href="#linearGradient8965-4"
       id="radialGradient8971-9"
       cx="244.42059"
       cy="369.45221"
       fx="244.42058"
       fy="369.45221"
       r="35.647652"
       gradientUnits="userSpaceOnUse"
       gradientTransform="matrix(0.82868648,1.3049011,-1.0126514,0.87886348,431.44882,-300.26561)" />
    <linearGradient
       id="linearGradient8965-4">
      <stop
         style="stop-color:#ffd42a;stop-opacity:1;"
         offset="0"
         id="stop8967-0" />
      <stop
         style="stop-color:#c39a00;stop-opacity:1;"
         offset="1"
         id="stop8969-8" />
    </linearGradient>
    <radialGradient
       inkscape:collect="always"
       xlink:href="#linearGradient8965-4"
       id="radialGradient8963-8"
       gradientUnits="userSpaceOnUse"
       gradientTransform="matrix(0.82868661,1.3049017,-1.0126512,0.87886303,398.09735,-303.4022)"
       cx="260.27042"
       cy="349.48795"
       fx="260.27042"
       fy="349.48795"
       r="35.647652" />
    <linearGradient
       id="linearGradient9109">
      <stop
         style="stop-color:#ffd42a;stop-opacity:1;"
         offset="0"
         id="stop9111" />
      <stop
         style="stop-color:#c39a00;stop-opacity:1;"
         offset="1"
         id="stop9113" />
    </linearGradient>
  </defs>
  <sodipodi:namedview
     id="base"
     pagecolor="#ffffff"
     bordercolor="#666666"
     borderopacity="1.0"
     inkscape:pageopacity="0.0"
     inkscape:pageshadow="2"
     inkscape:zoom="0.78181818"
     inkscape:cx="-0.29591927"
     inkscape:cy="260.9521"
     inkscape:document-units="px"
     inkscape:current-layer="layer1"
     showgrid="false"
     borderlayer="true"
     showguides="true"
     inkscape:guide-bbox="true"
     inkscape:object-nodes="false"
     inkscape:window-width="1920"
     inkscape:window-height="1051"
     inkscape:window-x="-9"
     inkscape:window-y="-9"
     inkscape:window-maximized="1" />
  <metadata
     id="metadata7887">
    <rdf:RDF>
      <cc:Work
         rdf:about="">
        <dc:format>image/svg+xml</dc:format>
        <dc:type
           rdf:resource="http://purl.org/dc/dcmitype/StillImage" />
        <dc:title></dc:title>
      </cc:Work>
    </rdf:RDF>
  </metadata>
  <g
     inkscape:label="Layer 1"
     inkscape:groupmode="layer"
     id="layer1"
     transform="translate(0,-502.36218)">
    <path
       style="fill:none;stroke:#000000;stroke-width:1px;stroke-linecap:butt;stroke-linejoin:miter;stroke-opacity:1"
       d="m 30.05814,31.976744 c 0,3.837209 0,7.674419 0,11.511628 0,1.705426 -0.08964,3.41321 0,5.116279 0.123756,2.351377 0.54151,4.682294 0.639534,7.034884 0.115372,2.768915 0,5.542636 0,8.313953 0,1.27907 -0.06387,2.559736 0,3.83721 0.149419,2.988366 0.426357,5.968992 0.639535,8.953488 0.615413,8.615777 0.568658,8.458167 1.27907,16.627907 0.203981,2.345779 0.501266,4.684316 0.639535,7.034887 0.07511,1.27686 -0.102,2.56221 0,3.83721 0.324784,4.05979 0.966703,8.09039 1.27907,12.15116 0.11445,1.48785 -0.06776,2.98603 0,4.47674 0.145521,3.20147 0.532768,6.39003 0.639535,9.59303 0.10653,3.1959 -0.220007,6.40292 0,9.59302 0.207424,3.00765 0.993239,5.95227 1.279069,8.95349 0.141479,1.48552 -0.164791,2.99362 0,4.47674 1.474719,13.27247 1.286124,0.78768 1.918605,14.06977 0.101399,2.12937 0,4.26357 0,6.39535 0,2.34496 0,4.68992 0,7.03488 0,8.52713 0,17.05427 0,25.5814 0,2.13178 0,4.26356 0,6.39535 0,1.06589 -0.07594,2.13449 0,3.19767 0.0016,0.0225 1.278176,11.49553 1.27907,11.51163 0.106425,1.91565 0,3.83721 0,5.75581 0,1.06589 0,2.13179 0,3.19768 0,6.60852 0,13.21705 0,19.82558 0,5.32946 0,10.65891 0,15.98837 0,1.91861 0,3.83721 0,5.75581 0,0.85272 -0.0772,1.70893 0,2.55814 0.136473,1.50121 0.523923,2.97379 0.639535,4.47675 0.0981,1.2753 -0.14125,2.56596 0,3.83721 0.706947,6.36253 0.639535,-0.0969 0.639535,2.55814"
       id="path7922"
       inkscape:connector-curvature="0"
       transform="translate(0,502.36218)" />
    <path
       style="fill:none;stroke:#000000;stroke-width:1px;stroke-linecap:butt;stroke-linejoin:miter;stroke-opacity:1"
       d="m 40.930233,294.82558 c 3.512498,3.01895 -3.030407,-2.64177 -1.918605,-3.19767 0.381345,-0.19068 0.852713,0 1.27907,0 0.426356,0 0.856998,0.0603 1.279069,0 11.702858,-1.67184 -7.556555,0.37586 7.674419,-0.63954 1.714892,-0.11432 3.410853,-0.42635 5.116279,-0.63953 2.344961,-0.21318 4.683878,-0.50893 7.034884,-0.63954 1.48995,-0.0828 2.986185,0.071 4.476744,0 9.74586,-0.46409 9.926371,-0.89043 20.465116,-1.9186 15.943061,-1.55542 14.249311,-1.08954 30.697671,-2.55814 25.94815,-2.3168 14.43912,-1.66676 41.56977,-3.83721 3.40663,-0.27253 6.81573,-0.5712 10.23256,-0.63954 7.24661,-0.14493 14.49612,0 21.74419,0 18.54651,0 37.09302,0 55.63953,0 14.06977,0 28.13954,0 42.2093,0 15.91555,0 16.85437,-0.25001 31.97675,0.63954 9.49258,0.55839 7.65671,0.95586 19.18604,3.19767 3.61238,0.70241 7.28245,1.10804 10.8721,1.91861 3.02769,0.68367 5.96899,1.70542 8.95348,2.55814 1.49225,0.42635 2.94896,1.00625 4.47675,1.27907 4.45177,0.79496 8.93204,1.45327 13.43023,1.9186 1.69637,0.17549 3.41085,0 5.11628,0 3.62403,0 7.24806,0 10.87209,0 6.82171,0 13.64341,0 20.46512,0 1.27907,0 2.56035,-0.0751 3.83721,0 6.43489,0.37852 7.27893,0.60047 13.43023,1.91861 0.85945,0.18416 1.72429,0.36158 2.55814,0.63953 6.15246,2.05082 3.62374,1.98964 9.59302,2.55814 3.76734,1.82018 7.68178,0.32038 11.51163,0.63954 1.98361,0.1653 7.47425,0.97638 9.59303,1.27907 1.49224,0.21317 2.97553,0.50306 4.47674,0.63953 6.1272,0.55702 -1.73852,-0.98724 6.39535,0.63954 0.86189,0.17237 1.72429,0.36158 2.55814,0.63953 0.45222,0.15074 0.82685,0.4888 1.27907,0.63954 0.20224,0.0674 0.48879,0.15073 0.63953,0 0.15074,-0.15074 0,-0.42636 0,-0.63954 0,-0.21318 0,-0.42636 0,-0.63953"
       id="path7924"
       inkscape:connector-curvature="0"
       transform="translate(0,502.36218)" />
    <path
       style="fill:none;stroke:#000000;stroke-width:1px;stroke-linecap:butt;stroke-linejoin:miter;stroke-opacity:1"
       d="m 32.616279,33.895349 c 3.410853,0 6.821705,0 10.232558,0 2.131783,0 4.265765,0.0968 6.395349,0 2.564359,-0.116562 5.110615,-0.511345 7.674419,-0.639535 1.703298,-0.08517 3.412611,0.07744 5.116279,0 7.678324,-0.349015 15.348837,-0.852713 23.023256,-1.27907 3.837209,-0.213178 7.670069,-0.529776 11.511627,-0.639535 3.622553,-0.103501 7.248063,0 10.872093,0 3.41085,0 6.82171,0 10.23256,0 9.16667,0 18.33333,0 27.5,0 19.18605,0 38.37209,0 57.55814,0 5.11628,0 10.23256,0 15.34884,0 5.11627,0 10.23464,-0.146119 15.34883,0 2.35367,0.06725 4.68122,0.572287 7.03489,0.639535 5.11419,0.14612 10.23358,-0.102305 15.34883,0 5.0235,0.10047 27.36946,1.133325 32.61628,1.27907 2.34406,0.06511 4.68993,0 7.03489,0 4.47674,0 8.95475,-0.106559 13.43023,0 4.48055,0.10668 8.94968,0.532855 13.43023,0.639535 4.47548,0.106559 8.95349,0 13.43023,0 4.26357,0 8.52714,0 12.7907,0 1.91861,0 3.83863,-0.07374 5.75582,0 39.87286,2.345463 -14.15064,-0.618844 19.82558,0.639535 2.7776,0.102874 5.53667,0.528443 8.31395,0.639535 2.5561,0.102243 5.11628,0 7.67442,0 1.27907,0 2.56063,-0.07979 3.83721,0 21.11891,2.111891 -6.11663,-0.397422 11.51163,0.639534 1.92708,0.113358 3.82873,0.526178 5.75581,0.639535 1.70248,0.100146 3.41085,0 5.11628,0 1.9186,0 3.83721,0 5.75581,0 5.32946,0 10.65892,0 15.98838,0 0.63953,0 1.27907,0 1.9186,0 1.49225,0 2.98829,-0.106318 4.47674,0 3.00714,0.214796 5.94758,1.047846 8.95349,1.27907 1.2753,0.0981 2.55814,0 3.83721,0 0.63954,0 1.2855,-0.09044 1.91861,0 0.87012,0.124303 1.69114,0.495035 2.55814,0.639535 0.42055,0.07009 0.85271,0 1.27907,0 0.42635,0 0.85271,0 1.27907,0"
       id="path7928"
       inkscape:connector-curvature="0"
       transform="translate(0,502.36218)" />
    <path
       style="fill:none;stroke:#000000;stroke-width:1px;stroke-linecap:butt;stroke-linejoin:miter;stroke-opacity:1"
       d="m 473.25581,37.732558 c 0.42636,1.065892 1.00064,2.083951 1.27907,3.197675 0.3656,1.462391 0.44032,2.982569 0.63954,4.476744 0.22715,1.703622 0.5442,3.400227 0.63953,5.116279 0.11825,2.128501 0,4.263566 0,6.395349 0,2.344961 0,4.689922 0,7.034883 0,1.27907 0,2.55814 0,3.83721 0,2.558139 0.0947,5.118031 0,7.674418 -0.11861,3.202577 -0.3404,6.402242 -0.63953,9.593024 -0.3406,3.633093 -0.8608,7.247119 -1.27907,10.872093 -0.22127,1.917688 -0.49693,3.830676 -0.63954,5.755817 -1.05743,14.27534 -0.23394,9.03107 -1.27907,23.66279 -0.13753,1.9255 -0.56534,3.82683 -0.63953,5.75581 -0.13928,3.62135 0,7.24806 0,10.87209 0,3.62404 -0.23332,7.25558 0,10.8721 0.1941,3.00854 0.94614,5.95713 1.27907,8.95349 2.04472,26.58131 -0.42657,-2.34678 1.27907,12.15116 0.27512,2.3385 0.30654,4.70392 0.63953,7.03488 0.30745,2.15215 1.05149,4.2333 1.27907,6.39535 0.20085,1.90806 0,3.83721 0,5.75581 0,2.13179 0,4.26357 0,6.39535 0,7.03489 0,14.06977 0,21.10465 0,2.9845 0,5.969 0,8.95349 0,1.70543 -0.10638,3.41418 0,5.11628 0.10721,1.71535 0.49681,3.40352 0.63954,5.11628 0.0708,0.84977 -0.0501,1.7069 0,2.55814 0.16322,2.77471 0.48535,5.53873 0.63953,8.31395 0.0591,1.06425 0,2.13179 0,3.19768 0,2.55814 0,5.11628 0,7.67442 0,2.34496 0,4.68992 0,7.03488 0,1.06589 0.0591,2.13343 0,3.19768 -0.15418,2.77522 -0.46615,5.53986 -0.63953,8.31395 -0.0399,0.63829 0,1.27907 0,1.9186 0,1.70543 0,3.41086 0,5.11628 0,0.63954 0,1.27907 0,1.91861 0,0.21318 0,0.42635 0,0.63953 0,0.21318 0.0953,0.44886 0,0.63954 -0.13483,0.26965 -0.50471,0.36988 -0.63954,0.63953 -0.13339,0.26679 0.14889,1.13018 0,1.27907 -0.15074,0.15074 -0.44886,-0.0953 -0.63953,0 -0.26965,0.13483 -0.42636,0.42636 -0.63954,0.63954"
       id="path7932"
       inkscape:connector-curvature="0"
       transform="translate(0,502.36218)" />
    <rect
       style="fill:#f9f9f9;fill-opacity:1;stroke:#e6e6e6;stroke-width:1.58599997;stroke-miterlimit:4;stroke-opacity:1;stroke-dasharray:none"
       id="rect8090"
       width="594.21637"
       height="604.16516"
       x="-58.788528"
       y="479.85236" />
    <g
       id="g8099">
      <path
         inkscape:connector-curvature="0"
         id="path8038"
         d="m -53.081395,1046.6064 132.383721,-78.66282 50.523254,0 -170.755813,95.29072 z"
         style="fill:#800000;stroke:#800000;stroke-width:1px;stroke-linecap:butt;stroke-linejoin:miter;stroke-opacity:1" />
      <path
         inkscape:connector-curvature="0"
         id="path8040"
         d="m -40.930233,1063.2343 170.755813,-95.29072 0,121.51162 z"
         style="fill:#aa0000;stroke:#aa0000;stroke-width:1px;stroke-linecap:butt;stroke-linejoin:miter;stroke-opacity:1" />
    </g>
    <g
       id="g8051"
       transform="matrix(-1,0,0,1,499.52395,3.1976696)">
      <path
         style="fill:#800000;stroke:#800000;stroke-width:1px;stroke-linecap:butt;stroke-linejoin:miter;stroke-opacity:1"
         d="m -53.081395,544.24419 132.383721,-78.66279 50.523254,0 -170.755813,95.29069 z"
         id="path8063"
         inkscape:connector-curvature="0"
         transform="translate(0,502.36218)" />
      <path
         style="fill:#aa0000;stroke:#aa0000;stroke-width:1px;stroke-linecap:butt;stroke-linejoin:miter;stroke-opacity:1"
         d="m -40.930233,560.87209 170.755813,-95.29069 0,121.51162 z"
         id="path8065"
         inkscape:connector-curvature="0"
         transform="translate(0,502.36218)" />
    </g>
    <rect
       style="fill:#cccccc;fill-opacity:1;stroke:#cccccc;stroke-width:1.58599997;stroke-miterlimit:4;stroke-opacity:1;stroke-dasharray:none"
       id="rect8067"
       width="87.417526"
       height="189.73727"
       x="199.65565"
       y="883.60297" />
    <rect
       style="fill:#e6e6e6;fill-opacity:1;stroke:#e6e6e6;stroke-width:2.61903190999999990;stroke-miterlimit:4;stroke-opacity:1;stroke-dasharray:none"
       id="rect8069"
       width="87.417534"
       height="66.140923"
       x="199.65565"
       y="817.46198" />
  </g>
</svg>
