<?xml version="1.0" encoding="UTF-8" standalone="no"?>
<!-- Created with Inkscape (http://www.inkscape.org/) -->

<svg
   xmlns:dc="http://purl.org/dc/elements/1.1/"
   xmlns:cc="http://creativecommons.org/ns#"
   xmlns:rdf="http://www.w3.org/1999/02/22-rdf-syntax-ns#"
   xmlns:svg="http://www.w3.org/2000/svg"
   xmlns="http://www.w3.org/2000/svg"
   xmlns:sodipodi="http://sodipodi.sourceforge.net/DTD/sodipodi-0.dtd"
   xmlns:inkscape="http://www.inkscape.org/namespaces/inkscape"
   width="500"
   height="550"
   id="svg6864"
   version="1.1"
   inkscape:version="0.48.4 r"
   sodipodi:docname="carhome.svg"
   inkscape:export-filename="C:\Users\Bob\Cpp\ld32\resources\carhome.png"
   inkscape:export-xdpi="90"
   inkscape:export-ydpi="90">
  <defs
     id="defs6866" />
  <sodipodi:namedview
     id="base"
     pagecolor="#ffffff"
     bordercolor="#666666"
     borderopacity="1.0"
     inkscape:pageopacity="0.0"
     inkscape:pageshadow="2"
     inkscape:zoom="1.5636364"
     inkscape:cx="233.19047"
     inkscape:cy="273.72093"
     inkscape:document-units="px"
     inkscape:current-layer="layer1"
     showgrid="false"
     borderlayer="true"
     inkscape:object-nodes="false"
     inkscape:window-width="1920"
     inkscape:window-height="1051"
     inkscape:window-x="-9"
     inkscape:window-y="-9"
     inkscape:window-maximized="1" />
  <metadata
     id="metadata6869">
    <rdf:RDF>
      <cc:Work
         rdf:about="">
        <dc:format>image/svg+xml</dc:format>
        <dc:type
           rdf:resource="http://purl.org/dc/dcmitype/StillImage" />
        <dc:title></dc:title>
      </cc:Work>
    </rdf:RDF>
  </metadata>
  <g
     inkscape:label="Layer 1"
     inkscape:groupmode="layer"
     id="layer1"
     transform="translate(0,-502.36218)">
    <rect
       style="fill:#00ffff;fill-opacity:1;stroke:none"
       id="rect6890"
       width="490.93414"
       height="320.21835"
       x="104.04572"
       y="-55.081375"
       transform="translate(0,502.36218)" />
    <rect
       style="fill:#008000;fill-opacity:1;stroke:none"
       id="rect6888"
       width="477.80215"
       height="241.42645"
       x="86.873116"
       y="241.90347"
       transform="translate(0,502.36218)" />
    <rect
       style="fill:#999999;fill-opacity:1;stroke:none"
       id="rect6886"
       width="756.60425"
       height="206.07112"
       x="-125.25893"
       y="942.25555" />
    <path
       style="fill:#d38d5f;fill-opacity:1;stroke:none"
       d="M -84.852819,516.98135 142.4315,339.1945 l 0,606.09155 -227.284319,177.78685 z"
       id="rect6872"
       inkscape:connector-curvature="0"
       sodipodi:nodetypes="ccccc" />
    <path
       style="fill:#4d4d4d;fill-opacity:1;stroke:none"
       d="M 474.09375 496.46875 C 474.1522 495.45864 474.25 494.46226 474.25 493.4375 C 474.25 491.6419 474.17759 489.87374 474 488.125 C 473.82241 486.37626 473.56522 484.63067 473.21875 482.9375 C 472.87228 481.24433 472.44414 479.59763 471.9375 477.96875 C 471.43086 476.33987 470.84558 474.74338 470.1875 473.1875 C 468.87134 470.07574 467.24465 467.1112 465.375 464.34375 C 463.50535 461.5763 461.38467 459.00967 459.03125 456.65625 C 456.67783 454.30283 454.1112 452.1509 451.34375 450.28125 C 448.5763 448.4116 445.61176 446.81616 442.5 445.5 C 440.94412 444.84192 439.34763 444.25664 437.71875 443.75 C 436.08987 443.24336 434.41192 442.81522 432.71875 442.46875 C 431.02558 442.12228 429.31124 441.86509 427.5625 441.6875 C 425.81376 441.50991 424.0456 441.40625 422.25 441.40625 C 420.4544 441.40625 418.68624 441.50991 416.9375 441.6875 C 415.18876 441.86509 413.44317 442.12228 411.75 442.46875 C 410.05683 442.81522 408.41013 443.24336 406.78125 443.75 C 405.15237 444.25664 403.55588 444.84192 402 445.5 C 398.88824 446.81616 395.9237 448.4116 393.15625 450.28125 C 390.3888 452.1509 387.82217 454.30283 385.46875 456.65625 C 383.11533 459.00967 380.9634 461.5763 379.09375 464.34375 C 377.2241 467.1112 375.62866 470.07574 374.3125 473.1875 C 373.65442 474.74338 373.06914 476.33987 372.5625 477.96875 C 372.05586 479.59763 371.62772 481.24433 371.28125 482.9375 C 370.93478 484.63067 370.67759 486.37626 370.5 488.125 C 370.32241 489.87374 370.21875 491.6419 370.21875 493.4375 C 370.21875 494.46197 370.31658 495.45892 370.375 496.46875 L 474.09375 496.46875 z "
       id="path6914"
       transform="translate(0,502.36218)" />
    <path
       style="fill:#d40000;fill-opacity:1;stroke:none"
       d="m 316.1875,923.61218 36.59375,0 c 0.73075,0 1.43683,-0.13571 2.125,-0.34375 0.68817,-0.20804 1.33709,-0.51086 1.96875,-0.90625 0.63166,-0.39539 1.25129,-0.87545 1.8125,-1.4375 0.56121,-0.56205 1.08567,-1.19822 1.5625,-1.90625 0.95367,-1.41605 1.71744,-3.09292 2.25,-4.96875 0.53256,-1.87583 0.8125,-3.9549 0.8125,-6.125 0,-2.1701 -0.27994,-4.21792 -0.8125,-6.09375 -0.53256,-1.87583 -1.29633,-3.58395 -2.25,-5 -0.47683,-0.70803 -1.00129,-1.3442 -1.5625,-1.90625 -0.56121,-0.56205 -1.18084,-1.04211 -1.8125,-1.4375 -0.63166,-0.39539 -1.28058,-0.69821 -1.96875,-0.90625 -0.68817,-0.20804 -1.39425,-0.3125 -2.125,-0.3125 l -24.46875,0 c -7.466,8.31758 -12.125,19.2089 -12.125,31.3125 l 0,0.0312 z"
       id="path6921"
       inkscape:connector-curvature="0" />
    <path
       style="fill:#ffff00;fill-opacity:1;stroke:none"
       d="M 363.15625 374.21875 C 349.23731 374.21875 336.89827 380.34118 328.3125 389.90625 L 352.78125 389.90625 C 353.512 389.90625 354.21808 390.01071 354.90625 390.21875 C 355.59442 390.42679 356.24334 390.72961 356.875 391.125 C 357.50666 391.52039 358.12629 392.00045 358.6875 392.5625 C 359.24871 393.12455 359.77317 393.76072 360.25 394.46875 C 361.20367 395.8848 361.96744 397.59292 362.5 399.46875 C 363.03256 401.34458 363.3125 403.3924 363.3125 405.5625 C 363.3125 407.7326 363.03256 409.81167 362.5 411.6875 C 361.96744 413.56333 361.20367 415.2402 360.25 416.65625 C 359.77317 417.36428 359.24871 418.00045 358.6875 418.5625 C 358.12629 419.12455 357.50666 419.60461 356.875 420 C 356.24334 420.39539 355.59442 420.69821 354.90625 420.90625 C 354.21808 421.11429 353.512 421.25 352.78125 421.25 L 316.1875 421.25 L 316.1875 449.5 C 316.1875 475.52254 337.13371 496.46875 363.15625 496.46875 L 370.375 496.46875 C 370.3166 495.45892 370.21875 494.46197 370.21875 493.4375 C 370.21875 491.6419 370.32241 489.87374 370.5 488.125 C 370.67759 486.37626 370.93478 484.63067 371.28125 482.9375 C 371.62772 481.24433 372.05586 479.59763 372.5625 477.96875 C 373.06914 476.33987 373.65442 474.74338 374.3125 473.1875 C 375.62866 470.07574 377.2241 467.1112 379.09375 464.34375 C 380.9634 461.5763 383.11533 459.00967 385.46875 456.65625 C 387.82217 454.30283 390.3888 452.1509 393.15625 450.28125 C 395.9237 448.4116 398.88824 446.81616 402 445.5 C 403.55588 444.84192 405.15237 444.25664 406.78125 443.75 C 408.41013 443.24336 410.05683 442.81522 411.75 442.46875 C 413.44317 442.12228 415.18876 441.86509 416.9375 441.6875 C 418.68624 441.50991 420.4544 441.40625 422.25 441.40625 C 424.0456 441.40625 425.81376 441.50991 427.5625 441.6875 C 429.31124 441.86509 431.02558 442.12228 432.71875 442.46875 C 434.41192 442.81522 436.08987 443.24336 437.71875 443.75 C 439.34763 444.25664 440.94412 444.84192 442.5 445.5 C 445.61176 446.81616 448.5763 448.4116 451.34375 450.28125 C 454.1112 452.1509 456.67783 454.30283 459.03125 456.65625 C 461.38467 459.00967 463.50535 461.5763 465.375 464.34375 C 467.24465 467.1112 468.87134 470.07574 470.1875 473.1875 C 470.84558 474.74338 471.43086 476.33987 471.9375 477.96875 C 472.44414 479.59763 472.87228 481.24433 473.21875 482.9375 C 473.56522 484.63067 473.82241 486.37626 474 488.125 C 474.17759 489.87374 474.25 491.6419 474.25 493.4375 C 474.25 494.46226 474.1522 495.45864 474.09375 496.46875 L 568.21875 496.46875 C 594.24129 496.46875 615.1875 475.52254 615.1875 449.5 L 615.1875 421.21875 C 615.1875 395.19621 594.24129 374.21875 568.21875 374.21875 L 363.15625 374.21875 z "
       id="rect6892"
       transform="translate(0,502.36218)" />
    <rect
       ry="46.972092"
       y="798.8139"
       x="388.90872"
       height="122.22845"
       width="308.09653"
       id="rect6896"
       style="fill:#ffff00;fill-opacity:1;stroke:none" />
    <path
       sodipodi:type="arc"
       style="fill:#000000;fill-opacity:1;stroke:none"
       id="path6898"
       sodipodi:cx="425.27423"
       sodipodi:cy="492.4213"
       sodipodi:rx="42.426407"
       sodipodi:ry="42.426407"
       d="m 467.70064,492.4213 a 42.426407,42.426407 0 1 1 -84.85282,0 42.426407,42.426407 0 1 1 84.85282,0 z"
       transform="translate(-3.0304573,503.37233)" />
    <rect
       style="fill:#008080;fill-opacity:1;stroke:none"
       id="rect6902"
       width="134.3503"
       height="63.239662"
       x="427.62897"
       y="810.53577"
       rx="67.175148"
       ry="17.906977" />
    <path
       sodipodi:type="arc"
       style="fill:#ffffff;fill-opacity:1;stroke:none"
       id="path6908"
       sodipodi:cx="230.55232"
       sodipodi:cy="326.48254"
       sodipodi:rx="21.424419"
       sodipodi:ry="21.424419"
       d="m 251.97674,326.48254 a 21.424419,21.424419 0 1 1 -42.84884,0 21.424419,21.424419 0 1 1 42.84884,0 z"
       transform="translate(191.69145,669.31108)" />
    <g
       id="g6951"
       transform="matrix(0.7246377,-0.55072461,0,1,18.564566,80.718926)">
      <rect
         y="689.95068"
         x="3.7766197"
         height="271.16278"
         width="132.38373"
         id="rect6726"
         style="fill:#c87137;fill-opacity:1;stroke:none" />
      <g
         id="g6730"
         transform="matrix(0.52956613,0,0,0.50758324,-29.09351,393.39927)">
        <rect
           y="652.3418"
           x="114.14723"
           height="145.46196"
           width="145.46196"
           id="rect6732"
           style="fill:#999999;fill-opacity:1;stroke:none" />
        <rect
           y="660.30042"
           x="121.8713"
           height="53.538086"
           width="53.538086"
           id="rect6734"
           style="fill:#00ffff;fill-opacity:1;stroke:none" />
        <rect
           y="659.87885"
           x="198.94525"
           height="53.538086"
           width="53.538086"
           id="rect6736"
           style="fill:#00ffff;fill-opacity:1;stroke:none" />
        <rect
           y="736.66455"
           x="121.80239"
           height="53.538086"
           width="53.538086"
           id="rect6738"
           style="fill:#00ffff;fill-opacity:1;stroke:none" />
        <rect
           y="737.02173"
           x="197.87383"
           height="53.538086"
           width="53.538086"
           id="rect6740"
           style="fill:#00ffff;fill-opacity:1;stroke:none" />
      </g>
    </g>
    <path
       sodipodi:type="arc"
       style="fill:#ffffff;fill-opacity:1;stroke:none"
       id="path6966"
       sodipodi:cx="250.69768"
       sodipodi:cy="115.43604"
       sodipodi:rx="37.093021"
       sodipodi:ry="19.505814"
       d="m 287.7907,115.43604 a 37.093021,19.505814 0 1 1 -74.18604,0 37.093021,19.505814 0 1 1 74.18604,0 z"
       transform="translate(0,502.36218)" />
    <path
       sodipodi:type="arc"
       style="fill:#ffffff;fill-opacity:1;stroke:none"
       id="path6968"
       sodipodi:cx="296.42441"
       sodipodi:cy="83.459305"
       sodipodi:rx="37.412792"
       sodipodi:ry="32.296513"
       d="m 333.8372,83.459305 a 37.412792,32.296513 0 1 1 -74.82558,0 37.412792,32.296513 0 1 1 74.82558,0 z"
       transform="translate(0,502.36218)" />
    <path
       sodipodi:type="arc"
       style="fill:#ffffff;fill-opacity:1;stroke:none"
       id="path6970"
       sodipodi:cx="274.04071"
       sodipodi:cy="71.308136"
       sodipodi:rx="36.773254"
       sodipodi:ry="33.575581"
       d="m 310.81396,71.308136 a 36.773254,33.575581 0 1 1 -73.5465,0 36.773254,33.575581 0 1 1 73.5465,0 z"
       transform="translate(-13.430233,511.31567)" />
    <path
       sodipodi:type="arc"
       style="fill:#ffffff;fill-opacity:1;stroke:none"
       id="path6974"
       sodipodi:cx="373.16861"
       sodipodi:cy="62.994186"
       sodipodi:rx="68.110466"
       sodipodi:ry="27.819767"
       d="m 441.27908,62.994186 a 68.110466,27.819767 0 1 1 -136.22094,0 68.110466,27.819767 0 1 1 136.22094,0 z"
       transform="translate(-30.05814,549.04823)" />
    <path
       sodipodi:type="arc"
       style="fill:#ffffff;fill-opacity:1;stroke:none"
       id="path6976"
       sodipodi:cx="347.90698"
       sodipodi:cy="73.546509"
       sodipodi:rx="40.290699"
       sodipodi:ry="31.33721"
       d="m 388.19768,73.546509 a 40.290699,31.33721 0 1 1 -80.5814,0 40.290699,31.33721 0 1 1 80.5814,0 z"
       transform="translate(0,502.36218)" />
    <path
       sodipodi:type="arc"
       style="fill:#ffffff;fill-opacity:1;stroke:none"
       id="path6978"
       sodipodi:cx="318.48837"
       sodipodi:cy="51.162792"
       sodipodi:rx="23.023256"
       sodipodi:ry="21.744186"
       d="m 341.51163,51.162792 a 23.023256,21.744186 0 1 1 -46.04651,0 23.023256,21.744186 0 1 1 46.04651,0 z"
       transform="translate(0,502.36218)" />
  </g>
</svg>
