<?xml version="1.0" encoding="UTF-8" standalone="no"?>
<!-- Created with Inkscape (http://www.inkscape.org/) -->

<svg
   xmlns:dc="http://purl.org/dc/elements/1.1/"
   xmlns:cc="http://creativecommons.org/ns#"
   xmlns:rdf="http://www.w3.org/1999/02/22-rdf-syntax-ns#"
   xmlns:svg="http://www.w3.org/2000/svg"
   xmlns="http://www.w3.org/2000/svg"
   xmlns:xlink="http://www.w3.org/1999/xlink"
   xmlns:sodipodi="http://sodipodi.sourceforge.net/DTD/sodipodi-0.dtd"
   xmlns:inkscape="http://www.inkscape.org/namespaces/inkscape"
   width="500"
   height="550"
   id="svg3657"
   version="1.1"
   inkscape:version="0.48.4 r"
   sodipodi:docname="down.svg"
   inkscape:export-filename="C:\Users\Bob\Cpp\ld32\resources\down.png"
   inkscape:export-xdpi="90"
   inkscape:export-ydpi="90">
  <defs
     id="defs3659">
    <linearGradient
       id="linearGradient4825">
      <stop
         style="stop-color:#44c699;stop-opacity:1;"
         offset="0"
         id="stop4827" />
      <stop
         style="stop-color:#ffffff;stop-opacity:1;"
         offset="1"
         id="stop4829" />
    </linearGradient>
    <linearGradient
       id="linearGradient4817">
      <stop
         style="stop-color:#000000;stop-opacity:1;"
         offset="0"
         id="stop4819" />
      <stop
         style="stop-color:#000000;stop-opacity:0;"
         offset="1"
         id="stop4821" />
    </linearGradient>
    <inkscape:perspective
       sodipodi:type="inkscape:persp3d"
       inkscape:vp_x="-18.505824 : 280.60389 : 1"
       inkscape:vp_y="0 : 965.14804 : 0"
       inkscape:vp_z="519.37925 : 280.60389 : 1"
       inkscape:persp3d-origin="250.43671 : 192.13198 : 1"
       id="perspective3781" />
    <clipPath
       clipPathUnits="userSpaceOnUse"
       id="clipPath4807">
      <g
         id="g4809">
        <rect
           y="389.91431"
           x="-360.87109"
           height="55.170776"
           width="1065.4291"
           id="rect4811"
           style="fill:#ffff00;fill-opacity:1;stroke:none" />
        <rect
           style="fill:#ffff00;fill-opacity:1;stroke:none"
           id="rect4813"
           width="1065.4291"
           height="55.170776"
           x="-360.87109"
           y="312.13257" />
        <rect
           y="241.58633"
           x="-360.87109"
           height="55.170776"
           width="1065.4291"
           id="rect4815"
           style="fill:#ffff00;fill-opacity:1;stroke:none" />
      </g>
    </clipPath>
    <linearGradient
       inkscape:collect="always"
       xlink:href="#linearGradient4825"
       id="linearGradient4831"
       x1="-425.99072"
       y1="540.95563"
       x2="626.77618"
       y2="176.46674"
       gradientUnits="userSpaceOnUse" />
    <linearGradient
       inkscape:collect="always"
       xlink:href="#linearGradient4825"
       id="linearGradient4842"
       gradientUnits="userSpaceOnUse"
       x1="-425.99072"
       y1="540.95563"
       x2="626.77618"
       y2="176.46674" />
    <linearGradient
       inkscape:collect="always"
       xlink:href="#linearGradient4825"
       id="linearGradient4844"
       gradientUnits="userSpaceOnUse"
       x1="-425.99072"
       y1="540.95563"
       x2="626.77618"
       y2="176.46674" />
    <linearGradient
       inkscape:collect="always"
       xlink:href="#linearGradient4825"
       id="linearGradient4846"
       gradientUnits="userSpaceOnUse"
       x1="-425.99072"
       y1="540.95563"
       x2="626.77618"
       y2="176.46674" />
    <linearGradient
       inkscape:collect="always"
       xlink:href="#linearGradient4825"
       id="linearGradient4848"
       gradientUnits="userSpaceOnUse"
       x1="-425.99072"
       y1="540.95563"
       x2="626.77618"
       y2="176.46674" />
    <linearGradient
       inkscape:collect="always"
       xlink:href="#linearGradient4825"
       id="linearGradient4850"
       gradientUnits="userSpaceOnUse"
       x1="-425.99072"
       y1="540.95563"
       x2="626.77618"
       y2="176.46674" />
    <linearGradient
       inkscape:collect="always"
       xlink:href="#linearGradient4825"
       id="linearGradient4852"
       gradientUnits="userSpaceOnUse"
       x1="-425.99072"
       y1="540.95563"
       x2="626.77618"
       y2="176.46674" />
    <linearGradient
       inkscape:collect="always"
       xlink:href="#linearGradient4825"
       id="linearGradient4854"
       gradientUnits="userSpaceOnUse"
       x1="-425.99072"
       y1="540.95563"
       x2="626.77618"
       y2="176.46674" />
    <linearGradient
       inkscape:collect="always"
       xlink:href="#linearGradient3784"
       id="linearGradient3840"
       gradientUnits="userSpaceOnUse"
       x1="314.74472"
       y1="262.38843"
       x2="262.28726"
       y2="315.75034" />
    <linearGradient
       id="linearGradient3784">
      <stop
         id="stop3786"
         offset="0"
         style="stop-color:#ffdfc4;stop-opacity:1;" />
      <stop
         style="stop-color:#f7dac1;stop-opacity:1;"
         offset="0.5"
         id="stop3790" />
      <stop
         id="stop3788"
         offset="1"
         style="stop-color:#e1b899;stop-opacity:1;" />
    </linearGradient>
    <linearGradient
       y2="315.75034"
       x2="262.28726"
       y1="262.38843"
       x1="314.74472"
       gradientUnits="userSpaceOnUse"
       id="linearGradient3239"
       xlink:href="#linearGradient3784"
       inkscape:collect="always" />
    <linearGradient
       inkscape:collect="always"
       xlink:href="#linearGradient3784"
       id="linearGradient4916"
       gradientUnits="userSpaceOnUse"
       x1="314.74472"
       y1="262.38843"
       x2="262.28726"
       y2="315.75034" />
    <linearGradient
       inkscape:collect="always"
       xlink:href="#linearGradient3784"
       id="linearGradient4920"
       gradientUnits="userSpaceOnUse"
       x1="314.74472"
       y1="262.38843"
       x2="262.28726"
       y2="315.75034" />
    <linearGradient
       inkscape:collect="always"
       xlink:href="#linearGradient3784"
       id="linearGradient4928"
       gradientUnits="userSpaceOnUse"
       x1="314.74472"
       y1="262.38843"
       x2="262.28726"
       y2="315.75034" />
    <linearGradient
       inkscape:collect="always"
       xlink:href="#linearGradient3784"
       id="linearGradient4932"
       gradientUnits="userSpaceOnUse"
       x1="314.74472"
       y1="262.38843"
       x2="262.28726"
       y2="315.75034" />
    <linearGradient
       inkscape:collect="always"
       xlink:href="#linearGradient3784"
       id="linearGradient4936"
       gradientUnits="userSpaceOnUse"
       x1="314.74472"
       y1="262.38843"
       x2="262.28726"
       y2="315.75034" />
    <linearGradient
       inkscape:collect="always"
       xlink:href="#linearGradient3784"
       id="linearGradient4940"
       gradientUnits="userSpaceOnUse"
       x1="314.74472"
       y1="262.38843"
       x2="262.28726"
       y2="315.75034" />
    <linearGradient
       inkscape:collect="always"
       xlink:href="#linearGradient3784"
       id="linearGradient4944"
       gradientUnits="userSpaceOnUse"
       x1="314.74472"
       y1="262.38843"
       x2="262.28726"
       y2="315.75034" />
    <linearGradient
       inkscape:collect="always"
       xlink:href="#linearGradient3784"
       id="linearGradient4948"
       gradientUnits="userSpaceOnUse"
       x1="314.74472"
       y1="262.38843"
       x2="262.28726"
       y2="315.75034" />
    <linearGradient
       inkscape:collect="always"
       xlink:href="#linearGradient3784"
       id="linearGradient4952"
       gradientUnits="userSpaceOnUse"
       x1="314.74472"
       y1="262.38843"
       x2="262.28726"
       y2="315.75034" />
    <linearGradient
       inkscape:collect="always"
       xlink:href="#linearGradient3784"
       id="linearGradient4956"
       gradientUnits="userSpaceOnUse"
       x1="314.74472"
       y1="262.38843"
       x2="262.28726"
       y2="315.75034" />
    <linearGradient
       inkscape:collect="always"
       xlink:href="#linearGradient3784"
       id="linearGradient3173"
       gradientUnits="userSpaceOnUse"
       x1="314.74472"
       y1="262.38843"
       x2="262.28726"
       y2="315.75034" />
  </defs>
  <sodipodi:namedview
     id="base"
     pagecolor="#ffffff"
     bordercolor="#666666"
     borderopacity="1.0"
     inkscape:pageopacity="0.0"
     inkscape:pageshadow="2"
     inkscape:zoom="1.1056579"
     inkscape:cx="222.48365"
     inkscape:cy="317.95083"
     inkscape:document-units="px"
     inkscape:current-layer="layer6"
     showgrid="false"
     borderlayer="true"
     inkscape:object-nodes="false"
     inkscape:window-width="1920"
     inkscape:window-height="1051"
     inkscape:window-x="-9"
     inkscape:window-y="-9"
     inkscape:window-maximized="1" />
  <metadata
     id="metadata3662">
    <rdf:RDF>
      <cc:Work
         rdf:about="">
        <dc:format>image/svg+xml</dc:format>
        <dc:type
           rdf:resource="http://purl.org/dc/dcmitype/StillImage" />
        <dc:title />
      </cc:Work>
    </rdf:RDF>
  </metadata>
  <g
     inkscape:groupmode="layer"
     id="layer6"
     inkscape:label="Layer">
    <rect
       style="fill:#999999;fill-opacity:1;stroke:none"
       id="rect4835"
       width="733.49994"
       height="565.27429"
       x="-178.17447"
       y="-40.598606" />
    <path
       style="fill:#cccccc;fill-opacity:1;stroke:none"
       d="m -211.63871,166.5179 625.87174,-0.90444 9.04439,331.02464 -634.91613,-242.38963 z"
       id="rect4839"
       inkscape:connector-curvature="0"
       sodipodi:nodetypes="ccccc" />
    <rect
       style="fill:#808080;fill-opacity:1;stroke:none"
       id="rect3966"
       width="690.05817"
       height="373.3942"
       x="-534.50293"
       y="297.88559"
       transform="matrix(1,0,0.63714696,0.77074234,0,0)" />
    <rect
       style="fill:#b3b3b3;fill-opacity:1;stroke:none;display:inline"
       id="rect3946"
       width="720.73834"
       height="97.209305"
       x="-92.409584"
       y="459.82559" />
    <g
       id="g4788"
       clip-path="url(#clipPath4807)"
       style="fill:url(#linearGradient4831);fill-opacity:1"
       transform="translate(-63.310723,0)">
      <path
         inkscape:connector-curvature="0"
         id="path4738"
         d="M 257.73256,46.686047 200.17442,452.7907 305.69767,454.7093 z"
         style="fill:url(#linearGradient4842);fill-opacity:1;stroke:none" />
      <path
         inkscape:connector-curvature="0"
         id="path4740"
         d="M 259.65116,45.406977 573.66279,450.23256 471.33721,448.31395 z"
         style="fill:url(#linearGradient4844);fill-opacity:1;stroke:none" />
      <path
         inkscape:connector-curvature="0"
         id="path4742"
         d="M 457.26744,447.03488 327.44186,448.95349 257.73256,44.767442 z"
         style="fill:url(#linearGradient4846);fill-opacity:1;stroke:none" />
      <path
         inkscape:connector-curvature="0"
         id="path4744"
         d="M 181.62791,447.67442 259.01163,47.965116 74.825581,448.95349 z"
         style="fill:url(#linearGradient4848);fill-opacity:1;stroke:none" />
      <path
         inkscape:connector-curvature="0"
         id="path4746"
         d="M 257.73256,46.686047 40.930233,448.95349 l -95.290698,0.63953 z"
         style="fill:url(#linearGradient4850);fill-opacity:1;stroke:none" />
      <path
         inkscape:connector-curvature="0"
         id="path4748"
         d="M 259.65116,44.767442 -98.488372,449.59302 -196.33721,451.51163 z"
         style="fill:url(#linearGradient4852);fill-opacity:1;stroke:none" />
      <path
         inkscape:connector-curvature="0"
         id="path4750"
         d="m 259.65116,44.127907 -502.67442,409.302323 -75.46511,2.55814 z"
         style="fill:url(#linearGradient4854);fill-opacity:1;stroke:none" />
    </g>
    <rect
       style="fill:#ffffff;fill-opacity:1;stroke:none"
       id="rect4856"
       width="74.163994"
       height="19.897655"
       x="147.01715"
       y="38.99202" />
    <rect
       y="38.99202"
       x="-14.047681"
       height="19.897655"
       width="74.163994"
       id="rect4858"
       style="fill:#ffffff;fill-opacity:1;stroke:none" />
    <rect
       style="fill:#ffffff;fill-opacity:1;stroke:none"
       id="rect4860"
       width="74.163994"
       height="19.897655"
       x="470.95572"
       y="38.99202" />
    <rect
       y="38.99202"
       x="319.83969"
       height="19.897655"
       width="74.163994"
       id="rect4862"
       style="fill:#ffffff;fill-opacity:1;stroke:none" />
    <path
       style="fill:#d7d700;fill-opacity:1;stroke:none"
       d="M 445.84375 270.34375 L 445.84375 291.1875 C 445.97407 291.26339 445.79406 291.10736 446.125 291.34375 C 446.38521 291.52961 446.53156 291.80024 446.78125 292 C 446.91285 292.10528 447.09926 292.17463 447.25 292.25 C 447.55148 292.40074 447.8616 292.5238 448.15625 292.6875 C 448.54042 292.90093 448.88817 293.17846 449.28125 293.375 C 449.9105 293.68962 451.14807 294.07019 451.78125 294.28125 C 452.00736 294.35665 452.2197 294.40321 452.4375 294.5 C 452.89952 294.70535 453.35223 294.97829 453.8125 295.1875 C 455.08373 295.76534 454.89411 295.57358 456.28125 296.09375 C 456.43905 296.15295 456.58795 296.2662 456.75 296.3125 C 457.11953 296.41808 457.50689 296.42082 457.875 296.53125 C 458.26376 296.64788 458.60624 296.87031 459 296.96875 C 459.21936 297.02355 459.46935 296.90925 459.6875 296.96875 C 460.30877 297.13819 460.87873 297.48681 461.5 297.65625 C 461.71814 297.71575 461.93277 297.62185 462.15625 297.65625 C 462.91594 297.77313 463.67781 298.00813 464.4375 298.125 C 464.66098 298.1594 464.86857 298.1045 465.09375 298.125 C 465.69891 298.18 466.29994 298.30333 466.90625 298.34375 C 467.43267 298.37885 467.97241 298.34375 468.5 298.34375 L 471.21875 298.34375 L 480.9375 298.34375 L 483.65625 298.34375 L 483.875 298.34375 C 483.9504 298.34375 484.04045 298.29045 484.09375 298.34375 C 484.14705 298.39705 484.09375 298.48713 484.09375 298.5625 C 484.09375 298.78861 484.13805 299.02828 484.09375 299.25 C 484.04705 299.48371 483.89871 299.70034 483.875 299.9375 C 483.8225 300.46247 483.9126 300.97375 483.875 301.5 C 483.837 302.03159 483.69712 302.56238 483.65625 303.09375 C 483.60425 303.77009 483.65625 304.44667 483.65625 305.125 L 483.65625 306.71875 C 483.65625 307.32171 483.61615 307.89837 483.65625 308.5 C 483.82169 310.9816 483.79938 309.23381 484.09375 311 C 484.19365 311.59939 484.23219 312.21018 484.3125 312.8125 C 484.45337 313.86904 484.63051 314.91357 484.78125 315.96875 C 484.85665 316.49634 484.89548 317.0399 485 317.5625 C 485.0467 317.79621 485.13506 318.02683 485.21875 318.25 C 485.36126 318.63003 485.53676 318.99816 485.6875 319.375 C 485.91361 319.82722 486.18722 320.24932 486.375 320.71875 C 486.49041 321.00728 486.47134 321.33937 486.59375 321.625 C 486.9257 322.39953 487.3419 323.1213 487.71875 323.875 C 488.45935 325.35619 489.2995 326.80862 490.21875 328.1875 C 490.42779 328.50106 490.66596 328.7802 490.875 329.09375 C 491.26941 329.68537 491.60559 330.31463 492 330.90625 C 492.75201 332.03426 493.70362 333.19529 494.5 334.28125 C 494.88341 334.80408 495.24366 335.35066 495.625 335.875 C 495.84666 336.17978 496.0604 336.50114 496.3125 336.78125 C 496.74033 337.25662 497.20403 337.67278 497.65625 338.125 L 499.25 339.71875 C 499.47611 339.94486 499.69982 340.19234 499.9375 340.40625 C 502.29985 342.53237 500.67746 341.01631 503.09375 342.875 C 503.56034 343.23391 503.96658 343.64681 504.4375 344 C 504.8723 344.32611 505.36028 344.60477 505.8125 344.90625 L 507.15625 345.8125 C 507.83458 346.26472 508.51962 346.71999 509.1875 347.1875 C 509.71865 347.55931 510.23586 347.9619 510.78125 348.3125 C 511.29239 348.64109 511.84741 348.91727 512.375 349.21875 C 512.90259 349.52023 513.394 349.85325 513.9375 350.125 C 514.15068 350.23159 514.40371 350.25523 514.625 350.34375 C 515.15795 350.55693 515.69116 350.80514 516.21875 351.03125 C 516.74634 351.25736 517.2367 351.50598 517.78125 351.6875 C 518.66308 351.98144 519.61818 352.08106 520.5 352.375 C 521.11092 352.57864 521.69471 352.8808 522.3125 353.0625 C 522.97914 353.25857 523.66667 353.34375 524.34375 353.5 C 525.25215 353.70963 526.1617 353.94729 527.0625 354.1875 C 527.0715 354.1905 530.21664 355.09333 530.21875 355.09375 C 530.8146 355.21292 531.4354 355.19333 532.03125 355.3125 C 532.5693 355.42011 533.08376 355.69104 533.625 355.78125 C 533.99672 355.84325 534.37426 355.75235 534.75 355.78125 C 535.35586 355.82785 535.9562 355.95958 536.5625 356 C 537.08893 356.0351 537.62866 356 538.15625 356 L 540.40625 356 C 540.85847 356 541.29911 355.9653 541.75 356 C 542.28137 356.0409 542.81237 356.17788 543.34375 356.21875 C 543.79463 356.25345 544.23529 356.21875 544.6875 356.21875 L 546.0625 356.21875 L 552.375 356.21875 L 560.96875 356.21875 C 562.25463 356.21875 561.11207 356.11027 562.09375 356.4375 C 562.23676 356.4852 562.41176 356.4375 562.5625 356.4375 C 562.93935 356.4375 563.31578 356.4995 563.6875 356.4375 C 563.9226 356.3983 564.14378 356.27656 564.375 356.21875 C 564.67648 356.14335 564.68565 356.36949 565.0625 356.21875 C 565.31481 356.11782 565.4828 355.91608 565.71875 355.78125 C 566.0114 355.61402 566.33597 355.48592 566.625 355.3125 C 566.7164 355.2577 566.76052 355.16034 566.84375 355.09375 C 567.13802 354.85834 567.43644 354.61529 567.75 354.40625 C 567.7825 354.38455 570.02329 353.06948 570.03125 353.0625 C 570.31486 352.81435 570.44625 352.44575 570.6875 352.15625 C 571.09692 351.66494 571.63762 351.29049 572.0625 350.8125 C 573.20488 349.52732 572.81726 349.7669 573.875 348.3125 C 574.15885 347.9222 574.52547 347.59675 574.78125 347.1875 C 574.90757 346.98539 574.89341 346.71318 575 346.5 C 575.5435 345.413 576.269 344.43075 576.8125 343.34375 C 577.0692 342.83034 577.21204 342.2634 577.46875 341.75 C 577.7405 341.2065 578.06237 340.67731 578.375 340.15625 C 578.51482 339.92323 578.72222 339.74306 578.84375 339.5 C 580.41797 336.35156 578.70906 339.46174 579.96875 336.3125 C 580.06968 336.06019 580.32505 335.90364 580.4375 335.65625 C 580.70397 335.07 580.85459 334.44165 581.09375 333.84375 C 581.30693 333.3108 581.56807 332.78294 581.78125 332.25 C 581.98106 331.75047 582.41105 330.20193 582.46875 330 C 582.61949 329.47241 582.77317 328.93857 582.90625 328.40625 C 583.36664 326.56469 582.95369 327.99332 583.125 325.9375 C 583.1631 325.48062 583.29963 325.01472 583.375 324.5625 C 584.14981 319.91361 583.13789 325.68552 583.8125 322.3125 C 583.9024 321.86295 583.94924 321.38857 584.03125 320.9375 C 584.10005 320.55939 584.2269 320.19295 584.28125 319.8125 C 584.34515 319.36483 584.22515 318.91747 584.28125 318.46875 C 584.31975 318.16039 584.42463 317.86398 584.5 317.5625 C 584.5 317.18565 584.4659 316.8128 584.5 316.4375 C 584.5415 315.98092 584.64338 315.51472 584.71875 315.0625 C 584.79415 314.61028 584.84759 314.16831 584.9375 313.71875 C 585.08856 312.96341 585.32727 312.4773 585.40625 311.6875 C 585.44375 311.31252 585.40625 310.93934 585.40625 310.5625 C 585.40625 310.41176 585.38495 310.24297 585.40625 310.09375 C 585.46055 309.7133 585.5902 309.35148 585.625 308.96875 C 585.6659 308.51839 585.625 308.07722 585.625 307.625 L 585.625 305.125 C 585.625 304.71988 585.6752 302.63934 585.625 302.1875 C 585.5907 301.87864 585.47366 301.5846 585.40625 301.28125 C 585.32285 300.90609 585.23516 300.53759 585.1875 300.15625 C 585.1594 299.93188 585.2155 299.69311 585.1875 299.46875 C 585.0922 298.70606 584.86949 297.97245 584.71875 297.21875 C 584.56801 296.46505 584.46767 295.68318 584.28125 294.9375 C 583.87881 293.32774 584.21618 295.40729 583.59375 293.125 C 583.42291 292.49859 583.34172 291.30642 583.125 290.65625 C 583.01841 290.33648 582.79409 290.06977 582.6875 289.75 C 582.6398 289.607 582.7352 289.42426 582.6875 289.28125 C 582.58091 288.96148 582.36949 288.70773 582.21875 288.40625 L 581.78125 287.5 L 580.1875 284.3125 L 579.0625 282.0625 C 578.91176 281.76102 578.82092 281.43053 578.625 281.15625 C 578.43914 280.89605 578.12337 280.72896 577.9375 280.46875 C 576.80696 278.88598 577.92832 280.1425 577.25 279.125 C 575.84647 277.01972 577.30361 279.27793 575.90625 277.53125 C 575.80097 277.39964 575.79278 277.22535 575.6875 277.09375 C 575.48774 276.84405 575.22611 276.63236 575 276.40625 L 574.3125 275.71875 L 573.875 275.28125 C 573.72426 275.13051 573.58363 274.93075 573.40625 274.8125 C 573.34355 274.7707 573.259 274.8363 573.1875 274.8125 C 573.02762 274.7592 572.89023 274.68723 572.75 274.59375 C 572.6613 274.53465 572.59534 274.42267 572.5 274.375 C 572.36518 274.3076 572.21249 274.39 572.0625 274.375 C 571.38339 274.3071 570.7114 274.21293 570.03125 274.15625 C 569.43927 274.10695 568.80665 274.22975 568.21875 274.15625 C 567.91039 274.11765 567.62135 273.94057 567.3125 273.90625 C 566.93795 273.86465 566.56435 273.90625 566.1875 273.90625 L 564.8125 273.90625 L 559.15625 273.90625 L 556.6875 273.90625 L 556 273.90625 C 555.84926 273.90625 555.71031 273.93585 555.5625 273.90625 C 555.32879 273.85955 555.1101 273.72668 554.875 273.6875 C 554.50328 273.6256 554.11954 273.7614 553.75 273.6875 C 553.51629 273.6408 553.29373 273.52656 553.0625 273.46875 C 552.86984 273.42055 552.57435 273.46875 552.375 273.46875 L 551.03125 273.46875 C 550.80514 273.46875 550.55825 273.54025 550.34375 273.46875 C 550.24263 273.43505 550.22033 273.29767 550.125 273.25 C 550.00134 273.1882 549.59138 273.2885 549.4375 273.25 C 548.90518 273.11692 548.40732 272.91433 547.875 272.78125 C 547.59126 272.71035 547.2525 272.85215 546.96875 272.78125 C 546.86535 272.75545 546.81987 272.59621 546.71875 272.5625 C 546.61533 272.528 545.94437 272.6128 545.84375 272.5625 C 545.74845 272.5148 545.69487 272.37746 545.59375 272.34375 C 545.37925 272.27225 545.16361 272.34375 544.9375 272.34375 L 543.5625 272.34375 L 538.8125 272.34375 L 534.96875 272.34375 L 533.625 272.34375 C 533.39889 272.34375 533.15686 272.28895 532.9375 272.34375 C 532.83409 272.36965 532.82216 272.53665 532.71875 272.5625 C 532.49939 272.6173 532.25428 272.5253 532.03125 272.5625 C 531.79615 272.6017 531.57885 272.74207 531.34375 272.78125 C 530.89768 272.85565 530.44344 272.69255 530 272.78125 C 529.83474 272.81435 529.72239 272.94671 529.5625 273 C 529.42685 273.0452 528.58668 273 528.40625 273 L 525.71875 273 C 525.57696 273 524.84043 273.0279 524.8125 273 C 524.7592 272.9467 524.8658 272.83455 524.8125 272.78125 C 524.7592 272.72795 524.63787 272.78125 524.5625 272.78125 L 524.34375 272.78125 L 523 272.78125 L 521.625 272.78125 C 521.4086 272.78125 521.18273 272.75065 520.96875 272.78125 C 520.5149 272.84605 520.04759 272.93517 519.59375 273 C 519.51915 273.0107 519.44241 272.9663 519.375 273 C 519.2797 273.0477 519.25158 273.20233 519.15625 273.25 C 519.08885 273.2837 518.98162 273.25 518.90625 273.25 L 518.6875 273.25 C 518.49342 273.25 517.47604 273.2059 517.34375 273.25 C 517.24263 273.2837 517.22612 273.43504 517.125 273.46875 C 516.91049 273.54025 516.66361 273.46875 516.4375 273.46875 L 515.0625 273.46875 L 514.1875 273.46875 C 514.1121 273.46875 513.9908 273.41545 513.9375 273.46875 C 513.8842 273.52205 513.9908 273.63421 513.9375 273.6875 C 513.9285 273.6965 513.11429 273.6875 513.03125 273.6875 L 512.59375 273.6875 C 512.3126 273.96865 512.02343 273.90625 511.6875 273.90625 L 511.21875 273.90625 C 511.14335 273.90625 511.05329 273.85295 511 273.90625 C 510.9467 273.95955 511.0533 274.10295 511 274.15625 C 510.9467 274.20955 510.85662 274.15625 510.78125 274.15625 C 510.85662 274.15625 510.5625 274.08085 510.5625 274.15625 C 510.35995 274.18106 510.34375 274.18937 510.34375 273.90625 L 445.84375 270.34375 z "
       id="path4893" />
    <path
       style="fill:#ffffff;fill-opacity:1;stroke:none"
       d="M 445.25 270.3125 L 435.25 270.3125 L 435.25 280.71875 C 435.38277 281.02856 435.58597 281.28394 435.71875 281.59375 C 435.81265 281.81282 435.81487 282.07687 435.9375 282.28125 C 436.04718 282.46405 436.27834 282.57946 436.40625 282.75 C 436.50736 282.88482 436.52388 283.05267 436.625 283.1875 C 436.7529 283.35804 436.92933 283.48978 437.0625 283.65625 C 437.23227 283.86845 437.38051 284.08639 437.53125 284.3125 C 437.75736 284.53861 437.9794 284.75721 438.1875 285 C 438.43275 285.28612 438.63959 285.61198 438.875 285.90625 C 438.9416 285.98945 439.01838 286.04963 439.09375 286.125 L 440 287.03125 C 440.37685 287.4081 440.71558 287.81507 441.125 288.15625 C 441.4145 288.39751 441.72977 288.61764 442.03125 288.84375 C 442.33273 289.06986 442.61793 289.33152 442.9375 289.53125 C 443.22333 289.70989 443.54227 289.81801 443.84375 289.96875 C 444.14523 290.19486 444.43644 290.44721 444.75 290.65625 C 445.55474 291.19275 445.35082 290.90045 445.84375 291.1875 L 445.84375 270.34375 L 445.25 270.3125 z "
       id="path4891" />
    <path
       style="fill:#d7d700;fill-opacity:1;stroke:none"
       d="M 432.78125 269.625 C 432.78125 270.07722 432.72515 270.52003 432.78125 270.96875 C 432.80215 271.13598 432.9537 271.27545 433 271.4375 C 433.12641 271.87993 433.3744 273.52767 433.4375 273.90625 C 433.5129 274.35847 433.59759 274.83169 433.6875 275.28125 C 433.7484 275.58597 433.8623 275.87986 433.90625 276.1875 C 433.93825 276.41133 433.86905 276.65196 433.90625 276.875 C 433.94545 277.11009 434.04963 277.30514 434.125 277.53125 C 434.27574 277.98346 434.41671 278.46367 434.59375 278.90625 C 434.65635 279.06273 434.74991 279.18727 434.8125 279.34375 C 434.98953 279.78634 435.06222 280.28061 435.25 280.71875 L 435.25 270.3125 L 445.25 270.3125 L 432.78125 269.625 z "
       id="path4876" />
    <path
       style="fill:#d7d700;stroke:none;stroke-width:1px;stroke-linecap:butt;stroke-linejoin:miter;stroke-opacity:1;fill-opacity:1"
       d="m 430.28681,206.76543 2.48721,62.8585 71.22456,31.20315 82.07783,1.35666 -2.93942,-62.63239 -89.08724,-18.31489 z"
       id="path4878"
       inkscape:connector-curvature="0" />
    <path
       style="fill:#ffffff;fill-opacity:1;stroke:none"
       d="M 440.15625 226.4375 L 459 226.4375 L 459 212.875 L 431.3125 212.875 C 431.35397 213.01855 431.38516 213.1649 431.40625 213.3125 C 431.43825 213.53633 431.36905 213.77696 431.40625 214 C 431.44545 214.23509 431.58088 214.46139 431.65625 214.6875 C 431.80699 215.13971 431.91671 215.58867 432.09375 216.03125 C 432.15635 216.18773 432.24991 216.34352 432.3125 216.5 C 432.48953 216.94259 432.59347 217.40561 432.78125 217.84375 C 432.91402 218.15356 433.08597 218.44019 433.21875 218.75 C 433.31265 218.96907 433.31487 219.23312 433.4375 219.4375 C 433.54718 219.6203 433.77834 219.70446 433.90625 219.875 C 434.00736 220.00982 434.02388 220.20892 434.125 220.34375 C 434.2529 220.51429 434.46058 220.61478 434.59375 220.78125 C 434.76352 220.99345 434.88051 221.24264 435.03125 221.46875 C 435.25736 221.69486 435.51065 221.91346 435.71875 222.15625 C 435.964 222.44237 436.17084 222.73698 436.40625 223.03125 C 436.47285 223.11445 436.54963 223.20588 436.625 223.28125 L 437.53125 224.1875 C 437.9081 224.56435 438.24683 224.97132 438.65625 225.3125 C 438.94575 225.55376 439.26102 225.77389 439.5625 226 C 439.76121 226.14904 439.95771 226.28821 440.15625 226.4375 z "
       id="path4884" />
    <path
       style="fill:#ffff00;fill-opacity:1;stroke:none"
       d="M 430.28125 206.75 C 430.28125 207.20222 430.22515 207.67628 430.28125 208.125 C 430.30215 208.29223 430.4537 208.40045 430.5 208.5625 C 430.62641 209.00493 430.90565 210.68392 430.96875 211.0625 C 431.04415 211.51472 431.09759 211.95669 431.1875 212.40625 C 431.21918 212.56477 431.26753 212.71935 431.3125 212.875 L 459 212.875 L 459 226.4375 L 440.15625 226.4375 C 440.25892 226.51471 440.35982 226.58817 440.46875 226.65625 C 440.75458 226.83489 441.07352 226.97426 441.375 227.125 C 441.67648 227.35111 441.96769 227.57221 442.28125 227.78125 C 443.29874 228.45958 442.04224 227.3382 443.625 228.46875 C 443.88521 228.65461 444.06281 228.95649 444.3125 229.15625 C 444.4441 229.26153 444.59926 229.29963 444.75 229.375 C 445.05148 229.52574 445.3616 229.68005 445.65625 229.84375 C 446.04042 230.05718 446.38817 230.30346 446.78125 230.5 C 447.4105 230.81462 448.64807 231.19519 449.28125 231.40625 C 449.50736 231.48165 449.75095 231.52821 449.96875 231.625 C 450.43077 231.83035 450.85223 232.10329 451.3125 232.3125 C 452.58373 232.89034 452.42536 232.69858 453.8125 233.21875 C 453.9703 233.27795 454.08795 233.3912 454.25 233.4375 C 454.61953 233.54308 455.00689 233.57707 455.375 233.6875 C 455.76376 233.80413 456.10624 234.02656 456.5 234.125 C 456.71936 234.1798 456.96935 234.0655 457.1875 234.125 C 457.80877 234.29444 458.37873 234.64306 459 234.8125 C 459.21814 234.872 459.46402 234.7781 459.6875 234.8125 C 460.44719 234.92938 461.17781 235.13313 461.9375 235.25 C 462.16098 235.2844 462.39982 235.2295 462.625 235.25 C 463.23016 235.305 463.83119 235.42833 464.4375 235.46875 C 464.96392 235.50385 465.47241 235.46875 466 235.46875 L 468.71875 235.46875 L 478.4375 235.46875 L 481.15625 235.46875 L 481.375 235.46875 C 481.4504 235.46875 481.5717 235.41545 481.625 235.46875 C 481.6783 235.52205 481.625 235.64338 481.625 235.71875 C 481.625 235.94486 481.6693 236.15328 481.625 236.375 C 481.5783 236.60871 481.39871 236.82534 481.375 237.0625 C 481.3225 237.58747 481.4126 238.13 481.375 238.65625 C 481.337 239.18784 481.19712 239.68738 481.15625 240.21875 C 481.10425 240.89509 481.15625 241.57167 481.15625 242.25 L 481.15625 243.84375 C 481.15625 244.44671 481.11615 245.05462 481.15625 245.65625 C 481.32169 248.13785 481.33063 246.39006 481.625 248.15625 C 481.7249 248.75564 481.76344 249.33518 481.84375 249.9375 C 481.98462 250.99404 482.13051 252.06982 482.28125 253.125 C 482.35665 253.65259 482.42673 254.1649 482.53125 254.6875 C 482.57795 254.92121 482.66631 255.15183 482.75 255.375 C 482.89251 255.75503 483.03676 256.12316 483.1875 256.5 C 483.41361 256.95222 483.68722 257.40557 483.875 257.875 C 483.99041 258.16353 483.97134 258.49562 484.09375 258.78125 C 484.4257 259.55578 484.8419 260.27755 485.21875 261.03125 C 485.95935 262.51244 486.7995 263.93362 487.71875 265.3125 C 487.92779 265.62606 488.19721 265.9052 488.40625 266.21875 C 488.80066 266.81037 489.13684 267.43963 489.53125 268.03125 C 490.28326 269.15926 491.20362 270.35154 492 271.4375 C 492.38341 271.96033 492.77491 272.47566 493.15625 273 C 493.37791 273.30478 493.5604 273.62614 493.8125 273.90625 C 494.24033 274.38162 494.73528 274.82903 495.1875 275.28125 L 496.75 276.875 C 496.97611 277.10111 497.19982 277.31734 497.4375 277.53125 C 499.79985 279.65737 498.17746 278.17256 500.59375 280.03125 C 501.06034 280.39016 501.49783 280.80306 501.96875 281.15625 C 502.40355 281.48236 502.86028 281.76102 503.3125 282.0625 L 504.6875 282.96875 C 505.36583 283.42097 506.05087 283.84499 506.71875 284.3125 C 507.2499 284.68431 507.73586 285.0869 508.28125 285.4375 C 508.79239 285.76609 509.34741 286.04227 509.875 286.34375 C 510.40259 286.64523 510.92525 286.97825 511.46875 287.25 C 511.68193 287.35659 511.90371 287.41148 512.125 287.5 C 512.65795 287.71318 513.19116 287.93014 513.71875 288.15625 C 514.24634 288.38236 514.76795 288.66223 515.3125 288.84375 C 516.19433 289.13769 517.14943 289.23731 518.03125 289.53125 C 518.64217 289.73489 519.19471 290.0058 519.8125 290.1875 C 520.47914 290.38357 521.19792 290.5 521.875 290.65625 C 522.7834 290.86588 523.6617 291.10354 524.5625 291.34375 C 524.5715 291.34675 527.74789 292.24958 527.75 292.25 C 528.34585 292.36917 528.96665 292.34958 529.5625 292.46875 C 530.10055 292.57636 530.58376 292.81604 531.125 292.90625 C 531.49672 292.96825 531.87426 292.87735 532.25 292.90625 C 532.85586 292.95285 533.4562 293.08458 534.0625 293.125 C 534.58893 293.1601 535.12866 293.125 535.65625 293.125 L 537.90625 293.125 C 538.35847 293.125 538.83036 293.0903 539.28125 293.125 C 539.81262 293.1659 540.31237 293.33413 540.84375 293.375 C 541.29463 293.4097 541.76654 293.375 542.21875 293.375 L 543.5625 293.375 L 549.90625 293.375 L 558.5 293.375 C 559.78588 293.375 558.64332 293.26652 559.625 293.59375 C 559.76801 293.64145 559.91176 293.59375 560.0625 293.59375 C 560.43935 293.59375 560.84703 293.65575 561.21875 293.59375 C 561.45385 293.55455 561.64378 293.43281 561.875 293.375 C 562.17648 293.2996 562.18565 293.52574 562.5625 293.375 C 562.81481 293.27407 563.01405 293.04108 563.25 292.90625 C 563.54265 292.73902 563.86722 292.64217 564.15625 292.46875 C 564.24765 292.41395 564.29177 292.31659 564.375 292.25 C 564.66927 292.01459 564.96769 291.77154 565.28125 291.5625 C 565.31375 291.5408 567.52329 290.19448 567.53125 290.1875 C 567.81486 289.93935 567.9775 289.57075 568.21875 289.28125 C 568.62817 288.78994 569.13762 288.41549 569.5625 287.9375 C 570.70488 286.65232 570.31726 286.8919 571.375 285.4375 C 571.65885 285.0472 572.02547 284.72175 572.28125 284.3125 C 572.40757 284.11039 572.39341 283.86943 572.5 283.65625 C 573.0435 282.56925 573.769 281.55575 574.3125 280.46875 C 574.5692 279.95534 574.74329 279.41965 575 278.90625 C 575.27175 278.36275 575.59362 277.83356 575.90625 277.3125 C 576.04607 277.07948 576.22222 276.86806 576.34375 276.625 C 577.91797 273.47656 576.20906 276.61799 577.46875 273.46875 C 577.56968 273.21644 577.82505 273.02864 577.9375 272.78125 C 578.20397 272.195 578.38584 271.56665 578.625 270.96875 C 578.83818 270.4358 579.06807 269.93919 579.28125 269.40625 C 579.48106 268.90672 579.91105 267.32693 579.96875 267.125 C 580.11949 266.59741 580.30442 266.09482 580.4375 265.5625 C 580.89789 263.72094 580.48494 265.11832 580.65625 263.0625 C 580.69435 262.60562 580.79963 262.17097 580.875 261.71875 C 581.64981 257.06986 580.63789 262.81052 581.3125 259.4375 C 581.4024 258.98795 581.48049 258.54482 581.5625 258.09375 C 581.6313 257.71564 581.7269 257.3492 581.78125 256.96875 C 581.84515 256.52108 581.72515 256.04247 581.78125 255.59375 C 581.81975 255.28539 581.92463 254.98898 582 254.6875 C 582 254.31065 581.9659 253.9378 582 253.5625 C 582.0415 253.10592 582.14338 252.67097 582.21875 252.21875 C 582.29415 251.76653 582.37884 251.29331 582.46875 250.84375 C 582.61981 250.08841 582.82727 249.6023 582.90625 248.8125 C 582.94375 248.43752 582.90625 248.06434 582.90625 247.6875 C 582.90625 247.53676 582.88495 247.39922 582.90625 247.25 C 582.96055 246.86955 583.0902 246.47648 583.125 246.09375 C 583.1659 245.64339 583.125 245.20222 583.125 244.75 L 583.125 242.25 C 583.125 241.84488 583.1752 239.76434 583.125 239.3125 C 583.0907 239.00364 582.97366 238.7096 582.90625 238.40625 C 582.82285 238.03109 582.73516 237.66259 582.6875 237.28125 C 582.6594 237.05688 582.7155 236.84936 582.6875 236.625 C 582.5922 235.86231 582.36949 235.09745 582.21875 234.34375 C 582.06801 233.59005 581.96767 232.83943 581.78125 232.09375 C 581.37881 230.48399 581.71618 232.56354 581.09375 230.28125 C 580.92291 229.65484 580.87297 228.43142 580.65625 227.78125 C 580.54966 227.46148 580.29409 227.19477 580.1875 226.875 C 580.1398 226.732 580.2352 226.58051 580.1875 226.4375 C 580.08091 226.11773 579.90074 225.83273 579.75 225.53125 L 579.28125 224.625 L 577.71875 221.46875 L 576.59375 219.1875 C 576.44301 218.88602 576.32092 218.58678 576.125 218.3125 C 575.93914 218.0523 575.62337 217.88521 575.4375 217.625 C 574.30696 216.04223 575.45957 217.2675 574.78125 216.25 C 573.37772 214.14472 574.80361 216.43418 573.40625 214.6875 C 573.30097 214.55589 573.29278 214.35035 573.1875 214.21875 C 572.98774 213.96905 572.72611 213.78861 572.5 213.5625 L 571.84375 212.875 L 571.375 212.40625 C 571.22426 212.25551 571.11488 212.087 570.9375 211.96875 C 570.8748 211.92695 570.759 211.99255 570.6875 211.96875 C 570.52762 211.91545 570.39023 211.84348 570.25 211.75 C 570.1613 211.6909 570.12659 211.54767 570.03125 211.5 C 569.89643 211.4326 569.71249 211.515 569.5625 211.5 C 568.88339 211.4321 568.2114 211.33793 567.53125 211.28125 C 566.93927 211.23195 566.30665 211.35475 565.71875 211.28125 C 565.41039 211.24265 565.12135 211.09682 564.8125 211.0625 C 564.43795 211.0209 564.06435 211.0625 563.6875 211.0625 L 562.34375 211.0625 L 556.6875 211.0625 L 554.1875 211.0625 L 553.53125 211.0625 C 553.38051 211.0625 553.21031 211.0921 553.0625 211.0625 C 552.82879 211.0158 552.6101 210.88293 552.375 210.84375 C 552.00328 210.78185 551.61954 210.91765 551.25 210.84375 C 551.01629 210.79705 550.79373 210.65156 550.5625 210.59375 C 550.36984 210.54555 550.1056 210.59375 549.90625 210.59375 L 548.53125 210.59375 C 548.30514 210.59375 548.0895 210.66525 547.875 210.59375 C 547.77388 210.56005 547.72033 210.42267 547.625 210.375 C 547.50134 210.3132 547.12263 210.4135 546.96875 210.375 C 546.43643 210.24192 545.90732 210.07058 545.375 209.9375 C 545.09126 209.8666 544.7525 210.0084 544.46875 209.9375 C 544.36535 209.9117 544.35112 209.75246 544.25 209.71875 C 544.14658 209.68425 543.44437 209.76905 543.34375 209.71875 C 543.24845 209.67105 543.22612 209.50246 543.125 209.46875 C 542.9105 209.39725 542.66361 209.46875 542.4375 209.46875 L 541.09375 209.46875 L 536.34375 209.46875 L 532.5 209.46875 L 531.125 209.46875 C 530.89889 209.46875 530.68811 209.41395 530.46875 209.46875 C 530.36534 209.49465 530.32216 209.6929 530.21875 209.71875 C 529.99939 209.77355 529.78553 209.68155 529.5625 209.71875 C 529.3274 209.75795 529.1101 209.89832 528.875 209.9375 C 528.42893 210.0119 527.94344 209.8488 527.5 209.9375 C 527.33474 209.9706 527.22239 210.10296 527.0625 210.15625 C 526.92685 210.20145 526.11793 210.15625 525.9375 210.15625 L 523.21875 210.15625 C 523.07696 210.15625 522.34043 210.18415 522.3125 210.15625 C 522.2592 210.10295 522.3658 209.9908 522.3125 209.9375 C 522.2592 209.8842 522.16912 209.9375 522.09375 209.9375 L 521.875 209.9375 L 520.5 209.9375 L 519.15625 209.9375 C 518.93985 209.9375 518.68273 209.9069 518.46875 209.9375 C 518.0149 210.0023 517.57884 210.09142 517.125 210.15625 C 517.0504 210.16695 516.94241 210.12255 516.875 210.15625 C 516.7797 210.20395 516.75158 210.32733 516.65625 210.375 C 516.58885 210.4087 516.51287 210.375 516.4375 210.375 L 516.21875 210.375 C 516.02467 210.375 514.97604 210.3309 514.84375 210.375 C 514.74263 210.4087 514.72612 210.56004 514.625 210.59375 C 514.41049 210.66525 514.16361 210.59375 513.9375 210.59375 L 512.59375 210.59375 L 511.6875 210.59375 C 511.6121 210.59375 511.52205 210.54045 511.46875 210.59375 C 511.41545 210.64705 511.52205 210.79046 511.46875 210.84375 C 511.45975 210.85275 510.64554 210.84375 510.5625 210.84375 L 510.09375 210.84375 C 509.8126 211.1249 509.52343 211.0625 509.1875 211.0625 L 508.75 211.0625 C 508.6746 211.0625 508.58454 211.0092 508.53125 211.0625 C 508.47795 211.1158 508.58455 211.22795 508.53125 211.28125 C 508.47795 211.33455 508.35662 211.28125 508.28125 211.28125 C 508.35662 211.28125 508.0625 211.20585 508.0625 211.28125 C 507.87691 211.30476 507.84375 211.33849 507.84375 211.0625 L 430.28125 206.75 z "
       id="path4874" />
    <path
       style="fill:#f9f9f9;stroke:#f9f9f9;stroke-width:1px;stroke-linecap:butt;stroke-linejoin:miter;stroke-opacity:1"
       d="m 431.3125,212.875 1.17297,21.51453 6.875,7.67442 0.79578,-15.62645 c 0,0 -6.01962,-1.50145 -8.84375,-13.5625 z"
       id="path4886"
       inkscape:connector-curvature="0" />
    <path
       sodipodi:type="arc"
       style="fill:url(#linearGradient3239);fill-opacity:1;stroke:none"
       id="path3838"
       sodipodi:cx="281.73273"
       sodipodi:cy="293.59158"
       sodipodi:rx="38.438652"
       sodipodi:ry="38.438652"
       d="m 320.17138,293.59158 a 38.438652,38.438652 0 1 1 -76.8773,0 38.438652,38.438652 0 1 1 76.8773,0 z"
       transform="matrix(0.54117645,0,0,0.54117645,-466.75963,-83.263055)"
       inkscape:export-filename="C:\Users\Bob\Cpp\ld32\resources\riot_topdown.png"
       inkscape:export-xdpi="90"
       inkscape:export-ydpi="90" />
    <path
       transform="matrix(0.54117645,0,0,0.54117645,-484.84841,-111.30066)"
       d="m 320.17138,293.59158 a 38.438652,38.438652 0 1 1 -76.8773,0 38.438652,38.438652 0 1 1 76.8773,0 z"
       sodipodi:ry="38.438652"
       sodipodi:rx="38.438652"
       sodipodi:cy="293.59158"
       sodipodi:cx="281.73273"
       id="path4914"
       style="fill:url(#linearGradient4916);fill-opacity:1;stroke:none"
       sodipodi:type="arc"
       inkscape:export-filename="C:\Users\Bob\Cpp\ld32\resources\riot_topdown.png"
       inkscape:export-xdpi="90"
       inkscape:export-ydpi="90" />
    <path
       transform="matrix(0.54117645,0,0,0.54117645,-497.51055,-81.454177)"
       d="m 320.17138,293.59158 a 38.438652,38.438652 0 1 1 -76.8773,0 38.438652,38.438652 0 1 1 76.8773,0 z"
       sodipodi:ry="38.438652"
       sodipodi:rx="38.438652"
       sodipodi:cy="293.59158"
       sodipodi:cx="281.73273"
       id="path4922"
       style="fill:url(#linearGradient3173);fill-opacity:1;stroke:none"
       sodipodi:type="arc"
       inkscape:export-filename="C:\Users\Bob\Cpp\ld32\resources\riot_topdown.png"
       inkscape:export-xdpi="90"
       inkscape:export-ydpi="90" />
    <path
       sodipodi:type="arc"
       style="fill:url(#linearGradient4928);fill-opacity:1;stroke:none"
       id="path4926"
       sodipodi:cx="281.73273"
       sodipodi:cy="293.59158"
       sodipodi:rx="38.438652"
       sodipodi:ry="38.438652"
       d="m 320.17138,293.59158 a 38.438652,38.438652 0 1 1 -76.8773,0 38.438652,38.438652 0 1 1 76.8773,0 z"
       transform="matrix(0.54117645,0,0,0.54117645,-477.61289,-56.129888)"
       inkscape:export-filename="C:\Users\Bob\Cpp\ld32\resources\riot_topdown.png"
       inkscape:export-xdpi="90"
       inkscape:export-ydpi="90" />
    <path
       transform="matrix(0.54117645,0,0,0.54117645,-509.26825,-49.798816)"
       d="m 320.17138,293.59158 a 38.438652,38.438652 0 1 1 -76.8773,0 38.438652,38.438652 0 1 1 76.8773,0 z"
       sodipodi:ry="38.438652"
       sodipodi:rx="38.438652"
       sodipodi:cy="293.59158"
       sodipodi:cx="281.73273"
       id="path4930"
       style="fill:url(#linearGradient4932);fill-opacity:1;stroke:none"
       sodipodi:type="arc"
       inkscape:export-filename="C:\Users\Bob\Cpp\ld32\resources\riot_topdown.png"
       inkscape:export-xdpi="90"
       inkscape:export-ydpi="90" />
    <path
       sodipodi:type="arc"
       style="fill:url(#linearGradient4936);fill-opacity:1;stroke:none"
       id="path4934"
       sodipodi:cx="281.73273"
       sodipodi:cy="293.59158"
       sodipodi:rx="38.438652"
       sodipodi:ry="38.438652"
       d="m 320.17138,293.59158 a 38.438652,38.438652 0 1 1 -76.8773,0 38.438652,38.438652 0 1 1 76.8773,0 z"
       transform="matrix(0.54117645,0,0,0.54117645,-524.64371,-78.740861)"
       inkscape:export-filename="C:\Users\Bob\Cpp\ld32\resources\riot_topdown.png"
       inkscape:export-xdpi="90"
       inkscape:export-ydpi="90" />
    <path
       transform="matrix(0.54117645,0,0,0.54117645,-508.36382,-174.61139)"
       d="m 320.17138,293.59158 a 38.438652,38.438652 0 1 1 -76.8773,0 38.438652,38.438652 0 1 1 76.8773,0 z"
       sodipodi:ry="38.438652"
       sodipodi:rx="38.438652"
       sodipodi:cy="293.59158"
       sodipodi:cx="281.73273"
       id="path4954"
       style="fill:url(#linearGradient4956);fill-opacity:1;stroke:none"
       sodipodi:type="arc"
       inkscape:export-filename="C:\Users\Bob\Cpp\ld32\resources\riot_topdown.png"
       inkscape:export-xdpi="90"
       inkscape:export-ydpi="90" />
    <path
       transform="matrix(0.54117645,0,0,0.54117645,-505.6505,-139.33827)"
       d="m 320.17138,293.59158 a 38.438652,38.438652 0 1 1 -76.8773,0 38.438652,38.438652 0 1 1 76.8773,0 z"
       sodipodi:ry="38.438652"
       sodipodi:rx="38.438652"
       sodipodi:cy="293.59158"
       sodipodi:cx="281.73273"
       id="path4946"
       style="fill:url(#linearGradient4948);fill-opacity:1;stroke:none"
       sodipodi:type="arc"
       inkscape:export-filename="C:\Users\Bob\Cpp\ld32\resources\riot_topdown.png"
       inkscape:export-xdpi="90"
       inkscape:export-ydpi="90" />
    <path
       transform="matrix(0.54117645,0,0,0.54117645,-517.4082,-106.77847)"
       d="m 320.17138,293.59158 a 38.438652,38.438652 0 1 1 -76.8773,0 38.438652,38.438652 0 1 1 76.8773,0 z"
       sodipodi:ry="38.438652"
       sodipodi:rx="38.438652"
       sodipodi:cy="293.59158"
       sodipodi:cx="281.73273"
       id="path4938"
       style="fill:url(#linearGradient4940);fill-opacity:1;stroke:none"
       sodipodi:type="arc"
       inkscape:export-filename="C:\Users\Bob\Cpp\ld32\resources\riot_topdown.png"
       inkscape:export-xdpi="90"
       inkscape:export-ydpi="90" />
    <path
       sodipodi:type="arc"
       style="fill:url(#linearGradient4952);fill-opacity:1;stroke:none"
       id="path4950"
       sodipodi:cx="281.73273"
       sodipodi:cy="293.59158"
       sodipodi:rx="38.438652"
       sodipodi:ry="38.438652"
       d="m 320.17138,293.59158 a 38.438652,38.438652 0 1 1 -76.8773,0 38.438652,38.438652 0 1 1 76.8773,0 z"
       transform="matrix(0.54117645,0,0,0.54117645,-530.07035,-161.0448)"
       inkscape:export-filename="C:\Users\Bob\Cpp\ld32\resources\riot_topdown.png"
       inkscape:export-xdpi="90"
       inkscape:export-ydpi="90" />
    <path
       sodipodi:type="arc"
       style="fill:url(#linearGradient4944);fill-opacity:1;stroke:none"
       id="path4942"
       sodipodi:cx="281.73273"
       sodipodi:cy="293.59158"
       sodipodi:rx="38.438652"
       sodipodi:ry="38.438652"
       d="m 320.17138,293.59158 a 38.438652,38.438652 0 1 1 -76.8773,0 38.438652,38.438652 0 1 1 76.8773,0 z"
       transform="matrix(0.54117645,0,0,0.54117645,-537.30586,-127.58056)"
       inkscape:export-filename="C:\Users\Bob\Cpp\ld32\resources\riot_topdown.png"
       inkscape:export-xdpi="90"
       inkscape:export-ydpi="90" />
  </g>
</svg>
