<?xml version="1.0" encoding="UTF-8" standalone="no"?>
<!-- Created with Inkscape (http://www.inkscape.org/) -->

<svg
   xmlns:dc="http://purl.org/dc/elements/1.1/"
   xmlns:cc="http://creativecommons.org/ns#"
   xmlns:rdf="http://www.w3.org/1999/02/22-rdf-syntax-ns#"
   xmlns:svg="http://www.w3.org/2000/svg"
   xmlns="http://www.w3.org/2000/svg"
   xmlns:xlink="http://www.w3.org/1999/xlink"
   xmlns:sodipodi="http://sodipodi.sourceforge.net/DTD/sodipodi-0.dtd"
   xmlns:inkscape="http://www.inkscape.org/namespaces/inkscape"
   width="500"
   height="550"
   id="svg2"
   version="1.1"
   inkscape:version="0.48.4 r"
   sodipodi:docname="livingroom.svg"
   inkscape:export-filename="C:\Users\Bob\Cpp\ld32\resources\livingroom.png"
   inkscape:export-xdpi="90"
   inkscape:export-ydpi="90">
  <defs
     id="defs4">
    <pattern
       inkscape:collect="always"
       xlink:href="#Wavy"
       id="pattern6670"
       patternTransform="matrix(0.38277899,-0.13621486,0.49526937,1.3917623,66.511628,33.895349)" />
    <pattern
       inkscape:stockid="Wavy"
       id="Wavy"
       height="5.1805778"
       width="30.066020"
       patternUnits="userSpaceOnUse"
       inkscape:collect="always">
      <path
         id="path6528"
         d="M 7.597,0.061 C 5.079,-0.187 2.656,0.302 -0.01,1.788 L -0.01,3.061 C 2.773,1.431 5.173,1.052 7.472,1.280 C 9.770,1.508 11.969,2.361 14.253,3.218 C 18.820,4.931 23.804,6.676 30.066,3.061 L 30.062,1.788 C 23.622,5.497 19.246,3.770 14.691,2.061 C 12.413,1.207 10.115,0.311 7.597,0.061 z "
         style="fill:black;stroke:none;" />
    </pattern>
  </defs>
  <sodipodi:namedview
     id="base"
     pagecolor="#ffffff"
     bordercolor="#666666"
     borderopacity="1.0"
     inkscape:pageopacity="0.0"
     inkscape:pageshadow="2"
     inkscape:zoom="3.1272728"
     inkscape:cx="216.83292"
     inkscape:cy="435.24505"
     inkscape:document-units="px"
     inkscape:current-layer="layer1"
     showgrid="false"
     showguides="true"
     inkscape:guide-bbox="true"
     showborder="true"
     borderlayer="true"
     inkscape:object-nodes="false"
     inkscape:window-width="1920"
     inkscape:window-height="1051"
     inkscape:window-x="-9"
     inkscape:window-y="-9"
     inkscape:window-maximized="1" />
  <metadata
     id="metadata7">
    <rdf:RDF>
      <cc:Work
         rdf:about="">
        <dc:format>image/svg+xml</dc:format>
        <dc:type
           rdf:resource="http://purl.org/dc/dcmitype/StillImage" />
        <dc:title />
      </cc:Work>
    </rdf:RDF>
  </metadata>
  <g
     inkscape:label="Layer 1"
     inkscape:groupmode="layer"
     id="layer1"
     transform="translate(0,-502.36218)">
    <rect
       style="fill:#ececec;fill-opacity:1;stroke:none"
       id="rect2985"
       width="513.15753"
       height="563.6651"
       x="-6.0609121"
       y="497.78842" />
    <rect
       style="fill:#f9f9f9;fill-opacity:1;stroke:none"
       id="rect2991"
       width="860.88397"
       height="321.41364"
       x="-1478.7159"
       y="1348.7361"
       transform="matrix(1,0,0.72841162,0.68513977,0,0)" />
    <path
       style="fill:none;stroke:#000000;stroke-width:1px;stroke-linecap:butt;stroke-linejoin:miter;stroke-opacity:1"
       d="m 362.64476,421.71063 0,-472.751394"
       id="path2993"
       inkscape:connector-curvature="0"
       transform="translate(0,502.36218)" />
    <rect
       style="fill:#cccccc;fill-opacity:1;stroke:none"
       id="rect3825"
       width="369.19644"
       height="430.00003"
       x="-7.142859"
       y="493.79077" />
    <rect
       style="fill:#c87137;fill-opacity:1;stroke:none"
       id="rect6726"
       width="132.38373"
       height="271.16278"
       x="174.59303"
       y="651.37378" />
    <g
       id="g5071"
       transform="matrix(0.48120377,0.43086467,0,1,365.32473,-77.618586)">
      <rect
         y="652.3418"
         x="114.14723"
         height="145.46196"
         width="145.46196"
         id="rect2999"
         style="fill:#999999;fill-opacity:1;stroke:none" />
      <rect
         y="660.30042"
         x="121.8713"
         height="53.538086"
         width="53.538086"
         id="rect3001"
         style="fill:#00ffff;fill-opacity:1;stroke:none" />
      <rect
         y="659.87885"
         x="198.94525"
         height="53.538086"
         width="53.538086"
         id="rect3001-0"
         style="fill:#00ffff;fill-opacity:1;stroke:none" />
      <rect
         y="736.66455"
         x="121.80239"
         height="53.538086"
         width="53.538086"
         id="rect3001-0-1"
         style="fill:#00ffff;fill-opacity:1;stroke:none" />
      <rect
         y="737.02173"
         x="197.87383"
         height="53.538086"
         width="53.538086"
         id="rect3001-0-1-1"
         style="fill:#00ffff;fill-opacity:1;stroke:none" />
    </g>
    <rect
       style="fill:#4d4d4d;fill-opacity:1;stroke:none"
       id="rect6827"
       width="150.2907"
       height="287.15115"
       x="-23.023256"
       y="151.56976"
       transform="translate(0,502.36218)" />
    <g
       id="g6850"
       transform="translate(-105.83353,-163.41968)">
      <rect
         style="fill:#cccccc;fill-opacity:1;stroke:none"
         id="rect6852"
         width="176.51163"
         height="50.523254"
         x="-42.848728"
         y="848.35052" />
      <path
         style="fill:#b3b3b3;fill-opacity:1;stroke:none"
         d="m -78.023248,823.40866 176.5117,0 35.174448,24.94189 -176.511696,0 z"
         id="path6854"
         inkscape:connector-curvature="0"
         sodipodi:nodetypes="ccccc" />
    </g>
    <g
       transform="translate(-70.659107,-113.53596)"
       id="g6844">
      <rect
         y="848.35052"
         x="-42.848728"
         height="50.523254"
         width="176.51163"
         id="rect6846"
         style="fill:#cccccc;fill-opacity:1;stroke:none" />
      <path
         sodipodi:nodetypes="ccccc"
         inkscape:connector-curvature="0"
         id="path6848"
         d="m -78.023248,823.40866 176.5117,0 35.174448,24.94189 -176.511696,0 z"
         style="fill:#b3b3b3;fill-opacity:1;stroke:none" />
    </g>
    <g
       id="g5018"
       transform="matrix(1.6409034,0,0,1.4377872,12.635147,-392.18328)">
      <path
         transform="matrix(0.70609146,0,0,1.0860913,42.374035,-83.7906)"
         style="fill:#deaa87;fill-opacity:1;stroke:none"
         d="m 126.5625,985.8125 0,13 15.84375,0 0,-13 -15.84375,0 z"
         id="path4999"
         inkscape:connector-curvature="0" />
      <g
         transform="matrix(1,0.90090143,0,1,-76.680083,-187.28291)"
         id="g4961">
        <path
           style="fill:#deaa87;fill-opacity:1;stroke:#deaa87;stroke-width:1px;stroke-linecap:butt;stroke-linejoin:miter;stroke-opacity:1"
           d="m 151.52288,988.97511 -0.50508,-44.69925 11.11168,-11.11168 46.71955,0 10.2278,10.22779 0,45.3306 z"
           id="path4957"
           inkscape:connector-curvature="0"
           sodipodi:nodetypes="ccccccc" />
        <path
           sodipodi:nodetypes="ccccccc"
           inkscape:connector-curvature="0"
           id="path4955"
           d="m 140.4112,1000.0868 -0.50508,-44.69926 11.11168,-11.11168 46.71955,0 10.2278,10.22779 0,45.33056 z"
           style="fill:#c87137;fill-opacity:1;stroke:#c87137;stroke-width:1px;stroke-linecap:butt;stroke-linejoin:miter;stroke-opacity:1" />
      </g>
      <g
         id="g4949">
        <path
           transform="matrix(1,0,0.79011482,0.61295887,0,0)"
           style="fill:#deaa87;fill-opacity:1;stroke:none"
           d="m -1257.0811,1562.2236 134.6429,0 0,6.6384 -134.6429,0 z"
           id="rect4947"
           inkscape:connector-curvature="0" />
        <path
           style="fill:#c87137;fill-opacity:1;stroke:none"
           d="m -17.857141,961.64789 135.000001,0 0,21.93673 -135.000001,0 z"
           id="rect4945"
           inkscape:connector-curvature="0" />
      </g>
      <path
         style="fill:#ececec;fill-opacity:1;stroke:none"
         d="m -30.959339,945.51074 142.857149,0 0,12.06811 -142.857149,0 z"
         id="rect4989"
         inkscape:connector-curvature="0" />
      <path
         sodipodi:nodetypes="ccccc"
         inkscape:connector-curvature="0"
         id="rect4991"
         d="m -1028.9717,-1394.5864 115.74489,0 0,48.7364 -115.74489,0 z"
         style="fill:#ffffff;fill-opacity:1;stroke:none"
         transform="matrix(1,0,-0.73507435,-0.67798651,0,0)" />
    </g>
    <g
       id="g6838"
       transform="translate(-36.124223,-56.617357)">
      <rect
         style="fill:#cccccc;fill-opacity:1;stroke:none"
         id="rect6840"
         width="176.51163"
         height="50.523254"
         x="-42.848728"
         y="848.35052" />
      <path
         style="fill:#b3b3b3;fill-opacity:1;stroke:none"
         d="m -78.023248,823.40866 176.5117,0 35.174448,24.94189 -176.511696,0 z"
         id="path6842"
         inkscape:connector-curvature="0"
         sodipodi:nodetypes="ccccc" />
    </g>
    <g
       id="g6834">
      <rect
         y="848.35052"
         x="-42.848728"
         height="50.523254"
         width="176.51163"
         id="rect6829"
         style="fill:#cccccc;fill-opacity:1;stroke:none" />
      <path
         sodipodi:nodetypes="ccccc"
         inkscape:connector-curvature="0"
         id="rect6831"
         d="m -78.023248,823.40866 176.5117,0 35.174448,24.94189 -176.511696,0 z"
         style="fill:#b3b3b3;fill-opacity:1;stroke:none" />
    </g>
    <g
       id="g5088">
      <path
         style="fill:#deaa87;fill-opacity:1;stroke:none"
         d="m -61.395351,854.10632 195.697681,0 8.31395,67.30487 -195.697678,0 z"
         id="rect5080"
         inkscape:connector-curvature="0"
         sodipodi:nodetypes="ccccc" />
      <path
         transform="translate(0,502.36218)"
         inkscape:connector-curvature="0"
         id="path5086"
         d="m 134.30233,351.74414 23.02325,12.63697 -32.2869,11.96662 -0.45222,-17.18434 z"
         style="fill:#deaa87;fill-opacity:1;stroke:#deaa87;stroke-width:1px;stroke-linecap:butt;stroke-linejoin:miter;stroke-opacity:1"
         sodipodi:nodetypes="ccccc" />
      <path
         style="fill:#c87137;fill-opacity:1;stroke:none"
         d="m -38.372097,866.74329 195.697677,0 0,67.30486 -195.697677,0 z"
         id="rect5078" />
    </g>
    <path
       transform="matrix(1,0.24437554,0,0.70767085,16.958229,557.62464)"
       d="m 396.82257,491.77673 c 0,8.67895 -7.03568,15.71463 -15.71463,15.71463 -8.67895,0 -15.71463,-7.03568 -15.71463,-15.71463 0,-8.67895 7.03568,-15.71462 15.71463,-15.71462 8.67895,0 15.71463,7.03567 15.71463,15.71462 z"
       sodipodi:ry="15.714626"
       sodipodi:rx="15.714626"
       sodipodi:cy="491.77673"
       sodipodi:cx="381.10794"
       id="path5113"
       style="fill:#d38d5f;fill-opacity:1;stroke:none"
       sodipodi:type="arc" />
    <rect
       style="fill:#c87137;fill-opacity:1;stroke:none"
       id="rect5111"
       width="15.601578"
       height="95.188614"
       x="390.49149"
       y="903.58557" />
    <g
       id="g5125"
       transform="translate(0,-24.302326)">
      <path
         transform="translate(0,502.36218)"
         inkscape:connector-curvature="0"
         id="path5101"
         d="m 318.79839,381.77884 -2e-5,-12.79071 151.56975,63.31396 8e-5,12.79071 -151.56981,-63.31396"
         style="fill:#deaa87;fill-opacity:1;stroke:none" />
      <g
         id="g5115">
        <rect
           transform="matrix(1,0,0.7492519,0.66228512,0,0)"
           y="1334.9855"
           x="-681.44202"
           height="95.599236"
           width="79.941864"
           id="rect5099"
           style="fill:#deaa87;fill-opacity:1;stroke:none" />
        <rect
           style="fill:#c87137;fill-opacity:1;stroke:none"
           id="rect5097"
           width="79.941864"
           height="95.599236"
           x="-666.97174"
           y="1315.6725"
           transform="matrix(1,0,0.7492519,0.66228512,0,0)" />
      </g>
    </g>
    <g
       transform="matrix(0.45966367,0.42602306,0,0.78520921,120.01369,21.944303)"
       id="g6688"
       style="fill:#333333;fill-opacity:1">
      <path
         style="fill:#333333;stroke:none"
         d="m 542.57033,740.87104 101.68604,0 0,33.25582 -101.68604,0 z"
         id="rect6690"
         inkscape:connector-curvature="0"
         sodipodi:nodetypes="ccccc" />
      <path
         transform="translate(-12.151163,577.18775)"
         style="fill:#333333;stroke:none"
         d="m 570.46513,187.38373 c 0,6.7109 -5.44026,12.15116 -12.15117,12.15116 -6.7109,0 -12.15116,-5.44026 -12.15116,-12.15116 0,-6.7109 5.44026,-12.15117 12.15116,-12.15117 6.71091,0 12.15117,5.44027 12.15117,12.15117 z"
         id="path6692" />
      <path
         transform="translate(-12.151163,577.18775)"
         style="fill:#333333;stroke:none"
         d="m 570.46513,187.38373 c 0,6.7109 -5.44026,12.15116 -12.15117,12.15116 -6.7109,0 -12.15116,-5.44026 -12.15116,-12.15116 0,-6.7109 5.44026,-12.15117 12.15116,-12.15117 6.71091,0 12.15117,5.44027 12.15117,12.15117 z"
         id="path6694" />
      <path
         transform="translate(56.279069,577.18775)"
         style="fill:#333333;stroke:none"
         d="m 570.46513,187.38373 c 0,6.7109 -5.44026,12.15116 -12.15117,12.15116 -6.7109,0 -12.15116,-5.44026 -12.15116,-12.15116 0,-6.7109 5.44026,-12.15117 12.15116,-12.15117 6.71091,0 12.15117,5.44027 12.15117,12.15117 z"
         id="path6696" />
      <path
         style="fill:#333333;stroke:none"
         d="m 564.43719,757.27722 31.88148,0 0,19.44544 -31.88148,0 z"
         id="rect6698" />
      <path
         transform="translate(-0.83934171,501.79282)"
         style="fill:#333333;stroke:none"
         d="m 575.50143,265.20712 c 0,2.00886 -1.6285,3.63736 -3.63736,3.63736 -2.00885,0 -3.63735,-1.6285 -3.63735,-3.63736 0,-2.00885 1.6285,-3.63735 3.63735,-3.63735 2.00886,0 3.63736,1.6285 3.63736,3.63735 z"
         id="path6700" />
      <path
         transform="translate(-2.8379379,502.27246)"
         style="fill:#333333;stroke:none"
         d="m 576.22096,264.72748 c 0,1.34659 -1.05584,2.43822 -2.35829,2.43822 -1.30244,0 -2.35828,-1.09163 -2.35828,-2.43822 0,-1.3466 1.05584,-2.43823 2.35828,-2.43823 1.30245,0 2.35829,1.09163 2.35829,2.43823 z"
         id="path6702" />
      <path
         transform="translate(17.867053,501.79282)"
         style="fill:#333333;stroke:none"
         d="m 575.50143,265.20712 c 0,2.00886 -1.6285,3.63736 -3.63736,3.63736 -2.00885,0 -3.63735,-1.6285 -3.63735,-3.63736 0,-2.00885 1.6285,-3.63735 3.63735,-3.63735 2.00886,0 3.63736,1.6285 3.63736,3.63735 z"
         id="path6704" />
      <path
         transform="translate(0,502.36218)"
         style="fill:#333333;stroke:none"
         d="m 571.02472,261.0004 18.70639,0 0,7.27471 -18.70639,0 z"
         id="rect6706" />
      <path
         transform="translate(15.868457,502.27246)"
         style="fill:#333333;stroke:none"
         d="m 576.22096,264.72748 c 0,1.34659 -1.05584,2.43822 -2.35829,2.43822 -1.30244,0 -2.35828,-1.09163 -2.35828,-2.43822 0,-1.3466 1.05584,-2.43823 2.35828,-2.43823 1.30245,0 2.35829,1.09163 2.35829,2.43823 z"
         id="path6708" />
      <path
         transform="translate(-2.8379379,502.27246)"
         style="fill:#333333;stroke:none"
         d="m 576.22096,264.72748 c 0,1.34659 -1.05584,2.43822 -2.35829,2.43822 -1.30244,0 -2.35828,-1.09163 -2.35828,-2.43822 0,-1.3466 1.05584,-2.43823 2.35828,-2.43823 1.30245,0 2.35829,1.09163 2.35829,2.43823 z"
         id="path6710" />
      <path
         transform="translate(56.279069,577.18775)"
         style="fill:#333333;stroke:none"
         d="m 570.46513,187.38373 c 0,6.7109 -5.44026,12.15116 -12.15117,12.15116 -6.7109,0 -12.15116,-5.44026 -12.15116,-12.15116 0,-6.7109 5.44026,-12.15117 12.15116,-12.15117 6.71091,0 12.15117,5.44027 12.15117,12.15117 z"
         id="path6712" />
    </g>
    <path
       style="fill:#333333;fill-opacity:1;stroke:none"
       d="m 406.31917,402.12783 10.06188,0 -46.74138,-69.43336 -10.06188,0 z"
       id="path6714"
       inkscape:connector-curvature="0"
       transform="translate(0,502.36218)"
       sodipodi:nodetypes="ccccc" />
    <g
       id="g6674"
       transform="matrix(0.45966367,0.42602306,0,0.78520921,116.16983,22.170412)">
      <rect
         y="747.94354"
         x="529.53491"
         height="33.255814"
         width="101.68604"
         id="rect5131"
         style="fill:#1a1a1a;fill-opacity:1;stroke:none" />
      <path
         sodipodi:type="arc"
         style="fill:#666666;fill-opacity:1;stroke:none"
         id="path6666"
         sodipodi:cx="558.31396"
         sodipodi:cy="187.38373"
         sodipodi:rx="12.151163"
         sodipodi:ry="12.151163"
         d="m 570.46513,187.38373 c 0,6.7109 -5.44026,12.15116 -12.15117,12.15116 -6.7109,0 -12.15116,-5.44026 -12.15116,-12.15116 0,-6.7109 5.44026,-12.15117 12.15116,-12.15117 6.71091,0 12.15117,5.44027 12.15117,12.15117 z"
         transform="translate(-12.151163,577.18775)" />
      <path
         transform="translate(-12.151163,577.18775)"
         d="m 570.46513,187.38373 c 0,6.7109 -5.44026,12.15116 -12.15117,12.15116 -6.7109,0 -12.15116,-5.44026 -12.15116,-12.15116 0,-6.7109 5.44026,-12.15117 12.15116,-12.15117 6.71091,0 12.15117,5.44027 12.15117,12.15117 z"
         sodipodi:ry="12.151163"
         sodipodi:rx="12.151163"
         sodipodi:cy="187.38373"
         sodipodi:cx="558.31396"
         id="path5133"
         style="fill:url(#pattern6670);fill-opacity:1;stroke:none"
         sodipodi:type="arc" />
      <path
         sodipodi:type="arc"
         style="fill:#666666;fill-opacity:1;stroke:none"
         id="path5135"
         sodipodi:cx="558.31396"
         sodipodi:cy="187.38373"
         sodipodi:rx="12.151163"
         sodipodi:ry="12.151163"
         d="m 570.46513,187.38373 c 0,6.7109 -5.44026,12.15116 -12.15117,12.15116 -6.7109,0 -12.15116,-5.44026 -12.15116,-12.15116 0,-6.7109 5.44026,-12.15117 12.15116,-12.15117 6.71091,0 12.15117,5.44027 12.15117,12.15117 z"
         transform="translate(56.279069,577.18775)" />
      <rect
         y="757.27722"
         x="564.43719"
         height="19.445436"
         width="31.881472"
         id="rect5137"
         style="fill:#333333;fill-opacity:1;stroke:none" />
      <path
         transform="translate(-0.83934171,501.79282)"
         d="m 575.50143,265.20712 c 0,2.00886 -1.6285,3.63736 -3.63736,3.63736 -2.00885,0 -3.63735,-1.6285 -3.63735,-3.63736 0,-2.00885 1.6285,-3.63735 3.63735,-3.63735 2.00886,0 3.63736,1.6285 3.63736,3.63735 z"
         sodipodi:ry="3.6373546"
         sodipodi:rx="3.6373546"
         sodipodi:cy="265.20712"
         sodipodi:cx="571.86407"
         id="path5167"
         style="fill:#4d4d4d;fill-opacity:1;stroke:none"
         sodipodi:type="arc" />
      <path
         transform="translate(-2.8379379,502.27246)"
         d="m 576.22096,264.72748 c 0,1.34659 -1.05584,2.43822 -2.35829,2.43822 -1.30244,0 -2.35828,-1.09163 -2.35828,-2.43822 0,-1.3466 1.05584,-2.43823 2.35828,-2.43823 1.30245,0 2.35829,1.09163 2.35829,2.43823 z"
         sodipodi:ry="2.4382267"
         sodipodi:rx="2.358285"
         sodipodi:cy="264.72748"
         sodipodi:cx="573.86267"
         id="path5139"
         style="fill:#ffffff;fill-opacity:1;stroke:none"
         sodipodi:type="arc" />
      <path
         sodipodi:type="arc"
         style="fill:#4d4d4d;fill-opacity:1;stroke:none"
         id="path5169"
         sodipodi:cx="571.86407"
         sodipodi:cy="265.20712"
         sodipodi:rx="3.6373546"
         sodipodi:ry="3.6373546"
         d="m 575.50143,265.20712 c 0,2.00886 -1.6285,3.63736 -3.63736,3.63736 -2.00885,0 -3.63735,-1.6285 -3.63735,-3.63736 0,-2.00885 1.6285,-3.63735 3.63735,-3.63735 2.00886,0 3.63736,1.6285 3.63736,3.63735 z"
         transform="translate(17.867053,501.79282)" />
      <rect
         transform="translate(0,502.36218)"
         y="261.0004"
         x="571.02472"
         height="7.2747092"
         width="18.706394"
         id="rect5173"
         style="fill:#4d4d4d;fill-opacity:1;stroke:none" />
      <path
         sodipodi:type="arc"
         style="fill:#ffffff;fill-opacity:1;stroke:none"
         id="path5141"
         sodipodi:cx="573.86267"
         sodipodi:cy="264.72748"
         sodipodi:rx="2.358285"
         sodipodi:ry="2.4382267"
         d="m 576.22096,264.72748 c 0,1.34659 -1.05584,2.43822 -2.35829,2.43822 -1.30244,0 -2.35828,-1.09163 -2.35828,-2.43822 0,-1.3466 1.05584,-2.43823 2.35828,-2.43823 1.30245,0 2.35829,1.09163 2.35829,2.43823 z"
         transform="translate(15.868457,502.27246)" />
      <path
         sodipodi:type="arc"
         style="fill:#ffffff;fill-opacity:1;stroke:none"
         id="path5171"
         sodipodi:cx="573.86267"
         sodipodi:cy="264.72748"
         sodipodi:rx="2.358285"
         sodipodi:ry="2.4382267"
         d="m 576.22096,264.72748 c 0,1.34659 -1.05584,2.43822 -2.35829,2.43822 -1.30244,0 -2.35828,-1.09163 -2.35828,-2.43822 0,-1.3466 1.05584,-2.43823 2.35828,-2.43823 1.30245,0 2.35829,1.09163 2.35829,2.43823 z"
         transform="translate(-2.8379379,502.27246)" />
      <path
         sodipodi:type="arc"
         style="fill:url(#pattern6670);fill-opacity:1;stroke:none"
         id="path6672"
         sodipodi:cx="558.31396"
         sodipodi:cy="187.38373"
         sodipodi:rx="12.151163"
         sodipodi:ry="12.151163"
         d="m 570.46513,187.38373 c 0,6.7109 -5.44026,12.15116 -12.15117,12.15116 -6.7109,0 -12.15116,-5.44026 -12.15116,-12.15116 0,-6.7109 5.44026,-12.15117 12.15116,-12.15117 6.71091,0 12.15117,5.44027 12.15117,12.15117 z"
         transform="translate(56.279069,577.18775)" />
    </g>
    <path
       style="fill:none;stroke:#000000;stroke-width:1px;stroke-linecap:round;stroke-linejoin:miter;stroke-opacity:1"
       d="M 382.90246,854.87018 370.54401,826.23459"
       id="path6720"
       inkscape:connector-curvature="0"
       sodipodi:nodetypes="cc" />
    <path
       style="fill:none;stroke:#000000;stroke-width:1px;stroke-linecap:round;stroke-linejoin:miter;stroke-opacity:1"
       d="m 383.00146,854.7459 33.73546,-2.8779"
       id="path6722"
       inkscape:connector-curvature="0" />
    <rect
       style="fill:#c87137;fill-opacity:1;stroke:none"
       id="rect6728"
       width="1.9186046"
       height="2.5581396"
       x="257.73257"
       y="841.31567" />
    <g
       transform="matrix(0.52956613,0,0,0.50758324,141.7229,354.82234)"
       id="g6730">
      <rect
         style="fill:#999999;fill-opacity:1;stroke:none"
         id="rect6732"
         width="145.46196"
         height="145.46196"
         x="114.14723"
         y="652.3418" />
      <rect
         style="fill:#00ffff;fill-opacity:1;stroke:none"
         id="rect6734"
         width="53.538086"
         height="53.538086"
         x="121.8713"
         y="660.30042" />
      <rect
         style="fill:#00ffff;fill-opacity:1;stroke:none"
         id="rect6736"
         width="53.538086"
         height="53.538086"
         x="198.94525"
         y="659.87885" />
      <rect
         style="fill:#00ffff;fill-opacity:1;stroke:none"
         id="rect6738"
         width="53.538086"
         height="53.538086"
         x="121.80239"
         y="736.66455" />
      <rect
         style="fill:#00ffff;fill-opacity:1;stroke:none"
         id="rect6740"
         width="53.538086"
         height="53.538086"
         x="197.87383"
         y="737.02173" />
    </g>
    <path
       sodipodi:type="arc"
       style="fill:#c87137;fill-opacity:1;stroke:none"
       id="path6742"
       sodipodi:cx="289.06976"
       sodipodi:cy="305.05814"
       sodipodi:rx="8.3139534"
       sodipodi:ry="8.3139534"
       d="m 297.38372,305.05814 c 0,4.59167 -3.72229,8.31395 -8.31396,8.31395 -4.59167,0 -8.31395,-3.72228 -8.31395,-8.31395 0,-4.59167 3.72228,-8.31396 8.31395,-8.31396 3.28537,0 6.26262,1.93469 7.59715,4.9368"
       transform="translate(0,502.36218)"
       sodipodi:start="0"
       sodipodi:end="5.8648901"
       sodipodi:open="true" />
    <g
       id="g6806">
      <path
         transform="translate(0,502.36218)"
         id="path6798"
         d="M 156.34375 85.3125 L 148.125 85.3125 L 148.125 92 L 156.375 92 C 156.44735 90.959668 156.6875 89.965019 156.6875 88.90625 C 156.6875 87.677289 156.44128 86.515376 156.34375 85.3125 z "
         style="fill:#000000;fill-opacity:1;stroke:none" />
      <path
         transform="translate(0,502.36218)"
         id="path6804"
         d="M 67.53125 92.5 L 75.71875 92.5 L 75.71875 85.78125 L 67.46875 85.78125 C 67.39466 86.832061 67.15625 87.835877 67.15625 88.90625 C 67.15625 90.136541 67.433968 91.294866 67.53125 92.5 z "
         style="fill:#000000;fill-opacity:1;stroke:none" />
      <path
         transform="translate(0,502.36218)"
         id="path6802"
         d="M 115.34375 133.3125 L 115.34375 127.1875 L 108.65625 127.1875 L 108.65625 133.34375 C 109.74756 133.42333 110.79454 133.65625 111.90625 133.65625 C 113.08549 133.65625 114.18837 133.40221 115.34375 133.3125 z "
         style="fill:#000000;fill-opacity:1;stroke:none" />
      <path
         transform="translate(0,502.36218)"
         id="path6795"
         d="M 108.46875 44.46875 C 86.433189 46.176419 69.024359 63.7183 67.46875 85.78125 L 75.71875 85.78125 L 75.71875 92.5 L 67.53125 92.5 C 69.301073 114.42469 86.684449 131.74152 108.65625 133.34375 L 108.65625 127.1875 L 115.34375 127.1875 L 115.34375 133.3125 C 137.37505 131.60187 154.83837 114.09479 156.375 92 L 148.125 92 L 148.125 85.3125 L 156.34375 85.3125 C 154.56837 63.415282 137.14595 46.088091 115.1875 44.46875 L 115.1875 50.59375 L 108.46875 50.59375 L 108.46875 44.46875 z "
         style="fill:#f9f9f9;fill-opacity:1;stroke:none" />
      <path
         transform="translate(0,502.36218)"
         id="path6758"
         d="M 108.46875 44.46875 L 108.46875 50.59375 L 115.1875 50.59375 L 115.1875 44.46875 C 114.08491 44.387439 113.02961 44.125 111.90625 44.125 C 110.72591 44.125 109.62608 44.379062 108.46875 44.46875 z "
         style="fill:#000000;fill-opacity:1;stroke:none" />
    </g>
    <path
       sodipodi:type="arc"
       style="fill:#000000;fill-opacity:1;stroke:none"
       id="path6813"
       sodipodi:cx="62.994186"
       sodipodi:cy="147.4128"
       sodipodi:rx="6.7151165"
       sodipodi:ry="6.7151165"
       d="m 69.709303,147.4128 a 6.7151165,6.7151165 0 1 1 -13.430233,0 6.7151165,6.7151165 0 1 1 13.430233,0 z"
       transform="translate(-95.607191,420.81675)" />
    <g
       id="g3038"
       transform="matrix(0.14787157,0,0,0.14787157,78.901441,485.50428)"
       inkscape:transform-center-x="-10.634035"
       inkscape:transform-center-y="-3.7227662">
      <text
         sodipodi:linespacing="125%"
         id="text3186"
         y="660.08276"
         x="196.42702"
         style="font-size:40px;font-style:normal;font-weight:normal;line-height:125%;letter-spacing:0px;word-spacing:0px;fill:#000000;fill-opacity:1;stroke:none;font-family:Sans"
         xml:space="preserve"><tspan
           style="font-style:normal;font-variant:normal;font-weight:normal;font-stretch:normal;font-family:Kalinga;-inkscape-font-specification:Kalinga"
           y="660.08276"
           x="196.42702"
           id="tspan3188"
           sodipodi:role="line">Manhattan</tspan><tspan
           style="font-style:normal;font-variant:normal;font-weight:normal;font-stretch:normal;font-family:Kalinga;-inkscape-font-specification:Kalinga"
           id="tspan3192"
           y="710.08276"
           x="196.42702"
           sodipodi:role="line">      Group</tspan><tspan
           style="font-style:normal;font-variant:normal;font-weight:normal;font-stretch:normal;font-family:Kalinga;-inkscape-font-specification:Kalinga"
           id="tspan3190"
           y="760.08276"
           x="196.42702"
           sodipodi:role="line" /></text>
      <g
         style="fill:#000000;stroke:none"
         transform="matrix(5.1764858,0,0,5.1764858,-639.20493,-5072.885)"
         id="g9894">
        <path
           sodipodi:type="arc"
           style="fill:#000000;fill-opacity:1;stroke:none"
           id="path9862"
           sodipodi:cx="165.28621"
           sodipodi:cy="184.29759"
           sodipodi:rx="1.8940361"
           sodipodi:ry="1.8940361"
           d="m 167.18025,184.29759 c 0,1.04605 -0.84799,1.89404 -1.89404,1.89404 -1.04605,0 -1.89404,-0.84799 -1.89404,-1.89404 0,-1.04605 0.84799,-1.89403 1.89404,-1.89403 1.04605,0 1.89404,0.84798 1.89404,1.89403 z"
           transform="translate(1.2626907,934.35584)" />
        <path
           style="fill:#000000;stroke:none"
           d="m 163.92882,1116.3806 c 0.0105,-0.042 0.0122,-0.087 0.0316,-0.1263 0.01,-0.019 0.14021,-0.1402 0.15783,-0.1578 0.0147,-0.015 0.13574,-0.1358 0.15784,-0.1579 0.021,-0.021 0.0393,-0.045 0.0631,-0.063 0.0823,-0.062 0.0439,0 0.12627,-0.063 0.24663,-0.1849 -0.14395,0.056 0.15784,-0.095 0.0339,-0.017 0.0631,-0.042 0.0947,-0.063 0.0316,-0.021 0.0631,-0.042 0.0947,-0.063 0.0316,-0.021 0.0595,-0.049 0.0947,-0.063 0.0195,-0.01 0.0436,0.01 0.0631,0 0.0352,-0.014 0.0622,-0.044 0.0947,-0.063 0.0202,-0.012 0.0421,-0.021 0.0631,-0.032 0.0211,-0.011 0.0403,-0.026 0.0631,-0.032 0.0204,-0.01 0.0427,0 0.0631,0 0.0228,-0.01 0.0413,-0.023 0.0631,-0.032 0.0309,-0.012 0.0631,-0.021 0.0947,-0.032 0.0316,-0.01 0.0624,-0.024 0.0947,-0.032 0.0102,0 0.0216,0 0.0316,0 0.0538,-0.018 0.10335,-0.048 0.15784,-0.063 0.0202,-0.01 0.0425,0 0.0631,0 0.327,-0.109 -0.13054,0.032 0.1894,-0.032 0.0231,-0.01 0.0413,-0.023 0.0631,-0.032 0.046,-0.018 0.17952,-0.059 0.22097,-0.063 0.48119,-0.053 -0.0755,0.05 0.25254,-0.032 0.0204,0 0.0421,0 0.0631,0 0.0421,0 0.0842,0 0.12627,0 0.0211,0 0.0425,0 0.0631,0 0.0326,-0.01 0.0619,-0.026 0.0947,-0.032 0.0311,0 0.0631,0 0.0947,0 0.0737,0 0.14731,0 0.22097,0 0.0526,0 0.10522,0 0.15784,0 0.021,0 0.0425,0 0.0631,0 0.0326,0.01 0.0624,0.024 0.0947,0.032 0.0102,0 0.0214,0 0.0316,0 0.0323,0.01 0.0624,0.024 0.0947,0.032 0.0102,0 0.0222,0 0.0316,0 0.0133,0.01 0.0175,0.027 0.0316,0.032 0.02,0.01 0.0425,0 0.0631,0 0.0326,0.01 0.0631,0.021 0.0947,0.032 0.0675,0.023 0.15161,0.053 0.22097,0.063 0.0312,0 0.0641,-0.01 0.0947,0 0.004,10e-4 0.054,0.057 0.0631,0.063 0.0464,0.031 0.1065,0.046 0.15784,0.063 0.0316,0.011 0.0624,0.024 0.0947,0.032 0.0102,0 0.0216,0 0.0316,0 0.0446,0.015 0.0816,0.048 0.12627,0.063 0.01,0 0.0216,0 0.0316,0 0.0223,0.01 0.0436,0.019 0.0631,0.032 0.0124,0.01 0.0174,0.027 0.0316,0.032 0.02,0.01 0.0443,-0.01 0.0631,0 0.009,0.01 -0.005,0.022 0,0.032 0.007,0.013 0.0192,0.023 0.0316,0.032 0.0196,0.013 0.0436,0.018 0.0631,0.032 0.0124,0.01 0.0192,0.023 0.0316,0.032 0.11466,0.076 0.0223,-0.01 0.0947,0.063 0.0105,0.011 0.021,0.021 0.0316,0.032 0.0105,0.011 0.0182,0.025 0.0316,0.032 0.009,0.01 0.0222,0 0.0316,0 0.13138,0.066 -0.0337,0 0.0316,0.063 0.007,0.01 0.0241,-0.01 0.0316,0 0.007,0.01 -0.007,0.024 0,0.032 0.007,0.01 0.0241,-0.01 0.0316,0 0.007,0.01 -0.007,0.024 0,0.032 0.007,0.01 0.0241,0.01 0.0316,0 0.007,-0.01 -0.007,-0.024 0,-0.032 0.0166,-0.017 0.0465,-0.015 0.0631,-0.032 0.0166,-0.017 0.0195,-0.043 0.0316,-0.063 0.0195,-0.033 0.0394,-0.065 0.0631,-0.095 0.0186,-0.023 0.0478,-0.038 0.0631,-0.063 0.0171,-0.028 0.0167,-0.065 0.0316,-0.095 0.007,-0.013 0.0226,-0.02 0.0316,-0.032 0.0228,-0.03 0.0421,-0.063 0.0631,-0.095 0.021,-0.032 0.0421,-0.063 0.0631,-0.095 0.0211,-0.042 0.0382,-0.086 0.0631,-0.1262 0.0158,-0.094 0.11225,-0.121 0.15783,-0.1894 0.0261,-0.039 0.0398,-0.085 0.0631,-0.1263 0.0188,-0.033 0.0436,-0.062 0.0631,-0.095 0.0363,-0.061 0.0631,-0.1263 0.0947,-0.1894 0.021,-0.042 0.037,-0.087 0.0631,-0.1263 0.0165,-0.025 0.0466,-0.038 0.0631,-0.063 0.0261,-0.039 0.0358,-0.088 0.0631,-0.1262 0.0259,-0.036 0.0687,-0.058 0.0947,-0.095 5.3e-4,-8e-4 0.12468,-0.2497 0.12627,-0.2526 0.0298,-0.054 0.0643,-0.1045 0.0947,-0.1578 0.035,-0.061 0.0597,-0.1282 0.0947,-0.1894 0.0188,-0.033 0.0436,-0.062 0.0631,-0.095 0.0463,-0.077 0.0168,-0.049 0.0631,-0.1263 0.0558,-0.093 0.091,-0.1274 0.15784,-0.221 0.0221,-0.031 0.0394,-0.065 0.0631,-0.095 0.0186,-0.023 0.0441,-0.04 0.0631,-0.063 0.0679,-0.063 0.10129,-0.1502 0.15783,-0.2209 0.17305,-0.2163 -0.0239,0.071 0.0947,-0.1263 0.1147,-0.1912 0.005,0 0.15783,-0.1894 0.0147,-0.018 0.0211,-0.042 0.0316,-0.063 0.021,-0.032 0.0388,-0.066 0.0631,-0.095 0.0286,-0.034 0.0668,-0.06 0.0947,-0.095 0.0147,-0.018 0.0185,-0.043 0.0316,-0.063 0.008,-0.012 0.0249,-0.018 0.0316,-0.032 0.005,-0.01 -0.005,-0.022 0,-0.032 0.008,-0.017 0.0781,-0.078 0.0947,-0.095 0.1047,-0.1047 -0.0149,0.03 0.0316,-0.063 0.0657,-0.1314 -0.002,0.034 0.0631,-0.032 0.007,-0.01 0.007,-0.024 0,-0.032 -0.007,-0.01 -0.0241,0.01 -0.0316,0 -0.007,-0.01 0.007,-0.024 0,-0.032 -0.007,-0.01 -0.0241,0.01 -0.0316,0 -0.007,-0.01 0,-0.021 0,-0.032 -0.0105,-0.01 -0.0192,-0.023 -0.0316,-0.032 -0.0196,-0.013 -0.0436,-0.018 -0.0631,-0.032 -0.0124,-0.01 -0.0183,-0.025 -0.0316,-0.032 -0.0298,-0.015 -0.0662,-0.014 -0.0947,-0.032 -0.0255,-0.015 -0.0376,-0.048 -0.0631,-0.063 -0.0285,-0.017 -0.0631,-0.021 -0.0947,-0.032 -0.0316,-0.01 -0.0631,-0.021 -0.0947,-0.032 -0.0316,-0.01 -0.0649,-0.017 -0.0947,-0.032 -0.0133,-0.01 -0.0178,-0.026 -0.0316,-0.032 -0.0806,-0.032 -0.17278,-0.029 -0.25254,-0.063 -0.0349,-0.015 -0.0595,-0.049 -0.0947,-0.063 -0.0195,-0.01 -0.0425,0 -0.0631,0 -0.0326,-0.01 -0.0631,-0.021 -0.0947,-0.032 -0.0631,-0.021 -0.12824,-0.037 -0.18941,-0.063 -0.0433,-0.019 -0.0822,-0.047 -0.12627,-0.063 -0.0406,-0.015 -0.0851,-0.018 -0.12627,-0.032 -0.0223,-0.01 -0.0408,-0.024 -0.0631,-0.032 -0.1796,-0.06 -0.069,0 -0.22097,-0.063 -0.0736,-0.029 -0.0681,-0.048 -0.15784,-0.063 -0.0311,-0.01 -0.0637,0.01 -0.0947,0 -0.0231,-0.01 -0.0413,-0.023 -0.0631,-0.032 -0.0309,-0.012 -0.0638,-0.019 -0.0947,-0.032 -0.0218,-0.01 -0.0401,-0.027 -0.0631,-0.032 -0.031,-0.01 -0.0636,0.01 -0.0947,0 -0.0328,0 -0.0619,-0.026 -0.0947,-0.032 -0.0311,0 -0.0634,0 -0.0947,0 -0.0532,-0.01 -0.10451,-0.026 -0.15783,-0.032 -0.0627,-0.01 -0.12713,0.01 -0.18941,0 -0.0428,-0.01 -0.0832,-0.026 -0.12627,-0.032 -0.0835,-0.01 -0.1692,0.012 -0.25253,0 -0.0329,-0.01 -0.0618,-0.027 -0.0947,-0.032 -0.0417,-0.01 -0.0842,0 -0.12626,0 -0.0421,-0.011 -0.0835,-0.024 -0.12627,-0.032 -0.0623,-0.01 -0.12691,0.01 -0.18941,0 -0.0329,-0.01 -0.0621,-0.025 -0.0947,-0.032 -0.0342,-0.01 -0.18723,0 -0.22097,0 -0.021,0 -0.0425,0 -0.0631,0 -0.0326,-0.01 -0.0618,-0.027 -0.0947,-0.032 -0.0417,-0.01 -0.0842,0 -0.12627,0 -0.0631,0 -0.12626,0 -0.1894,0 -0.0737,0 -0.14731,0 -0.22097,0 -0.0421,0 -0.0844,0 -0.12627,0 -0.10665,0.012 -0.20982,0.045 -0.31567,0.063 -0.0104,0 -0.0214,0 -0.0316,0 -0.0323,0.01 -0.0619,0.026 -0.0947,0.032 -0.0519,0.01 -0.10625,-0.01 -0.15784,0 -0.0326,0.01 -0.0619,0.026 -0.0947,0.032 -0.0311,0.01 -0.0641,-0.01 -0.0947,0 -0.0144,0 -0.021,0.021 -0.0316,0.032 -0.0421,0.011 -0.0832,0.026 -0.12627,0.032 -0.0418,0.01 -0.0845,0 -0.12627,0 -0.043,0.01 -0.0842,0.021 -0.12626,0.032 -0.0421,0.011 -0.0851,0.018 -0.12627,0.032 -0.0223,0.01 -0.0408,0.024 -0.0631,0.032 -0.0412,0.014 -0.0846,0.02 -0.12627,0.032 -0.064,0.018 -0.12484,0.047 -0.1894,0.063 -0.0102,0 -0.0211,0 -0.0316,0 -0.0316,0.011 -0.0638,0.019 -0.0947,0.032 -0.0871,0.035 -0.16546,0.091 -0.25254,0.1263 -0.01,0 -0.0222,-0.01 -0.0316,0 -0.0339,0.017 -0.0608,0.046 -0.0947,0.063 -0.0298,0.015 -0.0649,0.017 -0.0947,0.032 -0.0339,0.017 -0.0622,0.044 -0.0947,0.063 -0.0202,0.012 -0.0436,0.018 -0.0631,0.032 -0.16315,0.1087 -0.0799,0.084 -0.25253,0.1578 -0.0306,0.013 -0.0649,0.017 -0.0947,0.032 -0.14822,0.074 -0.0397,0.047 -0.15783,0.095 -0.0309,0.012 -0.0649,0.017 -0.0947,0.032 -0.0133,0.01 -0.0197,0.023 -0.0316,0.032 -0.0303,0.023 -0.0618,0.044 -0.0947,0.063 -0.45982,0.2628 0.13318,-0.082 -0.22097,0.095 -0.0133,0.01 -0.0211,0.021 -0.0316,0.032 -0.0211,0.011 -0.0413,0.023 -0.0631,0.032 -0.0455,0.018 -0.11553,0.031 -0.15783,0.063 -0.0238,0.018 -0.0376,0.048 -0.0631,0.063 -0.0285,0.017 -0.0649,0.017 -0.0947,0.032 -0.0133,0.01 -0.0197,0.023 -0.0316,0.032 -0.31303,0.2348 0.0625,-0.052 -0.15783,0.095 -0.0371,0.025 -0.0598,0.067 -0.0947,0.095 -0.0296,0.024 -0.0638,0.041 -0.0947,0.063 -0.0428,0.031 -0.0834,0.064 -0.12626,0.095 -0.0309,0.022 -0.0643,0.04 -0.0947,0.063 -0.0119,0.01 -0.021,0.021 -0.0316,0.032 -0.021,0.021 -0.0466,0.038 -0.0631,0.063 -0.006,0.01 0.007,0.024 0,0.032 -0.007,0.01 -0.0222,-0.01 -0.0316,0 -0.0133,0.01 -0.021,0.021 -0.0316,0.032 -0.0105,0.01 -0.0211,0.021 -0.0316,0.032 -0.0316,0.032 -0.0631,0.063 -0.0947,0.095 -0.0211,0.021 -0.0393,0.045 -0.0631,0.063 -0.0188,0.014 -0.0436,0.018 -0.0631,0.032 -0.0124,0.01 -0.0192,0.023 -0.0316,0.032 -0.0392,0.026 -0.0871,0.037 -0.12627,0.063 -0.0725,0.048 0.0135,0.018 -0.0631,0.095 -0.0385,0.038 -0.0705,0.015 -0.0947,0.063 -0.005,0.01 -0.005,0.022 0,0.032 0.0131,0.026 0.11077,0.1005 0.12627,0.1263 0.0171,0.028 0.0144,0.066 0.0316,0.095 0.0153,0.025 0.0421,0.042 0.0631,0.063 0.0316,0.032 0.0631,0.063 0.0947,0.095 0.13654,0.1365 0.005,-0.01 0.0947,0.1262 0.008,0.012 0.0211,0.021 0.0316,0.032 0.0316,0.032 0.0668,0.06 0.0947,0.095 0.0147,0.018 0.0185,0.044 0.0316,0.063 0.0483,0.072 0.018,-0.014 0.0947,0.063 0.0166,0.017 0.0185,0.044 0.0316,0.063 0.0165,0.025 0.0498,0.037 0.0631,0.063 0.0389,0.078 -0.0916,-0.029 0.0316,0.095 0.007,0.01 0.0257,-0.01 0.0316,0 0.0185,0.028 0.0167,0.065 0.0316,0.095 0.007,0.013 0.0233,0.019 0.0316,0.032 0.0491,0.074 0.0771,0.1789 0.12627,0.2526 0.008,0.012 0.0249,0.018 0.0316,0.032 0.0903,0.1807 -0.0196,0.02 0.0631,0.1578 -0.007,0.065 0.0669,0.084 0.0947,0.1263 0.0261,0.039 0.037,0.087 0.0631,0.1263 0.008,0.012 0.0233,0.019 0.0316,0.032 0.0131,0.02 0.0185,0.043 0.0316,0.063 0.008,0.012 0.0233,0.019 0.0316,0.032 0.0598,0 0.021,0.074 0.0316,0.095 0.007,0.013 0.0233,0.019 0.0316,0.032 0.0598,0 0.0211,0.074 0.0316,0.095 0.007,0.013 0.0249,0.018 0.0316,0.032 0.005,0.01 -0.005,0.022 0,0.032 0.007,0.013 0.0233,0.019 0.0316,0.032 0.0131,0.02 0.0185,0.044 0.0316,0.063 0.008,0.012 0.0249,0.018 0.0316,0.032 0.039,0.117 0.0167,0.065 0.0631,0.1578 0.0105,0.021 0.0185,0.044 0.0316,0.063 0.008,0.012 0.0269,0.017 0.0316,0.032 0.007,0.02 -0.007,0.043 0,0.063 0.005,0.014 0.0249,0.018 0.0316,0.032 0.005,0.01 -0.005,0.022 0,0.032 0.0133,0.027 0.0498,0.036 0.0631,0.063 0.009,0.019 -0.009,0.044 0,0.063 0.0121,0.024 0.0876,0.073 0.0947,0.095 0.039,0.117 -0.0425,0.021 0.0316,0.095 0.0105,0.011 0.021,0.021 0.0316,0.032 0,0.01 -0.007,0.024 0,0.032 0.007,0.01 0.0241,-0.01 0.0316,0 0.007,0.01 -0.005,0.022 0,0.032 0.007,0.013 0.0249,0.018 0.0316,0.032 0.005,0.01 -0.0105,0.032 0,0.032 0.27277,0 0.14309,-0.076 0.0631,-0.3157"
           id="path9888"
           inkscape:connector-curvature="0" />
        <path
           style="fill:#000000;stroke:none"
           d="m 169.8319,1119.2532 c 0.0526,0.01 0.10522,0.021 0.15783,0.032 0.0316,0 0.0636,0 0.0947,0 0.0328,0.01 0.0631,0.021 0.0947,0.032 0.0316,0.011 0.0649,0.017 0.0947,0.032 0.0339,0.017 0.0587,0.051 0.0947,0.063 0.0299,0.01 0.0636,-0.01 0.0947,0 0.0877,-0.061 0.0806,0.052 0.12627,0.063 0.0306,0.01 0.0637,-0.01 0.0947,0 0.0231,0 0.0421,0.021 0.0631,0.032 0.021,0.011 0.0443,0.017 0.0631,0.032 0.0238,0.018 0.0365,0.05 0.0631,0.063 0.0188,0.01 0.0427,-0.01 0.0631,0 0.0228,0.01 0.0413,0.023 0.0631,0.032 0.0309,0.012 0.0638,0.019 0.0947,0.032 0.0218,0.01 0.0421,0.021 0.0631,0.032 0.0421,0.021 0.0859,0.039 0.12627,0.063 0.0128,0.01 0.0183,0.025 0.0316,0.032 0.0298,0.015 0.0638,0.019 0.0947,0.032 0.0218,0.01 0.0403,0.026 0.0631,0.032 0.0204,0 0.0432,-0.01 0.0631,0 0.0141,0 0.0174,0.027 0.0316,0.032 0.02,0.01 0.0427,-0.01 0.0631,0 0.0456,0.011 0.0816,0.048 0.12627,0.063 0.01,0 0.0216,0 0.0316,0 0.0709,0.024 0.0858,0.059 0.15783,0.095 0.0608,0.03 0.16029,0.043 0.22097,0.063 0.0223,0.01 0.0421,0.021 0.0631,0.032 0.0316,0.01 0.0627,0.022 0.0947,0.032 0.10573,0.03 0.2131,0.054 0.31567,0.095 0.0219,0.01 0.0408,0.024 0.0631,0.032 0.11832,0.039 0.14254,0.019 0.25253,0.063 0.0637,0.025 0.0546,0.023 0.0947,0.063 0.0105,0.011 0.0192,0.023 0.0316,0.032 0.0196,0.013 0.0421,0.021 0.0631,0.032 0.021,0.011 0.0408,0.024 0.0631,0.032 0.01,0 0.0228,-0.01 0.0316,0 0.0248,0.016 0.0365,0.05 0.0631,0.063 0.0188,0.01 0.0432,-0.01 0.0631,0 0.0214,0.01 0.0706,0.083 0.0947,0.095 0.009,0.01 0.021,0 0.0316,0 0.021,0.011 0.0443,0.017 0.0631,0.032 0.0238,0.018 0.0421,0.042 0.0631,0.063 0.0105,0.01 0.0182,0.025 0.0316,0.032 0.009,0 0.0222,-0.01 0.0316,0 0.0266,0.013 0.0384,0.047 0.0631,0.063 0.0196,0.013 0.0435,0.019 0.0631,0.032 0.0124,0.01 0.0183,0.025 0.0316,0.032 0.009,0 0.0222,-0.01 0.0316,0 0.0133,0.01 0.0183,0.025 0.0316,0.032 0.009,0 0.0222,-0.01 0.0316,0 0.0133,0.01 0.0183,0.025 0.0316,0.032 0.009,0 0.0241,-0.01 0.0316,0 0.007,0.01 -0.007,0.024 0,0.032 0.0149,0.015 0.0443,-0.01 0.0631,0 0.0133,0.01 0.0183,0.025 0.0316,0.032 0.009,0 0.0221,-0.01 0.0316,0 0.0379,0.019 0.0568,0.076 0.0947,0.095 0.009,0.01 0.0241,-0.01 0.0316,0 0.0166,0.017 0.0149,0.046 0.0316,0.063 0.007,0.01 0.0222,-0.01 0.0316,0 0.0133,0.01 0.0182,0.025 0.0316,0.032 0.009,0 0.0241,-0.01 0.0316,0 0.003,0 0.004,0.077 0,0.095 -0.008,0.032 -0.0167,0.065 -0.0316,0.095 -0.017,0.034 -0.0482,0.06 -0.0631,0.095 -0.0171,0.04 -0.0178,0.085 -0.0316,0.1263 0.004,0.089 -0.0694,0.1449 -0.0947,0.2209 -0.0274,0.082 -0.0357,0.1703 -0.0631,0.2526 -0.007,0.022 -0.0228,0.041 -0.0316,0.063 -0.0124,0.031 -0.0167,0.065 -0.0316,0.095 -0.007,0.013 -0.0249,0.018 -0.0316,0.032 -0.17707,0.3541 0.16805,-0.2389 -0.0947,0.221 -0.0472,0.083 -0.11061,0.1383 -0.15783,0.2209 -0.035,0.061 -0.0584,0.1289 -0.0947,0.1894 -0.039,0.065 -0.0872,0.1244 -0.12626,0.1894 -0.0121,0.02 -0.0195,0.043 -0.0316,0.063 -0.0195,0.033 -0.0421,0.063 -0.0631,0.095 -0.021,0.032 -0.0388,0.066 -0.0631,0.095 -0.0286,0.034 -0.0699,0.058 -0.0947,0.095 -0.0185,0.028 -0.0167,0.065 -0.0316,0.095 -0.007,0.013 -0.0223,0.02 -0.0316,0.032 -0.0329,0.041 -0.0641,0.084 -0.0947,0.1263 -0.022,0.031 -0.0411,0.064 -0.0631,0.095 -0.0612,0.086 -0.12825,0.1669 -0.18941,0.2525 -0.0221,0.031 -0.0363,0.068 -0.0631,0.095 -0.0166,0.017 -0.0465,0.015 -0.0631,0.032 -0.0268,0.027 -0.0363,0.068 -0.0631,0.095 -0.0372,0.037 -0.0867,0.06 -0.12627,0.095 -0.0784,0.069 -0.14731,0.1473 -0.22097,0.221 -0.0211,0.021 -0.0421,0.042 -0.0631,0.063 -0.0105,0.011 -0.0233,0.019 -0.0316,0.032 -0.0131,0.02 -0.0149,0.046 -0.0316,0.063 -0.0166,0.017 -0.0465,0.015 -0.0631,0.032 -0.0268,0.027 -0.0363,0.068 -0.0631,0.095 -0.0268,0.027 -0.0643,0.04 -0.0947,0.063 -0.13705,0.1028 0.18135,-0.09 -0.12627,0.095 -0.0202,0.012 -0.0436,0.019 -0.0631,0.032 -0.0124,0.01 -0.0192,0.023 -0.0316,0.032 -0.0392,0.026 -0.0871,0.037 -0.12627,0.063 -0.0124,0.01 -0.0183,0.025 -0.0316,0.032 -0.009,0 -0.0216,0 -0.0316,0 -0.0446,0.015 -0.0806,0.052 -0.12627,0.063 -0.0204,0.01 -0.0432,-0.01 -0.0631,0 -0.0141,0.01 -0.0183,0.025 -0.0316,0.032 -0.009,0.01 -0.0241,-0.01 -0.0316,0 -0.007,0.01 0.007,0.024 0,0.032 -0.007,0.01 -0.0222,0 -0.0316,0 -0.0133,0.01 -0.0174,0.027 -0.0316,0.032 -0.02,0.01 -0.0432,-0.01 -0.0631,0 -0.0141,0.01 -0.0183,0.025 -0.0316,0.032 -0.009,0 -0.021,0 -0.0316,0 -0.0105,0.011 -0.0182,0.025 -0.0316,0.032 -0.0188,0.01 -0.0443,-0.01 -0.0631,0 -0.0133,0.01 -0.0183,0.025 -0.0316,0.032 -0.009,0 -0.0222,-0.01 -0.0316,0 -0.0133,0.01 -0.0183,0.025 -0.0316,0.032 -0.0188,0.01 -0.0482,-0.015 -0.0631,0 0,0.084 0.0105,-0.011 -0.0316,0.032 -0.007,0.01 0.007,0.024 0,0.032 -0.0247,0.025 -0.0549,-0.027 -0.0631,-0.032 -0.009,-0.01 -0.0241,0.01 -0.0316,0 -0.007,-0.01 0.007,-0.024 0,-0.032 -0.0166,-0.017 -0.0465,-0.015 -0.0631,-0.032 -0.0166,-0.017 -0.0149,-0.047 -0.0316,-0.063 -0.007,-0.01 -0.0228,0.01 -0.0316,0 -0.0966,-0.064 -0.0365,-0.049 -0.0947,-0.1263 -0.0179,-0.024 -0.0445,-0.04 -0.0631,-0.063 -0.0237,-0.03 -0.0394,-0.065 -0.0631,-0.095 -0.0186,-0.023 -0.0466,-0.038 -0.0631,-0.063 -0.006,-0.01 0.006,-0.023 0,-0.032 -0.0165,-0.025 -0.0453,-0.039 -0.0631,-0.063 -0.0141,-0.019 -0.0185,-0.044 -0.0316,-0.063 -0.008,-0.012 -0.021,-0.021 -0.0316,-0.032 -0.0105,-0.021 -0.0185,-0.044 -0.0316,-0.063 -0.008,-0.012 -0.0233,-0.019 -0.0316,-0.032 -0.0261,-0.039 -0.0349,-0.089 -0.0631,-0.1262 -0.0436,-0.058 -0.11126,-0.102 -0.15783,-0.1579 -0.0337,-0.04 -0.0655,-0.082 -0.0947,-0.1262 -0.0131,-0.02 -0.0149,-0.046 -0.0316,-0.063 -0.007,-0.01 -0.0241,0.01 -0.0316,0 -0.0166,-0.017 -0.0149,-0.046 -0.0316,-0.063 -0.0166,-0.017 -0.0465,-0.015 -0.0631,-0.032 -0.0166,-0.017 -0.0174,-0.044 -0.0316,-0.063 -0.0617,-0.082 -0.0641,-0.035 -0.0947,-0.1263 -0.003,-0.01 0.006,-0.023 0,-0.032 -0.0165,-0.025 -0.0453,-0.039 -0.0631,-0.063 -0.0141,-0.019 -0.0174,-0.044 -0.0316,-0.063 -0.13654,-0.1365 -0.005,0.01 -0.0947,-0.1263 -0.0248,-0.037 -0.0679,-0.059 -0.0947,-0.095 -0.0141,-0.019 -0.0174,-0.044 -0.0316,-0.063 -0.0268,-0.036 -0.0699,-0.058 -0.0947,-0.095 -0.0131,-0.02 -0.0174,-0.044 -0.0316,-0.063 -0.13654,-0.1365 -0.005,0.01 -0.0947,-0.1262 -0.031,-0.046 -0.0953,-0.08 -0.12627,-0.1263 -0.013,-0.02 -0.0174,-0.044 -0.0316,-0.063 -0.0179,-0.024 -0.0421,-0.042 -0.0631,-0.063 -0.0316,-0.032 -0.0631,-0.063 -0.0947,-0.095 -0.021,-0.021 -0.0466,-0.038 -0.0631,-0.063 -0.006,-0.01 0.006,-0.023 0,-0.032 -0.0165,-0.025 -0.0421,-0.042 -0.0631,-0.063 -0.021,-0.021 -0.0421,-0.042 -0.0631,-0.063 -0.021,-0.021 -0.0453,-0.039 -0.0631,-0.063 -0.0141,-0.019 -0.0149,-0.047 -0.0316,-0.063 -0.0166,-0.017 -0.0436,-0.018 -0.0631,-0.032 -0.0124,-0.01 -0.0192,-0.023 -0.0316,-0.032 -0.0196,-0.013 -0.0465,-0.015 -0.0631,-0.032 -0.0166,-0.017 -0.0185,-0.044 -0.0316,-0.063 -0.008,-0.012 -0.0249,-0.018 -0.0316,-0.032 -0.005,-0.01 0.005,-0.022 0,-0.032 -0.014,-0.028 -0.0755,-0.066 -0.0947,-0.095 -0.0131,-0.02 -0.0185,-0.044 -0.0316,-0.063 -0.0165,-0.025 -0.0498,-0.037 -0.0631,-0.063 -0.005,-0.01 0.007,-0.024 0,-0.032 -0.007,-0.01 -0.0241,0.01 -0.0316,0 -0.007,-0.01 0.005,-0.022 0,-0.032 -0.004,-0.01 -0.0563,-0.038 -0.0316,-0.063 0.007,-0.01 0.0222,0 0.0316,0 0.0133,-0.01 0.0197,-0.023 0.0316,-0.032 0.0304,-0.023 0.0608,-0.046 0.0947,-0.063 0.28936,-0.1447 0.0357,0.028 0.2841,-0.1579 0.0286,-0.022 0.17481,-0.1347 0.22097,-0.1578 0.1556,-0.078 0.0386,0.026 0.18941,-0.095 0.0232,-0.019 0.0421,-0.042 0.0631,-0.063 0.0737,-0.074 0.14258,-0.1524 0.22097,-0.221 0.0285,-0.025 0.0643,-0.04 0.0947,-0.063 0.0357,-0.027 0.0598,-0.067 0.0947,-0.095 0.0296,-0.024 0.0679,-0.036 0.0947,-0.063 0.0268,-0.027 0.0394,-0.065 0.0631,-0.095 0.0181,-0.023 0.16872,-0.1756 0.1894,-0.1894 0.009,-0.01 0.0241,0.01 0.0316,0 0.0166,-0.017 0.0174,-0.044 0.0316,-0.063 0.0179,-0.024 0.0453,-0.039 0.0631,-0.063 0.0141,-0.019 0.0185,-0.043 0.0316,-0.063 0.008,-0.012 0.0233,-0.019 0.0316,-0.032 0.013,-0.02 0.0174,-0.044 0.0316,-0.063 0.0179,-0.024 0.0466,-0.038 0.0631,-0.063 0.006,-0.01 0,-0.021 0,-0.032 0.0105,-0.021 0.0185,-0.044 0.0316,-0.063 0.008,-0.012 0.0269,-0.017 0.0316,-0.032 0.007,-0.02 -0.007,-0.043 0,-0.063 0.009,-0.028 0.0498,-0.036 0.0631,-0.063 0.009,-0.019 -0.007,-0.073 0,-0.095 0.007,-0.022 0.0259,-0.04 0.0316,-0.063 0.005,-0.02 -0.004,-0.043 0,-0.063 0.007,-0.033 0.0235,-0.062 0.0316,-0.095 0.003,-0.01 -0.003,-0.022 0,-0.032 0.007,-0.022 0.0241,-0.041 0.0316,-0.063 0.006,-0.018 0,-0.074 0,-0.095 0,-0.084 0,-0.1683 0,-0.2525 0,-0.01 0.001,-0.094 0,-0.095 -0.001,-10e-4 -0.0871,0 -0.0947,0 -0.0852,0 -0.0213,0 -0.1894,-0.032 z"
           id="path9890"
           inkscape:connector-curvature="0" />
        <path
           style="fill:#000000;stroke:none"
           d="m 162.91867,1118.8113 c -0.18314,0.7325 -0.01,-0.047 -0.0631,0.3788 -0.005,0.043 -0.0254,0.083 -0.0316,0.1262 -0.004,0.031 0,0.063 0,0.095 0,0.074 0,0.1473 0,0.221 0,0.053 0,0.1052 0,0.1578 0,0.021 -0.005,0.043 0,0.063 0.006,0.023 0.021,0.042 0.0316,0.063 0.0211,0.042 0.0483,0.082 0.0631,0.1263 0.003,0.01 -0.003,0.021 0,0.032 0.02,0.08 0.0583,0.1482 0.0947,0.221 0.0105,0.021 0.0211,0.042 0.0316,0.063 0.0105,0.021 0.0174,0.044 0.0316,0.063 0.0268,0.036 0.0699,0.058 0.0947,0.095 0.013,0.02 0.021,0.042 0.0316,0.063 0.0211,0.021 0.0453,0.039 0.0631,0.063 0.0141,0.019 0.0185,0.044 0.0316,0.063 0.008,0.012 0.0233,0.019 0.0316,0.032 0.0261,0.039 0.0349,0.089 0.0631,0.1262 0.0179,0.024 0.0478,0.038 0.0631,0.063 0.0171,0.029 0.0167,0.065 0.0316,0.095 0.007,0.013 0.0233,0.019 0.0316,0.032 0.013,0.02 0.0149,0.046 0.0316,0.063 0.0268,0.027 0.0679,0.036 0.0947,0.063 0.0268,0.027 0.0394,0.065 0.0631,0.095 0.0186,0.023 0.0421,0.042 0.0631,0.063 0.0316,0.032 0.0598,0.067 0.0947,0.095 0.0184,0.015 0.0448,0.017 0.0631,0.032 0.0349,0.028 0.0584,0.069 0.0947,0.095 0.0383,0.027 0.0854,0.04 0.12627,0.063 0.0329,0.019 0.0608,0.046 0.0947,0.063 0.0298,0.015 0.0649,0.017 0.0947,0.032 0.0133,0.01 0.0182,0.025 0.0316,0.032 0.0298,0.015 0.0638,0.019 0.0947,0.032 0.0411,-0.018 0.0689,0.05 0.0947,0.063 0.0298,0.015 0.0638,0.019 0.0947,0.032 0.0218,0.01 0.0413,0.023 0.0631,0.032 0.1854,0.074 0.004,7e-4 0.18941,0.032 0.0656,0.011 0.12414,0.05 0.1894,0.063 0.0206,0 0.0427,0 0.0631,0 0.0457,0.011 0.0806,0.052 0.12626,0.063 0.0204,0 0.0421,0 0.0631,0 0.0105,0 0.0222,-0.01 0.0316,0 0.0133,0.01 0.0182,0.025 0.0316,0.032 0.009,0 0.0211,0 0.0316,0 0.0105,0 0.0211,0 0.0316,0 0.0105,0 0.021,0 0.0316,0 0.0105,0 0.0316,-0.011 0.0316,0 0,0.01 -0.0241,-0.01 -0.0316,0 -0.0149,0.015 0.009,0.044 0,0.063 -0.007,0.013 -0.021,0.021 -0.0316,0.032 -0.0105,0.021 -0.0228,0.041 -0.0316,0.063 -0.0124,0.031 -0.0224,0.063 -0.0316,0.095 -0.0119,0.042 -0.0154,0.086 -0.0316,0.1263 -0.006,0.014 -0.0211,0.021 -0.0316,0.032 -0.0105,0.032 -0.025,0.062 -0.0316,0.095 -0.004,0.021 0.004,0.043 0,0.063 0.011,0.064 -0.052,0.1023 -0.0631,0.1579 -0.006,0.031 0.006,0.064 0,0.095 -0.005,0.023 -0.027,0.04 -0.0316,0.063 -0.006,0.031 0.005,0.064 0,0.095 -0.005,0.033 -0.0211,0.063 -0.0316,0.095 -0.0105,0.042 -0.0254,0.083 -0.0316,0.1262 -0.004,0.031 0.005,0.064 0,0.095 -0.005,0.033 -0.025,0.062 -0.0316,0.095 -0.004,0.021 0.004,0.043 0,0.063 -0.013,0.065 -0.047,0.1249 -0.0631,0.1894 -0.003,0.01 0.003,0.022 0,0.032 -0.0179,0.054 -0.0476,0.1034 -0.0631,0.1579 -0.006,0.02 0.003,0.042 0,0.063 -0.007,0.043 -0.0211,0.084 -0.0316,0.1262 -0.0105,0.042 -0.0197,0.085 -0.0316,0.1263 -0.009,0.032 -0.0192,0.064 -0.0316,0.095 -0.0175,0.044 -0.0517,0.081 -0.0631,0.1263 -0.005,0.02 0.005,0.043 0,0.063 -0.006,0.023 -0.0228,0.041 -0.0316,0.063 -0.0124,0.031 -0.0167,0.065 -0.0316,0.095 -0.007,0.013 -0.0249,0.018 -0.0316,0.032 -0.0149,0.03 -0.0192,0.064 -0.0316,0.095 -0.009,0.022 -0.0269,0.04 -0.0316,0.063 -0.006,0.031 0.006,0.064 0,0.095 -0.008,0.04 -0.0551,0.086 -0.0631,0.1262 -0.006,0.031 0.006,0.064 0,0.095 -0.005,0.023 -0.0228,0.041 -0.0316,0.063 -0.0123,0.031 -0.025,0.062 -0.0316,0.095 -0.004,0.021 0,0.042 0,0.063 -0.0105,0.021 -0.0241,0.041 -0.0316,0.063 -0.003,0.01 0.005,0.022 0,0.032 -0.007,0.013 -0.0249,0.018 -0.0316,0.032 -0.005,0.01 0.003,0.022 0,0.032 -0.0105,0.021 -0.021,0.042 -0.0316,0.063 0,0.01 0.003,0.022 0,0.032 -0.007,0.022 -0.0241,0.041 -0.0316,0.063 -0.003,0.01 0,0.021 0,0.032 -0.0105,0.021 -0.0241,0.041 -0.0316,0.063 -0.003,0.01 0.005,0.022 0,0.032 -0.007,0.013 -0.0269,0.017 -0.0316,0.032 -0.007,0.02 0.007,0.043 0,0.063 -0.005,0.014 -0.021,0.021 -0.0316,0.032 0,0.032 0.006,0.064 0,0.095 -0.0254,0.1271 -0.023,0.014 -0.0631,0.095 -0.005,0.01 0.007,0.024 0,0.032 -0.007,0.01 -0.0241,-0.01 -0.0316,0 -0.0149,0.015 0.009,0.044 0,0.063 -0.007,0.013 -0.0249,0.018 -0.0316,0.032 -0.005,0.01 0.007,0.024 0,0.032 -0.007,0.01 -0.0241,0.01 -0.0316,0 -0.007,-0.01 0.005,-0.022 0,-0.032 -0.007,-0.013 -0.021,-0.021 -0.0316,-0.032 -0.1933,-0.1933 0.0532,0.04 -0.12627,-0.095 -0.0238,-0.018 -0.0421,-0.042 -0.0631,-0.063 -0.0316,-0.032 -0.0668,-0.06 -0.0947,-0.095 -0.0917,-0.1145 0.0442,-0.015 -0.0947,-0.1262 -0.0296,-0.024 -0.0643,-0.04 -0.0947,-0.063 -0.0119,-0.01 -0.0197,-0.023 -0.0316,-0.032 -0.0304,-0.023 -0.0631,-0.042 -0.0947,-0.063 -0.0316,-0.021 -0.0608,-0.046 -0.0947,-0.063 -0.30456,-0.1523 0.0164,0.044 -0.12627,-0.063 -0.15513,-0.1164 -0.0354,-0.021 -0.15783,-0.095 -0.0651,-0.039 -0.12434,-0.087 -0.18941,-0.1263 -0.0202,-0.012 -0.0436,-0.018 -0.0631,-0.032 -0.0429,-0.029 -0.1645,-0.1296 -0.22097,-0.1578 -0.0298,-0.015 -0.0681,-0.012 -0.0947,-0.032 -0.0188,-0.014 -0.0149,-0.046 -0.0316,-0.063 -0.0166,-0.017 -0.043,-0.02 -0.0631,-0.032 -0.0325,-0.02 -0.0679,-0.036 -0.0947,-0.063 -0.0268,-0.027 -0.0404,-0.064 -0.0631,-0.095 -0.009,-0.012 -0.0211,-0.021 -0.0316,-0.032 -0.0316,-0.032 -0.0584,-0.069 -0.0947,-0.095 -0.0383,-0.027 -0.088,-0.036 -0.12627,-0.063 -0.0363,-0.026 -0.0604,-0.066 -0.0947,-0.095 -0.0292,-0.024 -0.0644,-0.04 -0.0947,-0.063 -0.0476,-0.036 -0.0805,-0.088 -0.12627,-0.1263 -0.0292,-0.024 -0.0679,-0.036 -0.0947,-0.063 -0.0372,-0.037 -0.0618,-0.085 -0.0947,-0.1263 -0.056,-0.07 -0.0253,0.01 -0.12626,-0.095 -0.0268,-0.027 -0.0394,-0.065 -0.0631,-0.095 -0.0519,-0.065 -0.14033,-0.1239 -0.1894,-0.1894 -0.0141,-0.019 -0.0185,-0.044 -0.0316,-0.063 -0.0631,-0.095 0,0.063 -0.0947,-0.095 -0.0171,-0.028 -0.0167,-0.065 -0.0316,-0.095 -0.0339,-0.068 -0.0872,-0.1243 -0.12627,-0.1894 -0.0358,-0.06 -0.0635,-0.1271 -0.0947,-0.1894 -0.0211,-0.042 -0.0457,-0.083 -0.0631,-0.1262 -0.0247,-0.062 -0.0384,-0.1277 -0.0631,-0.1895 -0.009,-0.022 -0.0228,-0.041 -0.0316,-0.063 -0.0123,-0.031 -0.0192,-0.064 -0.0316,-0.095 -0.009,-0.022 -0.0241,-0.041 -0.0316,-0.063 -0.003,-0.01 0,-0.021 0,-0.032 0,-0.032 0.006,-0.064 0,-0.095 -0.005,-0.023 -0.0211,-0.042 -0.0316,-0.063 -0.0105,-0.032 -0.0261,-0.062 -0.0316,-0.095 -0.005,-0.031 0,-0.063 0,-0.095 0,-0.032 0,-0.063 0,-0.095 0,-0.01 0.003,-0.022 0,-0.032 -0.007,-0.022 -0.0269,-0.04 -0.0316,-0.063 -0.0248,-0.04 0.008,-0.085 0,-0.1262 -0.10007,-0.4003 0.025,0.1433 -0.0316,-0.2526 -0.005,-0.033 -0.025,-0.062 -0.0316,-0.095 -0.008,-0.041 0.0133,-0.086 0,-0.1262 -0.005,-0.014 -0.0269,-0.017 -0.0316,-0.032 -0.0133,-0.04 0.008,-0.085 0,-0.1263 -0.007,-0.033 -0.025,-0.062 -0.0316,-0.095 -0.004,-0.021 0,-0.042 0,-0.063 0,-0.063 0,-0.1263 0,-0.1894 0,-0.032 0.006,-0.064 0,-0.095 -0.005,-0.023 -0.0277,-0.04 -0.0316,-0.063 -0.007,-0.042 0,-0.084 0,-0.1263 0,-0.095 0,-0.1894 0,-0.2841 0,-0.084 0,-0.1683 0,-0.2525 0,-0.042 -0.006,-0.085 0,-0.1263 0.005,-0.033 0.0261,-0.062 0.0316,-0.095 0.005,-0.031 -0.005,-0.064 0,-0.095 0.005,-0.033 0.025,-0.062 0.0316,-0.095 0.004,-0.021 0,-0.042 0,-0.063 0.0105,-0.074 0.0154,-0.1483 0.0316,-0.221 0.005,-0.023 0.0259,-0.04 0.0316,-0.063 0.0155,-0.062 0.0201,-0.1264 0.0316,-0.1894 0.01,-0.053 0.024,-0.1047 0.0316,-0.1578 0.005,-0.038 -0.009,-0.1616 0,-0.1894 0.005,-0.014 0.0249,-0.018 0.0316,-0.032 0.005,-0.01 -0.007,-0.024 0,-0.032 0.007,-0.01 0.0211,0 0.0316,0 0.0105,0 0.0216,0 0.0316,0 0.0223,0.01 0.0403,0.026 0.0631,0.032 0.0204,0.01 0.0427,0 0.0631,0 0.14509,0.036 0.007,0.032 0.0947,0.032 0.2237,0 -0.0536,-0.01 0.22097,0.032 0.0312,0 0.0631,0 0.0947,0 0.0316,0 0.0631,0 0.0947,0 0.0211,0 0.0427,0.01 0.0631,0 0.0228,-0.01 0.0403,-0.026 0.0631,-0.032 0.0261,-0.01 0.22023,0 0.25254,0 0.12627,0 0.25254,0 0.37881,0 0.11574,0 0.23149,0 0.34724,0 0.021,0 0.0421,0 0.0631,0 0.0211,0 0.0432,-0.01 0.0631,0 0.11703,0.039 -0.0385,0.032 0.0631,0.032 0.0105,0 0.021,0 0.0316,0 0.0105,0 0.0222,0 0.0316,0 0.0133,0.01 0.0183,0.025 0.0316,0.032 0.0199,0.01 0.13792,-0.01 0.15784,0 0.0133,0.01 0.0182,0.025 0.0316,0.032 0.009,0 0.0211,0 0.0316,0 0.0105,0 0.0241,0.01 0.0316,0 0.007,-0.01 0,-0.021 0,-0.032 0,-0.053 0,-0.1052 0,-0.1578 z"
           id="path9892"
           inkscape:connector-curvature="0" />
      </g>
    </g>
  </g>
</svg>
