<?xml version="1.0" encoding="UTF-8" standalone="no"?>
<!-- Created with Inkscape (http://www.inkscape.org/) -->

<svg
   xmlns:dc="http://purl.org/dc/elements/1.1/"
   xmlns:cc="http://creativecommons.org/ns#"
   xmlns:rdf="http://www.w3.org/1999/02/22-rdf-syntax-ns#"
   xmlns:svg="http://www.w3.org/2000/svg"
   xmlns="http://www.w3.org/2000/svg"
   xmlns:xlink="http://www.w3.org/1999/xlink"
   xmlns:sodipodi="http://sodipodi.sourceforge.net/DTD/sodipodi-0.dtd"
   xmlns:inkscape="http://www.inkscape.org/namespaces/inkscape"
   width="475"
   height="192"
   id="svg9267"
   version="1.1"
   inkscape:version="0.48.4 r"
   sodipodi:docname="screen.svg"
   inkscape:export-filename="C:\Users\Bob\Cpp\ld32\resources\screen.png"
   inkscape:export-xdpi="90"
   inkscape:export-ydpi="90">
  <defs
     id="defs9269">
    <pattern
       inkscape:collect="always"
       xlink:href="#Strips1_2"
       id="pattern9829"
       patternTransform="matrix(0.01357627,1.8950847,20.288028,-0.14534218,0,0)" />
    <pattern
       inkscape:stockid="Stripes 1:2"
       id="Strips1_2"
       patternTransform="translate(0,0) scale(10,10)"
       height="1"
       width="3"
       patternUnits="userSpaceOnUse"
       inkscape:collect="always">
      <rect
         id="rect4532"
         height="2"
         width="1"
         y="-0.5"
         x="0"
         style="fill:black;stroke:none" />
    </pattern>
    <pattern
       patternUnits="userSpaceOnUse"
       width="39.4375"
       height="93"
       patternTransform="translate(-186.5,903)"
       id="pattern9805">
      <rect
         y="0.65966797"
         x="0.65460205"
         height="91.690788"
         width="12.405069"
         id="rect9799"
         style="fill:#008000;fill-opacity:1;stroke:#008000;stroke-width:1.32378864;stroke-miterlimit:4;stroke-opacity:1;stroke-dasharray:none" />
      <rect
         style="fill:#008000;fill-opacity:1;stroke:#008000;stroke-width:1.32378864;stroke-miterlimit:4;stroke-opacity:1;stroke-dasharray:none"
         id="rect9803"
         width="12.405069"
         height="91.690788"
         x="26.368881"
         y="0.65966797" />
    </pattern>
  </defs>
  <sodipodi:namedview
     id="base"
     pagecolor="#ffffff"
     bordercolor="#666666"
     borderopacity="1.0"
     inkscape:pageopacity="0.0"
     inkscape:pageshadow="2"
     inkscape:zoom="1.979899"
     inkscape:cx="245.90979"
     inkscape:cy="32.927973"
     inkscape:document-units="px"
     inkscape:current-layer="layer1"
     showgrid="false"
     borderlayer="true"
     inkscape:window-width="1920"
     inkscape:window-height="1051"
     inkscape:window-x="-9"
     inkscape:window-y="-9"
     inkscape:window-maximized="1" />
  <metadata
     id="metadata9272">
    <rdf:RDF>
      <cc:Work
         rdf:about="">
        <dc:format>image/svg+xml</dc:format>
        <dc:type
           rdf:resource="http://purl.org/dc/dcmitype/StillImage" />
        <dc:title />
      </cc:Work>
    </rdf:RDF>
  </metadata>
  <g
     inkscape:label="Layer 1"
     inkscape:groupmode="layer"
     id="layer1"
     transform="translate(0,-860.36217)">
    <rect
       style="fill:#000000;fill-opacity:1;stroke:#aa8800;stroke-width:2.27301692999999980;stroke-miterlimit:4;stroke-opacity:1;stroke-dasharray:none"
       id="rect9275"
       width="542.1701"
       height="240.74156"
       x="-14.656491"
       y="844.84851" />
    <g
       id="g9839"
       transform="matrix(0.97203875,0,0,0.92525306,6.3782711,72.37821)">
      <rect
         transform="translate(0,860.36217)"
         y="14.142857"
         x="12.142858"
         height="164.28572"
         width="450"
         id="rect9277"
         style="fill:#004600;fill-opacity:1;stroke:#004600;stroke-width:1.58599997;stroke-miterlimit:4;stroke-opacity:1;stroke-dasharray:none" />
      <rect
         transform="translate(0,860.36217)"
         style="fill:url(#pattern9829);fill-opacity:1;stroke:#004600;stroke-width:1.58599997;stroke-miterlimit:4;stroke-opacity:1;stroke-dasharray:none"
         id="rect9815"
         width="450"
         height="164.28572"
         x="12.142858"
         y="14.142857" />
    </g>
    <g
       id="g9904">
      <g
         transform="matrix(0.91954383,0,0,0.91954383,52.423985,15.07569)"
         id="g9894">
        <path
           sodipodi:type="arc"
           style="fill:#999999;fill-opacity:1;stroke:#999999;stroke-width:1.58599997;stroke-miterlimit:4;stroke-opacity:1;stroke-dasharray:none"
           id="path9862"
           sodipodi:cx="165.28621"
           sodipodi:cy="184.29759"
           sodipodi:rx="1.8940361"
           sodipodi:ry="1.8940361"
           d="m 167.18025,184.29759 c 0,1.04605 -0.84799,1.89404 -1.89404,1.89404 -1.04605,0 -1.89404,-0.84799 -1.89404,-1.89404 0,-1.04605 0.84799,-1.89403 1.89404,-1.89403 1.04605,0 1.89404,0.84798 1.89404,1.89403 z"
           transform="translate(1.2626907,934.35584)" />
        <path
           style="fill:#999999;stroke:none"
           d="m 163.92882,1116.3806 c 0.0105,-0.042 0.0122,-0.087 0.0316,-0.1263 0.01,-0.019 0.14021,-0.1402 0.15783,-0.1578 0.0147,-0.015 0.13574,-0.1358 0.15784,-0.1579 0.021,-0.021 0.0393,-0.045 0.0631,-0.063 0.0823,-0.062 0.0439,0 0.12627,-0.063 0.24663,-0.1849 -0.14395,0.056 0.15784,-0.095 0.0339,-0.017 0.0631,-0.042 0.0947,-0.063 0.0316,-0.021 0.0631,-0.042 0.0947,-0.063 0.0316,-0.021 0.0595,-0.049 0.0947,-0.063 0.0195,-0.01 0.0436,0.01 0.0631,0 0.0352,-0.014 0.0622,-0.044 0.0947,-0.063 0.0202,-0.012 0.0421,-0.021 0.0631,-0.032 0.0211,-0.011 0.0403,-0.026 0.0631,-0.032 0.0204,-0.01 0.0427,0 0.0631,0 0.0228,-0.01 0.0413,-0.023 0.0631,-0.032 0.0309,-0.012 0.0631,-0.021 0.0947,-0.032 0.0316,-0.01 0.0624,-0.024 0.0947,-0.032 0.0102,0 0.0216,0 0.0316,0 0.0538,-0.018 0.10335,-0.048 0.15784,-0.063 0.0202,-0.01 0.0425,0 0.0631,0 0.327,-0.109 -0.13054,0.032 0.1894,-0.032 0.0231,-0.01 0.0413,-0.023 0.0631,-0.032 0.046,-0.018 0.17952,-0.059 0.22097,-0.063 0.48119,-0.053 -0.0755,0.05 0.25254,-0.032 0.0204,0 0.0421,0 0.0631,0 0.0421,0 0.0842,0 0.12627,0 0.0211,0 0.0425,0 0.0631,0 0.0326,-0.01 0.0619,-0.026 0.0947,-0.032 0.0311,0 0.0631,0 0.0947,0 0.0737,0 0.14731,0 0.22097,0 0.0526,0 0.10522,0 0.15784,0 0.021,0 0.0425,0 0.0631,0 0.0326,0.01 0.0624,0.024 0.0947,0.032 0.0102,0 0.0214,0 0.0316,0 0.0323,0.01 0.0624,0.024 0.0947,0.032 0.0102,0 0.0222,0 0.0316,0 0.0133,0.01 0.0175,0.027 0.0316,0.032 0.02,0.01 0.0425,0 0.0631,0 0.0326,0.01 0.0631,0.021 0.0947,0.032 0.0675,0.023 0.15161,0.053 0.22097,0.063 0.0312,0 0.0641,-0.01 0.0947,0 0.004,10e-4 0.054,0.057 0.0631,0.063 0.0464,0.031 0.1065,0.046 0.15784,0.063 0.0316,0.011 0.0624,0.024 0.0947,0.032 0.0102,0 0.0216,0 0.0316,0 0.0446,0.015 0.0816,0.048 0.12627,0.063 0.01,0 0.0216,0 0.0316,0 0.0223,0.01 0.0436,0.019 0.0631,0.032 0.0124,0.01 0.0174,0.027 0.0316,0.032 0.02,0.01 0.0443,-0.01 0.0631,0 0.009,0.01 -0.005,0.022 0,0.032 0.007,0.013 0.0192,0.023 0.0316,0.032 0.0196,0.013 0.0436,0.018 0.0631,0.032 0.0124,0.01 0.0192,0.023 0.0316,0.032 0.11466,0.076 0.0223,-0.01 0.0947,0.063 0.0105,0.011 0.021,0.021 0.0316,0.032 0.0105,0.011 0.0182,0.025 0.0316,0.032 0.009,0.01 0.0222,0 0.0316,0 0.13138,0.066 -0.0337,0 0.0316,0.063 0.007,0.01 0.0241,-0.01 0.0316,0 0.007,0.01 -0.007,0.024 0,0.032 0.007,0.01 0.0241,-0.01 0.0316,0 0.007,0.01 -0.007,0.024 0,0.032 0.007,0.01 0.0241,0.01 0.0316,0 0.007,-0.01 -0.007,-0.024 0,-0.032 0.0166,-0.017 0.0465,-0.015 0.0631,-0.032 0.0166,-0.017 0.0195,-0.043 0.0316,-0.063 0.0195,-0.033 0.0394,-0.065 0.0631,-0.095 0.0186,-0.023 0.0478,-0.038 0.0631,-0.063 0.0171,-0.028 0.0167,-0.065 0.0316,-0.095 0.007,-0.013 0.0226,-0.02 0.0316,-0.032 0.0228,-0.03 0.0421,-0.063 0.0631,-0.095 0.021,-0.032 0.0421,-0.063 0.0631,-0.095 0.0211,-0.042 0.0382,-0.086 0.0631,-0.1262 0.0158,-0.094 0.11225,-0.121 0.15783,-0.1894 0.0261,-0.039 0.0398,-0.085 0.0631,-0.1263 0.0188,-0.033 0.0436,-0.062 0.0631,-0.095 0.0363,-0.061 0.0631,-0.1263 0.0947,-0.1894 0.021,-0.042 0.037,-0.087 0.0631,-0.1263 0.0165,-0.025 0.0466,-0.038 0.0631,-0.063 0.0261,-0.039 0.0358,-0.088 0.0631,-0.1262 0.0259,-0.036 0.0687,-0.058 0.0947,-0.095 5.3e-4,-8e-4 0.12468,-0.2497 0.12627,-0.2526 0.0298,-0.054 0.0643,-0.1045 0.0947,-0.1578 0.035,-0.061 0.0597,-0.1282 0.0947,-0.1894 0.0188,-0.033 0.0436,-0.062 0.0631,-0.095 0.0463,-0.077 0.0168,-0.049 0.0631,-0.1263 0.0558,-0.093 0.091,-0.1274 0.15784,-0.221 0.0221,-0.031 0.0394,-0.065 0.0631,-0.095 0.0186,-0.023 0.0441,-0.04 0.0631,-0.063 0.0679,-0.063 0.10129,-0.1502 0.15783,-0.2209 0.17305,-0.2163 -0.0239,0.071 0.0947,-0.1263 0.1147,-0.1912 0.005,0 0.15783,-0.1894 0.0147,-0.018 0.0211,-0.042 0.0316,-0.063 0.021,-0.032 0.0388,-0.066 0.0631,-0.095 0.0286,-0.034 0.0668,-0.06 0.0947,-0.095 0.0147,-0.018 0.0185,-0.043 0.0316,-0.063 0.008,-0.012 0.0249,-0.018 0.0316,-0.032 0.005,-0.01 -0.005,-0.022 0,-0.032 0.008,-0.017 0.0781,-0.078 0.0947,-0.095 0.1047,-0.1047 -0.0149,0.03 0.0316,-0.063 0.0657,-0.1314 -0.002,0.034 0.0631,-0.032 0.007,-0.01 0.007,-0.024 0,-0.032 -0.007,-0.01 -0.0241,0.01 -0.0316,0 -0.007,-0.01 0.007,-0.024 0,-0.032 -0.007,-0.01 -0.0241,0.01 -0.0316,0 -0.007,-0.01 0,-0.021 0,-0.032 -0.0105,-0.01 -0.0192,-0.023 -0.0316,-0.032 -0.0196,-0.013 -0.0436,-0.018 -0.0631,-0.032 -0.0124,-0.01 -0.0183,-0.025 -0.0316,-0.032 -0.0298,-0.015 -0.0662,-0.014 -0.0947,-0.032 -0.0255,-0.015 -0.0376,-0.048 -0.0631,-0.063 -0.0285,-0.017 -0.0631,-0.021 -0.0947,-0.032 -0.0316,-0.01 -0.0631,-0.021 -0.0947,-0.032 -0.0316,-0.01 -0.0649,-0.017 -0.0947,-0.032 -0.0133,-0.01 -0.0178,-0.026 -0.0316,-0.032 -0.0806,-0.032 -0.17278,-0.029 -0.25254,-0.063 -0.0349,-0.015 -0.0595,-0.049 -0.0947,-0.063 -0.0195,-0.01 -0.0425,0 -0.0631,0 -0.0326,-0.01 -0.0631,-0.021 -0.0947,-0.032 -0.0631,-0.021 -0.12824,-0.037 -0.18941,-0.063 -0.0433,-0.019 -0.0822,-0.047 -0.12627,-0.063 -0.0406,-0.015 -0.0851,-0.018 -0.12627,-0.032 -0.0223,-0.01 -0.0408,-0.024 -0.0631,-0.032 -0.1796,-0.06 -0.069,0 -0.22097,-0.063 -0.0736,-0.029 -0.0681,-0.048 -0.15784,-0.063 -0.0311,-0.01 -0.0637,0.01 -0.0947,0 -0.0231,-0.01 -0.0413,-0.023 -0.0631,-0.032 -0.0309,-0.012 -0.0638,-0.019 -0.0947,-0.032 -0.0218,-0.01 -0.0401,-0.027 -0.0631,-0.032 -0.031,-0.01 -0.0636,0.01 -0.0947,0 -0.0328,0 -0.0619,-0.026 -0.0947,-0.032 -0.0311,0 -0.0634,0 -0.0947,0 -0.0532,-0.01 -0.10451,-0.026 -0.15783,-0.032 -0.0627,-0.01 -0.12713,0.01 -0.18941,0 -0.0428,-0.01 -0.0832,-0.026 -0.12627,-0.032 -0.0835,-0.01 -0.1692,0.012 -0.25253,0 -0.0329,-0.01 -0.0618,-0.027 -0.0947,-0.032 -0.0417,-0.01 -0.0842,0 -0.12626,0 -0.0421,-0.011 -0.0835,-0.024 -0.12627,-0.032 -0.0623,-0.01 -0.12691,0.01 -0.18941,0 -0.0329,-0.01 -0.0621,-0.025 -0.0947,-0.032 -0.0342,-0.01 -0.18723,0 -0.22097,0 -0.021,0 -0.0425,0 -0.0631,0 -0.0326,-0.01 -0.0618,-0.027 -0.0947,-0.032 -0.0417,-0.01 -0.0842,0 -0.12627,0 -0.0631,0 -0.12626,0 -0.1894,0 -0.0737,0 -0.14731,0 -0.22097,0 -0.0421,0 -0.0844,0 -0.12627,0 -0.10665,0.012 -0.20982,0.045 -0.31567,0.063 -0.0104,0 -0.0214,0 -0.0316,0 -0.0323,0.01 -0.0619,0.026 -0.0947,0.032 -0.0519,0.01 -0.10625,-0.01 -0.15784,0 -0.0326,0.01 -0.0619,0.026 -0.0947,0.032 -0.0311,0.01 -0.0641,-0.01 -0.0947,0 -0.0144,0 -0.021,0.021 -0.0316,0.032 -0.0421,0.011 -0.0832,0.026 -0.12627,0.032 -0.0418,0.01 -0.0845,0 -0.12627,0 -0.043,0.01 -0.0842,0.021 -0.12626,0.032 -0.0421,0.011 -0.0851,0.018 -0.12627,0.032 -0.0223,0.01 -0.0408,0.024 -0.0631,0.032 -0.0412,0.014 -0.0846,0.02 -0.12627,0.032 -0.064,0.018 -0.12484,0.047 -0.1894,0.063 -0.0102,0 -0.0211,0 -0.0316,0 -0.0316,0.011 -0.0638,0.019 -0.0947,0.032 -0.0871,0.035 -0.16546,0.091 -0.25254,0.1263 -0.01,0 -0.0222,-0.01 -0.0316,0 -0.0339,0.017 -0.0608,0.046 -0.0947,0.063 -0.0298,0.015 -0.0649,0.017 -0.0947,0.032 -0.0339,0.017 -0.0622,0.044 -0.0947,0.063 -0.0202,0.012 -0.0436,0.018 -0.0631,0.032 -0.16315,0.1087 -0.0799,0.084 -0.25253,0.1578 -0.0306,0.013 -0.0649,0.017 -0.0947,0.032 -0.14822,0.074 -0.0397,0.047 -0.15783,0.095 -0.0309,0.012 -0.0649,0.017 -0.0947,0.032 -0.0133,0.01 -0.0197,0.023 -0.0316,0.032 -0.0303,0.023 -0.0618,0.044 -0.0947,0.063 -0.45982,0.2628 0.13318,-0.082 -0.22097,0.095 -0.0133,0.01 -0.0211,0.021 -0.0316,0.032 -0.0211,0.011 -0.0413,0.023 -0.0631,0.032 -0.0455,0.018 -0.11553,0.031 -0.15783,0.063 -0.0238,0.018 -0.0376,0.048 -0.0631,0.063 -0.0285,0.017 -0.0649,0.017 -0.0947,0.032 -0.0133,0.01 -0.0197,0.023 -0.0316,0.032 -0.31303,0.2348 0.0625,-0.052 -0.15783,0.095 -0.0371,0.025 -0.0598,0.067 -0.0947,0.095 -0.0296,0.024 -0.0638,0.041 -0.0947,0.063 -0.0428,0.031 -0.0834,0.064 -0.12626,0.095 -0.0309,0.022 -0.0643,0.04 -0.0947,0.063 -0.0119,0.01 -0.021,0.021 -0.0316,0.032 -0.021,0.021 -0.0466,0.038 -0.0631,0.063 -0.006,0.01 0.007,0.024 0,0.032 -0.007,0.01 -0.0222,-0.01 -0.0316,0 -0.0133,0.01 -0.021,0.021 -0.0316,0.032 -0.0105,0.01 -0.0211,0.021 -0.0316,0.032 -0.0316,0.032 -0.0631,0.063 -0.0947,0.095 -0.0211,0.021 -0.0393,0.045 -0.0631,0.063 -0.0188,0.014 -0.0436,0.018 -0.0631,0.032 -0.0124,0.01 -0.0192,0.023 -0.0316,0.032 -0.0392,0.026 -0.0871,0.037 -0.12627,0.063 -0.0725,0.048 0.0135,0.018 -0.0631,0.095 -0.0385,0.038 -0.0705,0.015 -0.0947,0.063 -0.005,0.01 -0.005,0.022 0,0.032 0.0131,0.026 0.11077,0.1005 0.12627,0.1263 0.0171,0.028 0.0144,0.066 0.0316,0.095 0.0153,0.025 0.0421,0.042 0.0631,0.063 0.0316,0.032 0.0631,0.063 0.0947,0.095 0.13654,0.1365 0.005,-0.01 0.0947,0.1262 0.008,0.012 0.0211,0.021 0.0316,0.032 0.0316,0.032 0.0668,0.06 0.0947,0.095 0.0147,0.018 0.0185,0.044 0.0316,0.063 0.0483,0.072 0.018,-0.014 0.0947,0.063 0.0166,0.017 0.0185,0.044 0.0316,0.063 0.0165,0.025 0.0498,0.037 0.0631,0.063 0.0389,0.078 -0.0916,-0.029 0.0316,0.095 0.007,0.01 0.0257,-0.01 0.0316,0 0.0185,0.028 0.0167,0.065 0.0316,0.095 0.007,0.013 0.0233,0.019 0.0316,0.032 0.0491,0.074 0.0771,0.1789 0.12627,0.2526 0.008,0.012 0.0249,0.018 0.0316,0.032 0.0903,0.1807 -0.0196,0.02 0.0631,0.1578 -0.007,0.065 0.0669,0.084 0.0947,0.1263 0.0261,0.039 0.037,0.087 0.0631,0.1263 0.008,0.012 0.0233,0.019 0.0316,0.032 0.0131,0.02 0.0185,0.043 0.0316,0.063 0.008,0.012 0.0233,0.019 0.0316,0.032 0.0598,0 0.021,0.074 0.0316,0.095 0.007,0.013 0.0233,0.019 0.0316,0.032 0.0598,0 0.0211,0.074 0.0316,0.095 0.007,0.013 0.0249,0.018 0.0316,0.032 0.005,0.01 -0.005,0.022 0,0.032 0.007,0.013 0.0233,0.019 0.0316,0.032 0.0131,0.02 0.0185,0.044 0.0316,0.063 0.008,0.012 0.0249,0.018 0.0316,0.032 0.039,0.117 0.0167,0.065 0.0631,0.1578 0.0105,0.021 0.0185,0.044 0.0316,0.063 0.008,0.012 0.0269,0.017 0.0316,0.032 0.007,0.02 -0.007,0.043 0,0.063 0.005,0.014 0.0249,0.018 0.0316,0.032 0.005,0.01 -0.005,0.022 0,0.032 0.0133,0.027 0.0498,0.036 0.0631,0.063 0.009,0.019 -0.009,0.044 0,0.063 0.0121,0.024 0.0876,0.073 0.0947,0.095 0.039,0.117 -0.0425,0.021 0.0316,0.095 0.0105,0.011 0.021,0.021 0.0316,0.032 0,0.01 -0.007,0.024 0,0.032 0.007,0.01 0.0241,-0.01 0.0316,0 0.007,0.01 -0.005,0.022 0,0.032 0.007,0.013 0.0249,0.018 0.0316,0.032 0.005,0.01 -0.0105,0.032 0,0.032 0.27277,0 0.14309,-0.076 0.0631,-0.3157"
           id="path9888"
           inkscape:connector-curvature="0" />
        <path
           style="fill:#999999;stroke:none"
           d="m 169.8319,1119.2532 c 0.0526,0.01 0.10522,0.021 0.15783,0.032 0.0316,0 0.0636,0 0.0947,0 0.0328,0.01 0.0631,0.021 0.0947,0.032 0.0316,0.011 0.0649,0.017 0.0947,0.032 0.0339,0.017 0.0587,0.051 0.0947,0.063 0.0299,0.01 0.0636,-0.01 0.0947,0 0.0877,-0.061 0.0806,0.052 0.12627,0.063 0.0306,0.01 0.0637,-0.01 0.0947,0 0.0231,0 0.0421,0.021 0.0631,0.032 0.021,0.011 0.0443,0.017 0.0631,0.032 0.0238,0.018 0.0365,0.05 0.0631,0.063 0.0188,0.01 0.0427,-0.01 0.0631,0 0.0228,0.01 0.0413,0.023 0.0631,0.032 0.0309,0.012 0.0638,0.019 0.0947,0.032 0.0218,0.01 0.0421,0.021 0.0631,0.032 0.0421,0.021 0.0859,0.039 0.12627,0.063 0.0128,0.01 0.0183,0.025 0.0316,0.032 0.0298,0.015 0.0638,0.019 0.0947,0.032 0.0218,0.01 0.0403,0.026 0.0631,0.032 0.0204,0 0.0432,-0.01 0.0631,0 0.0141,0 0.0174,0.027 0.0316,0.032 0.02,0.01 0.0427,-0.01 0.0631,0 0.0456,0.011 0.0816,0.048 0.12627,0.063 0.01,0 0.0216,0 0.0316,0 0.0709,0.024 0.0858,0.059 0.15783,0.095 0.0608,0.03 0.16029,0.043 0.22097,0.063 0.0223,0.01 0.0421,0.021 0.0631,0.032 0.0316,0.01 0.0627,0.022 0.0947,0.032 0.10573,0.03 0.2131,0.054 0.31567,0.095 0.0219,0.01 0.0408,0.024 0.0631,0.032 0.11832,0.039 0.14254,0.019 0.25253,0.063 0.0637,0.025 0.0546,0.023 0.0947,0.063 0.0105,0.011 0.0192,0.023 0.0316,0.032 0.0196,0.013 0.0421,0.021 0.0631,0.032 0.021,0.011 0.0408,0.024 0.0631,0.032 0.01,0 0.0228,-0.01 0.0316,0 0.0248,0.016 0.0365,0.05 0.0631,0.063 0.0188,0.01 0.0432,-0.01 0.0631,0 0.0214,0.01 0.0706,0.083 0.0947,0.095 0.009,0.01 0.021,0 0.0316,0 0.021,0.011 0.0443,0.017 0.0631,0.032 0.0238,0.018 0.0421,0.042 0.0631,0.063 0.0105,0.01 0.0182,0.025 0.0316,0.032 0.009,0 0.0222,-0.01 0.0316,0 0.0266,0.013 0.0384,0.047 0.0631,0.063 0.0196,0.013 0.0435,0.019 0.0631,0.032 0.0124,0.01 0.0183,0.025 0.0316,0.032 0.009,0 0.0222,-0.01 0.0316,0 0.0133,0.01 0.0183,0.025 0.0316,0.032 0.009,0 0.0222,-0.01 0.0316,0 0.0133,0.01 0.0183,0.025 0.0316,0.032 0.009,0 0.0241,-0.01 0.0316,0 0.007,0.01 -0.007,0.024 0,0.032 0.0149,0.015 0.0443,-0.01 0.0631,0 0.0133,0.01 0.0183,0.025 0.0316,0.032 0.009,0 0.0221,-0.01 0.0316,0 0.0379,0.019 0.0568,0.076 0.0947,0.095 0.009,0.01 0.0241,-0.01 0.0316,0 0.0166,0.017 0.0149,0.046 0.0316,0.063 0.007,0.01 0.0222,-0.01 0.0316,0 0.0133,0.01 0.0182,0.025 0.0316,0.032 0.009,0 0.0241,-0.01 0.0316,0 0.003,0 0.004,0.077 0,0.095 -0.008,0.032 -0.0167,0.065 -0.0316,0.095 -0.017,0.034 -0.0482,0.06 -0.0631,0.095 -0.0171,0.04 -0.0178,0.085 -0.0316,0.1263 0.004,0.089 -0.0694,0.1449 -0.0947,0.2209 -0.0274,0.082 -0.0357,0.1703 -0.0631,0.2526 -0.007,0.022 -0.0228,0.041 -0.0316,0.063 -0.0124,0.031 -0.0167,0.065 -0.0316,0.095 -0.007,0.013 -0.0249,0.018 -0.0316,0.032 -0.17707,0.3541 0.16805,-0.2389 -0.0947,0.221 -0.0472,0.083 -0.11061,0.1383 -0.15783,0.2209 -0.035,0.061 -0.0584,0.1289 -0.0947,0.1894 -0.039,0.065 -0.0872,0.1244 -0.12626,0.1894 -0.0121,0.02 -0.0195,0.043 -0.0316,0.063 -0.0195,0.033 -0.0421,0.063 -0.0631,0.095 -0.021,0.032 -0.0388,0.066 -0.0631,0.095 -0.0286,0.034 -0.0699,0.058 -0.0947,0.095 -0.0185,0.028 -0.0167,0.065 -0.0316,0.095 -0.007,0.013 -0.0223,0.02 -0.0316,0.032 -0.0329,0.041 -0.0641,0.084 -0.0947,0.1263 -0.022,0.031 -0.0411,0.064 -0.0631,0.095 -0.0612,0.086 -0.12825,0.1669 -0.18941,0.2525 -0.0221,0.031 -0.0363,0.068 -0.0631,0.095 -0.0166,0.017 -0.0465,0.015 -0.0631,0.032 -0.0268,0.027 -0.0363,0.068 -0.0631,0.095 -0.0372,0.037 -0.0867,0.06 -0.12627,0.095 -0.0784,0.069 -0.14731,0.1473 -0.22097,0.221 -0.0211,0.021 -0.0421,0.042 -0.0631,0.063 -0.0105,0.011 -0.0233,0.019 -0.0316,0.032 -0.0131,0.02 -0.0149,0.046 -0.0316,0.063 -0.0166,0.017 -0.0465,0.015 -0.0631,0.032 -0.0268,0.027 -0.0363,0.068 -0.0631,0.095 -0.0268,0.027 -0.0643,0.04 -0.0947,0.063 -0.13705,0.1028 0.18135,-0.09 -0.12627,0.095 -0.0202,0.012 -0.0436,0.019 -0.0631,0.032 -0.0124,0.01 -0.0192,0.023 -0.0316,0.032 -0.0392,0.026 -0.0871,0.037 -0.12627,0.063 -0.0124,0.01 -0.0183,0.025 -0.0316,0.032 -0.009,0 -0.0216,0 -0.0316,0 -0.0446,0.015 -0.0806,0.052 -0.12627,0.063 -0.0204,0.01 -0.0432,-0.01 -0.0631,0 -0.0141,0.01 -0.0183,0.025 -0.0316,0.032 -0.009,0.01 -0.0241,-0.01 -0.0316,0 -0.007,0.01 0.007,0.024 0,0.032 -0.007,0.01 -0.0222,0 -0.0316,0 -0.0133,0.01 -0.0174,0.027 -0.0316,0.032 -0.02,0.01 -0.0432,-0.01 -0.0631,0 -0.0141,0.01 -0.0183,0.025 -0.0316,0.032 -0.009,0 -0.021,0 -0.0316,0 -0.0105,0.011 -0.0182,0.025 -0.0316,0.032 -0.0188,0.01 -0.0443,-0.01 -0.0631,0 -0.0133,0.01 -0.0183,0.025 -0.0316,0.032 -0.009,0 -0.0222,-0.01 -0.0316,0 -0.0133,0.01 -0.0183,0.025 -0.0316,0.032 -0.0188,0.01 -0.0482,-0.015 -0.0631,0 0,0.084 0.0105,-0.011 -0.0316,0.032 -0.007,0.01 0.007,0.024 0,0.032 -0.0247,0.025 -0.0549,-0.027 -0.0631,-0.032 -0.009,-0.01 -0.0241,0.01 -0.0316,0 -0.007,-0.01 0.007,-0.024 0,-0.032 -0.0166,-0.017 -0.0465,-0.015 -0.0631,-0.032 -0.0166,-0.017 -0.0149,-0.047 -0.0316,-0.063 -0.007,-0.01 -0.0228,0.01 -0.0316,0 -0.0966,-0.064 -0.0365,-0.049 -0.0947,-0.1263 -0.0179,-0.024 -0.0445,-0.04 -0.0631,-0.063 -0.0237,-0.03 -0.0394,-0.065 -0.0631,-0.095 -0.0186,-0.023 -0.0466,-0.038 -0.0631,-0.063 -0.006,-0.01 0.006,-0.023 0,-0.032 -0.0165,-0.025 -0.0453,-0.039 -0.0631,-0.063 -0.0141,-0.019 -0.0185,-0.044 -0.0316,-0.063 -0.008,-0.012 -0.021,-0.021 -0.0316,-0.032 -0.0105,-0.021 -0.0185,-0.044 -0.0316,-0.063 -0.008,-0.012 -0.0233,-0.019 -0.0316,-0.032 -0.0261,-0.039 -0.0349,-0.089 -0.0631,-0.1262 -0.0436,-0.058 -0.11126,-0.102 -0.15783,-0.1579 -0.0337,-0.04 -0.0655,-0.082 -0.0947,-0.1262 -0.0131,-0.02 -0.0149,-0.046 -0.0316,-0.063 -0.007,-0.01 -0.0241,0.01 -0.0316,0 -0.0166,-0.017 -0.0149,-0.046 -0.0316,-0.063 -0.0166,-0.017 -0.0465,-0.015 -0.0631,-0.032 -0.0166,-0.017 -0.0174,-0.044 -0.0316,-0.063 -0.0617,-0.082 -0.0641,-0.035 -0.0947,-0.1263 -0.003,-0.01 0.006,-0.023 0,-0.032 -0.0165,-0.025 -0.0453,-0.039 -0.0631,-0.063 -0.0141,-0.019 -0.0174,-0.044 -0.0316,-0.063 -0.13654,-0.1365 -0.005,0.01 -0.0947,-0.1263 -0.0248,-0.037 -0.0679,-0.059 -0.0947,-0.095 -0.0141,-0.019 -0.0174,-0.044 -0.0316,-0.063 -0.0268,-0.036 -0.0699,-0.058 -0.0947,-0.095 -0.0131,-0.02 -0.0174,-0.044 -0.0316,-0.063 -0.13654,-0.1365 -0.005,0.01 -0.0947,-0.1262 -0.031,-0.046 -0.0953,-0.08 -0.12627,-0.1263 -0.013,-0.02 -0.0174,-0.044 -0.0316,-0.063 -0.0179,-0.024 -0.0421,-0.042 -0.0631,-0.063 -0.0316,-0.032 -0.0631,-0.063 -0.0947,-0.095 -0.021,-0.021 -0.0466,-0.038 -0.0631,-0.063 -0.006,-0.01 0.006,-0.023 0,-0.032 -0.0165,-0.025 -0.0421,-0.042 -0.0631,-0.063 -0.021,-0.021 -0.0421,-0.042 -0.0631,-0.063 -0.021,-0.021 -0.0453,-0.039 -0.0631,-0.063 -0.0141,-0.019 -0.0149,-0.047 -0.0316,-0.063 -0.0166,-0.017 -0.0436,-0.018 -0.0631,-0.032 -0.0124,-0.01 -0.0192,-0.023 -0.0316,-0.032 -0.0196,-0.013 -0.0465,-0.015 -0.0631,-0.032 -0.0166,-0.017 -0.0185,-0.044 -0.0316,-0.063 -0.008,-0.012 -0.0249,-0.018 -0.0316,-0.032 -0.005,-0.01 0.005,-0.022 0,-0.032 -0.014,-0.028 -0.0755,-0.066 -0.0947,-0.095 -0.0131,-0.02 -0.0185,-0.044 -0.0316,-0.063 -0.0165,-0.025 -0.0498,-0.037 -0.0631,-0.063 -0.005,-0.01 0.007,-0.024 0,-0.032 -0.007,-0.01 -0.0241,0.01 -0.0316,0 -0.007,-0.01 0.005,-0.022 0,-0.032 -0.004,-0.01 -0.0563,-0.038 -0.0316,-0.063 0.007,-0.01 0.0222,0 0.0316,0 0.0133,-0.01 0.0197,-0.023 0.0316,-0.032 0.0304,-0.023 0.0608,-0.046 0.0947,-0.063 0.28936,-0.1447 0.0357,0.028 0.2841,-0.1579 0.0286,-0.022 0.17481,-0.1347 0.22097,-0.1578 0.1556,-0.078 0.0386,0.026 0.18941,-0.095 0.0232,-0.019 0.0421,-0.042 0.0631,-0.063 0.0737,-0.074 0.14258,-0.1524 0.22097,-0.221 0.0285,-0.025 0.0643,-0.04 0.0947,-0.063 0.0357,-0.027 0.0598,-0.067 0.0947,-0.095 0.0296,-0.024 0.0679,-0.036 0.0947,-0.063 0.0268,-0.027 0.0394,-0.065 0.0631,-0.095 0.0181,-0.023 0.16872,-0.1756 0.1894,-0.1894 0.009,-0.01 0.0241,0.01 0.0316,0 0.0166,-0.017 0.0174,-0.044 0.0316,-0.063 0.0179,-0.024 0.0453,-0.039 0.0631,-0.063 0.0141,-0.019 0.0185,-0.043 0.0316,-0.063 0.008,-0.012 0.0233,-0.019 0.0316,-0.032 0.013,-0.02 0.0174,-0.044 0.0316,-0.063 0.0179,-0.024 0.0466,-0.038 0.0631,-0.063 0.006,-0.01 0,-0.021 0,-0.032 0.0105,-0.021 0.0185,-0.044 0.0316,-0.063 0.008,-0.012 0.0269,-0.017 0.0316,-0.032 0.007,-0.02 -0.007,-0.043 0,-0.063 0.009,-0.028 0.0498,-0.036 0.0631,-0.063 0.009,-0.019 -0.007,-0.073 0,-0.095 0.007,-0.022 0.0259,-0.04 0.0316,-0.063 0.005,-0.02 -0.004,-0.043 0,-0.063 0.007,-0.033 0.0235,-0.062 0.0316,-0.095 0.003,-0.01 -0.003,-0.022 0,-0.032 0.007,-0.022 0.0241,-0.041 0.0316,-0.063 0.006,-0.018 0,-0.074 0,-0.095 0,-0.084 0,-0.1683 0,-0.2525 0,-0.01 0.001,-0.094 0,-0.095 -0.001,-10e-4 -0.0871,0 -0.0947,0 -0.0852,0 -0.0213,0 -0.1894,-0.032 z"
           id="path9890"
           inkscape:connector-curvature="0" />
        <path
           style="fill:#999999;stroke:none"
           d="m 162.91867,1118.8113 c -0.18314,0.7325 -0.01,-0.047 -0.0631,0.3788 -0.005,0.043 -0.0254,0.083 -0.0316,0.1262 -0.004,0.031 0,0.063 0,0.095 0,0.074 0,0.1473 0,0.221 0,0.053 0,0.1052 0,0.1578 0,0.021 -0.005,0.043 0,0.063 0.006,0.023 0.021,0.042 0.0316,0.063 0.0211,0.042 0.0483,0.082 0.0631,0.1263 0.003,0.01 -0.003,0.021 0,0.032 0.02,0.08 0.0583,0.1482 0.0947,0.221 0.0105,0.021 0.0211,0.042 0.0316,0.063 0.0105,0.021 0.0174,0.044 0.0316,0.063 0.0268,0.036 0.0699,0.058 0.0947,0.095 0.013,0.02 0.021,0.042 0.0316,0.063 0.0211,0.021 0.0453,0.039 0.0631,0.063 0.0141,0.019 0.0185,0.044 0.0316,0.063 0.008,0.012 0.0233,0.019 0.0316,0.032 0.0261,0.039 0.0349,0.089 0.0631,0.1262 0.0179,0.024 0.0478,0.038 0.0631,0.063 0.0171,0.029 0.0167,0.065 0.0316,0.095 0.007,0.013 0.0233,0.019 0.0316,0.032 0.013,0.02 0.0149,0.046 0.0316,0.063 0.0268,0.027 0.0679,0.036 0.0947,0.063 0.0268,0.027 0.0394,0.065 0.0631,0.095 0.0186,0.023 0.0421,0.042 0.0631,0.063 0.0316,0.032 0.0598,0.067 0.0947,0.095 0.0184,0.015 0.0448,0.017 0.0631,0.032 0.0349,0.028 0.0584,0.069 0.0947,0.095 0.0383,0.027 0.0854,0.04 0.12627,0.063 0.0329,0.019 0.0608,0.046 0.0947,0.063 0.0298,0.015 0.0649,0.017 0.0947,0.032 0.0133,0.01 0.0182,0.025 0.0316,0.032 0.0298,0.015 0.0638,0.019 0.0947,0.032 0.0411,-0.018 0.0689,0.05 0.0947,0.063 0.0298,0.015 0.0638,0.019 0.0947,0.032 0.0218,0.01 0.0413,0.023 0.0631,0.032 0.1854,0.074 0.004,7e-4 0.18941,0.032 0.0656,0.011 0.12414,0.05 0.1894,0.063 0.0206,0 0.0427,0 0.0631,0 0.0457,0.011 0.0806,0.052 0.12626,0.063 0.0204,0 0.0421,0 0.0631,0 0.0105,0 0.0222,-0.01 0.0316,0 0.0133,0.01 0.0182,0.025 0.0316,0.032 0.009,0 0.0211,0 0.0316,0 0.0105,0 0.0211,0 0.0316,0 0.0105,0 0.021,0 0.0316,0 0.0105,0 0.0316,-0.011 0.0316,0 0,0.01 -0.0241,-0.01 -0.0316,0 -0.0149,0.015 0.009,0.044 0,0.063 -0.007,0.013 -0.021,0.021 -0.0316,0.032 -0.0105,0.021 -0.0228,0.041 -0.0316,0.063 -0.0124,0.031 -0.0224,0.063 -0.0316,0.095 -0.0119,0.042 -0.0154,0.086 -0.0316,0.1263 -0.006,0.014 -0.0211,0.021 -0.0316,0.032 -0.0105,0.032 -0.025,0.062 -0.0316,0.095 -0.004,0.021 0.004,0.043 0,0.063 0.011,0.064 -0.052,0.1023 -0.0631,0.1579 -0.006,0.031 0.006,0.064 0,0.095 -0.005,0.023 -0.027,0.04 -0.0316,0.063 -0.006,0.031 0.005,0.064 0,0.095 -0.005,0.033 -0.0211,0.063 -0.0316,0.095 -0.0105,0.042 -0.0254,0.083 -0.0316,0.1262 -0.004,0.031 0.005,0.064 0,0.095 -0.005,0.033 -0.025,0.062 -0.0316,0.095 -0.004,0.021 0.004,0.043 0,0.063 -0.013,0.065 -0.047,0.1249 -0.0631,0.1894 -0.003,0.01 0.003,0.022 0,0.032 -0.0179,0.054 -0.0476,0.1034 -0.0631,0.1579 -0.006,0.02 0.003,0.042 0,0.063 -0.007,0.043 -0.0211,0.084 -0.0316,0.1262 -0.0105,0.042 -0.0197,0.085 -0.0316,0.1263 -0.009,0.032 -0.0192,0.064 -0.0316,0.095 -0.0175,0.044 -0.0517,0.081 -0.0631,0.1263 -0.005,0.02 0.005,0.043 0,0.063 -0.006,0.023 -0.0228,0.041 -0.0316,0.063 -0.0124,0.031 -0.0167,0.065 -0.0316,0.095 -0.007,0.013 -0.0249,0.018 -0.0316,0.032 -0.0149,0.03 -0.0192,0.064 -0.0316,0.095 -0.009,0.022 -0.0269,0.04 -0.0316,0.063 -0.006,0.031 0.006,0.064 0,0.095 -0.008,0.04 -0.0551,0.086 -0.0631,0.1262 -0.006,0.031 0.006,0.064 0,0.095 -0.005,0.023 -0.0228,0.041 -0.0316,0.063 -0.0123,0.031 -0.025,0.062 -0.0316,0.095 -0.004,0.021 0,0.042 0,0.063 -0.0105,0.021 -0.0241,0.041 -0.0316,0.063 -0.003,0.01 0.005,0.022 0,0.032 -0.007,0.013 -0.0249,0.018 -0.0316,0.032 -0.005,0.01 0.003,0.022 0,0.032 -0.0105,0.021 -0.021,0.042 -0.0316,0.063 0,0.01 0.003,0.022 0,0.032 -0.007,0.022 -0.0241,0.041 -0.0316,0.063 -0.003,0.01 0,0.021 0,0.032 -0.0105,0.021 -0.0241,0.041 -0.0316,0.063 -0.003,0.01 0.005,0.022 0,0.032 -0.007,0.013 -0.0269,0.017 -0.0316,0.032 -0.007,0.02 0.007,0.043 0,0.063 -0.005,0.014 -0.021,0.021 -0.0316,0.032 0,0.032 0.006,0.064 0,0.095 -0.0254,0.1271 -0.023,0.014 -0.0631,0.095 -0.005,0.01 0.007,0.024 0,0.032 -0.007,0.01 -0.0241,-0.01 -0.0316,0 -0.0149,0.015 0.009,0.044 0,0.063 -0.007,0.013 -0.0249,0.018 -0.0316,0.032 -0.005,0.01 0.007,0.024 0,0.032 -0.007,0.01 -0.0241,0.01 -0.0316,0 -0.007,-0.01 0.005,-0.022 0,-0.032 -0.007,-0.013 -0.021,-0.021 -0.0316,-0.032 -0.1933,-0.1933 0.0532,0.04 -0.12627,-0.095 -0.0238,-0.018 -0.0421,-0.042 -0.0631,-0.063 -0.0316,-0.032 -0.0668,-0.06 -0.0947,-0.095 -0.0917,-0.1145 0.0442,-0.015 -0.0947,-0.1262 -0.0296,-0.024 -0.0643,-0.04 -0.0947,-0.063 -0.0119,-0.01 -0.0197,-0.023 -0.0316,-0.032 -0.0304,-0.023 -0.0631,-0.042 -0.0947,-0.063 -0.0316,-0.021 -0.0608,-0.046 -0.0947,-0.063 -0.30456,-0.1523 0.0164,0.044 -0.12627,-0.063 -0.15513,-0.1164 -0.0354,-0.021 -0.15783,-0.095 -0.0651,-0.039 -0.12434,-0.087 -0.18941,-0.1263 -0.0202,-0.012 -0.0436,-0.018 -0.0631,-0.032 -0.0429,-0.029 -0.1645,-0.1296 -0.22097,-0.1578 -0.0298,-0.015 -0.0681,-0.012 -0.0947,-0.032 -0.0188,-0.014 -0.0149,-0.046 -0.0316,-0.063 -0.0166,-0.017 -0.043,-0.02 -0.0631,-0.032 -0.0325,-0.02 -0.0679,-0.036 -0.0947,-0.063 -0.0268,-0.027 -0.0404,-0.064 -0.0631,-0.095 -0.009,-0.012 -0.0211,-0.021 -0.0316,-0.032 -0.0316,-0.032 -0.0584,-0.069 -0.0947,-0.095 -0.0383,-0.027 -0.088,-0.036 -0.12627,-0.063 -0.0363,-0.026 -0.0604,-0.066 -0.0947,-0.095 -0.0292,-0.024 -0.0644,-0.04 -0.0947,-0.063 -0.0476,-0.036 -0.0805,-0.088 -0.12627,-0.1263 -0.0292,-0.024 -0.0679,-0.036 -0.0947,-0.063 -0.0372,-0.037 -0.0618,-0.085 -0.0947,-0.1263 -0.056,-0.07 -0.0253,0.01 -0.12626,-0.095 -0.0268,-0.027 -0.0394,-0.065 -0.0631,-0.095 -0.0519,-0.065 -0.14033,-0.1239 -0.1894,-0.1894 -0.0141,-0.019 -0.0185,-0.044 -0.0316,-0.063 -0.0631,-0.095 0,0.063 -0.0947,-0.095 -0.0171,-0.028 -0.0167,-0.065 -0.0316,-0.095 -0.0339,-0.068 -0.0872,-0.1243 -0.12627,-0.1894 -0.0358,-0.06 -0.0635,-0.1271 -0.0947,-0.1894 -0.0211,-0.042 -0.0457,-0.083 -0.0631,-0.1262 -0.0247,-0.062 -0.0384,-0.1277 -0.0631,-0.1895 -0.009,-0.022 -0.0228,-0.041 -0.0316,-0.063 -0.0123,-0.031 -0.0192,-0.064 -0.0316,-0.095 -0.009,-0.022 -0.0241,-0.041 -0.0316,-0.063 -0.003,-0.01 0,-0.021 0,-0.032 0,-0.032 0.006,-0.064 0,-0.095 -0.005,-0.023 -0.0211,-0.042 -0.0316,-0.063 -0.0105,-0.032 -0.0261,-0.062 -0.0316,-0.095 -0.005,-0.031 0,-0.063 0,-0.095 0,-0.032 0,-0.063 0,-0.095 0,-0.01 0.003,-0.022 0,-0.032 -0.007,-0.022 -0.0269,-0.04 -0.0316,-0.063 -0.0248,-0.04 0.008,-0.085 0,-0.1262 -0.10007,-0.4003 0.025,0.1433 -0.0316,-0.2526 -0.005,-0.033 -0.025,-0.062 -0.0316,-0.095 -0.008,-0.041 0.0133,-0.086 0,-0.1262 -0.005,-0.014 -0.0269,-0.017 -0.0316,-0.032 -0.0133,-0.04 0.008,-0.085 0,-0.1263 -0.007,-0.033 -0.025,-0.062 -0.0316,-0.095 -0.004,-0.021 0,-0.042 0,-0.063 0,-0.063 0,-0.1263 0,-0.1894 0,-0.032 0.006,-0.064 0,-0.095 -0.005,-0.023 -0.0277,-0.04 -0.0316,-0.063 -0.007,-0.042 0,-0.084 0,-0.1263 0,-0.095 0,-0.1894 0,-0.2841 0,-0.084 0,-0.1683 0,-0.2525 0,-0.042 -0.006,-0.085 0,-0.1263 0.005,-0.033 0.0261,-0.062 0.0316,-0.095 0.005,-0.031 -0.005,-0.064 0,-0.095 0.005,-0.033 0.025,-0.062 0.0316,-0.095 0.004,-0.021 0,-0.042 0,-0.063 0.0105,-0.074 0.0154,-0.1483 0.0316,-0.221 0.005,-0.023 0.0259,-0.04 0.0316,-0.063 0.0155,-0.062 0.0201,-0.1264 0.0316,-0.1894 0.01,-0.053 0.024,-0.1047 0.0316,-0.1578 0.005,-0.038 -0.009,-0.1616 0,-0.1894 0.005,-0.014 0.0249,-0.018 0.0316,-0.032 0.005,-0.01 -0.007,-0.024 0,-0.032 0.007,-0.01 0.0211,0 0.0316,0 0.0105,0 0.0216,0 0.0316,0 0.0223,0.01 0.0403,0.026 0.0631,0.032 0.0204,0.01 0.0427,0 0.0631,0 0.14509,0.036 0.007,0.032 0.0947,0.032 0.2237,0 -0.0536,-0.01 0.22097,0.032 0.0312,0 0.0631,0 0.0947,0 0.0316,0 0.0631,0 0.0947,0 0.0211,0 0.0427,0.01 0.0631,0 0.0228,-0.01 0.0403,-0.026 0.0631,-0.032 0.0261,-0.01 0.22023,0 0.25254,0 0.12627,0 0.25254,0 0.37881,0 0.11574,0 0.23149,0 0.34724,0 0.021,0 0.0421,0 0.0631,0 0.0211,0 0.0432,-0.01 0.0631,0 0.11703,0.039 -0.0385,0.032 0.0631,0.032 0.0105,0 0.021,0 0.0316,0 0.0105,0 0.0222,0 0.0316,0 0.0133,0.01 0.0183,0.025 0.0316,0.032 0.0199,0.01 0.13792,-0.01 0.15784,0 0.0133,0.01 0.0182,0.025 0.0316,0.032 0.009,0 0.0211,0 0.0316,0 0.0105,0 0.0241,0.01 0.0316,0 0.007,-0.01 0,-0.021 0,-0.032 0,-0.053 0,-0.1052 0,-0.1578 z"
           id="path9892"
           inkscape:connector-curvature="0" />
      </g>
      <text
         sodipodi:linespacing="125%"
         id="text9900"
         y="1047.3114"
         x="214.65742"
         style="font-size:40px;font-style:normal;font-weight:normal;line-height:125%;letter-spacing:0px;word-spacing:0px;fill:#000000;fill-opacity:1;stroke:none;font-family:Sans"
         xml:space="preserve"><tspan
           style="font-size:10px;fill:#999999"
           y="1047.3114"
           x="214.65742"
           id="tspan9902"
           sodipodi:role="line">NukeOS</tspan></text>
    </g>
  </g>
</svg>
